STARTFONT 2.1
COMMENT
COMMENT Converted from OpenType font "ArialI.otf" by "otf2bdf 3.0".
COMMENT
FONT -FreeType-Arial-Medium-I-Normal--28-200-100-100-P-145-ISO10646-1
SIZE 20 100 100
FONTBOUNDINGBOX 44 37 -14 -9
STARTPROPERTIES 19
FOUNDRY "FreeType"
FAMILY_NAME "Arial"
WEIGHT_NAME "Medium"
SLANT "I"
SETWIDTH_NAME "Normal"
ADD_STYLE_NAME ""
PIXEL_SIZE 28
POINT_SIZE 200
RESOLUTION_X 100
RESOLUTION_Y 100
SPACING "P"
AVERAGE_WIDTH 145
CHARSET_REGISTRY "ISO10646"
CHARSET_ENCODING "1"
FONT_ASCENT 25
FONT_DESCENT 5
COPYRIGHT "© 2006 The Monotype Corporation. All Rights Reserved."
_OTF_FONTFILE "ArialI.otf"
_OTF_PSNAME "Arial-ItalicMT"
ENDPROPERTIES
CHARS 959
STARTCHAR 0020
ENCODING 32
SWIDTH 288 0
DWIDTH 8 0
BBX 0 0 0 0
BITMAP
ENDCHAR
STARTCHAR 0021
ENCODING 33
SWIDTH 288 0
DWIDTH 8 0
BBX 6 20 2 0
BITMAP
1C
1C
1C
1C
1C
38
38
38
30
30
30
30
60
60
60
00
00
E0
E0
C0
ENDCHAR
STARTCHAR 0022
ENCODING 34
SWIDTH 360 0
DWIDTH 10 0
BBX 8 7 4 13
BITMAP
67
E7
E6
EE
CE
CC
CC
ENDCHAR
STARTCHAR 0023
ENCODING 35
SWIDTH 540 0
DWIDTH 15 0
BBX 15 20 1 0
BITMAP
060C
060C
0618
0618
0618
0C18
FFFE
FFFE
0C30
0C30
1830
1870
1860
FFFE
FFFE
3060
30E0
30C0
30C0
30C0
ENDCHAR
STARTCHAR 0024
ENCODING 36
SWIDTH 540 0
DWIDTH 15 0
BBX 15 24 1 -3
BITMAP
0060
03F0
07F8
0E5C
1C4E
18CE
18C0
1880
1C80
0F80
07C0
01F0
0178
0138
011C
E31C
621C
7218
7238
3FF0
1FE0
0400
0400
0400
ENDCHAR
STARTCHAR 0025
ENCODING 37
SWIDTH 900 0
DWIDTH 25 0
BBX 21 21 3 -1
BITMAP
1E0060
7F00C0
630180
C38380
C38300
C30600
C30C00
C71C00
EE3800
7C3000
0061C0
00C3F0
01C630
018618
030C18
060C38
0C0C30
1C0C30
180C70
3007E0
600380
ENDCHAR
STARTCHAR 0026
ENCODING 38
SWIDTH 684 0
DWIDTH 19 0
BBX 16 20 2 0
BITMAP
01F0
03F8
0718
061C
0E18
0E38
0670
07E0
07C0
1F80
3DC0
71C0
60E7
E0E7
E07E
E03C
E03C
707E
3FEE
1FC6
ENDCHAR
STARTCHAR 0027
ENCODING 39
SWIDTH 180 0
DWIDTH 5 0
BBX 3 7 4 13
BITMAP
E0
E0
E0
C0
C0
C0
80
ENDCHAR
STARTCHAR 0028
ENCODING 40
SWIDTH 324 0
DWIDTH 9 0
BBX 9 26 2 -6
BITMAP
0180
0300
0600
0600
0C00
1C00
1800
3800
3000
7000
7000
6000
6000
6000
E000
E000
E000
E000
E000
6000
6000
6000
6000
3000
3000
3000
ENDCHAR
STARTCHAR 0029
ENCODING 41
SWIDTH 324 0
DWIDTH 9 0
BBX 9 26 -1 -6
BITMAP
0600
0600
0700
0300
0300
0300
0380
0380
0380
0380
0380
0380
0300
0300
0300
0700
0600
0600
0E00
0C00
1C00
1800
3000
6000
6000
C000
ENDCHAR
STARTCHAR 002A
ENCODING 42
SWIDTH 396 0
DWIDTH 11 0
BBX 9 8 3 12
BITMAP
0C00
0C00
6980
FF80
1C00
1E00
3700
2300
ENDCHAR
STARTCHAR 002B
ENCODING 43
SWIDTH 576 0
DWIDTH 16 0
BBX 14 13 2 3
BITMAP
0300
0300
0300
0300
0300
FFFC
FFFC
0300
0300
0300
0300
0300
0300
ENDCHAR
STARTCHAR 002C
ENCODING 44
SWIDTH 288 0
DWIDTH 8 0
BBX 4 7 1 -4
BITMAP
70
70
60
20
20
40
80
ENDCHAR
STARTCHAR 002D
ENCODING 45
SWIDTH 324 0
DWIDTH 9 0
BBX 8 2 1 6
BITMAP
7F
FF
ENDCHAR
STARTCHAR 002E
ENCODING 46
SWIDTH 288 0
DWIDTH 8 0
BBX 3 3 2 0
BITMAP
E0
E0
C0
ENDCHAR
STARTCHAR 002F
ENCODING 47
SWIDTH 288 0
DWIDTH 8 0
BBX 12 20 -1 0
BITMAP
0030
0070
0060
00C0
00C0
0180
0180
0300
0300
0600
0600
0C00
0C00
1800
1800
3000
3000
6000
6000
C000
ENDCHAR
STARTCHAR 0030
ENCODING 48
SWIDTH 540 0
DWIDTH 15 0
BBX 14 20 2 0
BITMAP
03E0
07F0
0E38
1818
381C
301C
701C
701C
601C
E01C
E018
E018
C038
C038
C030
C070
E060
60C0
7FC0
3F00
ENDCHAR
STARTCHAR 0031
ENCODING 49
SWIDTH 540 0
DWIDTH 15 0
BBX 9 20 4 0
BITMAP
0080
0180
0380
0F80
3F00
7B00
E300
0700
0700
0600
0600
0E00
0E00
0E00
0C00
0C00
1C00
1C00
1800
1800
ENDCHAR
STARTCHAR 0032
ENCODING 50
SWIDTH 540 0
DWIDTH 15 0
BBX 14 20 2 0
BITMAP
07C0
0FF0
1C38
3818
301C
301C
001C
0018
0038
0070
00E0
03C0
0780
0E00
1C00
3800
7000
E000
FFF0
FFF0
ENDCHAR
STARTCHAR 0033
ENCODING 51
SWIDTH 540 0
DWIDTH 15 0
BBX 13 20 2 0
BITMAP
03C0
0FF0
1C38
3818
3018
1018
0018
0038
0070
03E0
03E0
0070
0030
0038
0030
C030
C070
E0E0
7FC0
3F80
ENDCHAR
STARTCHAR 0034
ENCODING 52
SWIDTH 540 0
DWIDTH 15 0
BBX 14 20 1 0
BITMAP
000C
001C
0038
0078
00F8
01F8
03B8
0730
0E30
1C30
1870
3070
6060
7FFC
FFFC
00E0
00C0
00C0
00C0
01C0
ENDCHAR
STARTCHAR 0035
ENCODING 53
SWIDTH 540 0
DWIDTH 15 0
BBX 14 20 2 0
BITMAP
0FFC
0FFC
0FF8
1C00
1800
1800
3800
37E0
3FF0
3838
7038
0018
0018
0018
C038
E038
E070
70E0
7FC0
3F80
ENDCHAR
STARTCHAR 0036
ENCODING 54
SWIDTH 540 0
DWIDTH 15 0
BBX 14 20 2 0
BITMAP
01E0
07F8
0E38
1C1C
181C
3800
3000
77C0
7FF0
7870
7038
E038
E018
E018
E038
6030
6070
70E0
3FC0
1F80
ENDCHAR
STARTCHAR 0037
ENCODING 55
SWIDTH 540 0
DWIDTH 15 0
BBX 14 20 3 0
BITMAP
7FFC
7FF8
FFF8
0070
0060
00C0
01C0
0380
0300
0700
0600
0E00
0C00
1C00
1800
3800
3800
3000
7000
7000
ENDCHAR
STARTCHAR 0038
ENCODING 56
SWIDTH 540 0
DWIDTH 15 0
BBX 14 20 2 0
BITMAP
03E0
0FF0
1C38
381C
381C
301C
3818
1838
1FF0
1FE0
38F0
7030
6038
E038
E038
E030
E070
70E0
7FE0
3F80
ENDCHAR
STARTCHAR 0039
ENCODING 57
SWIDTH 540 0
DWIDTH 15 0
BBX 13 20 2 0
BITMAP
07C0
0FE0
1C70
3838
7018
7018
6018
6018
6038
7038
7078
3CF8
1FB8
0630
0070
C060
E0E0
E1C0
7F80
3F00
ENDCHAR
STARTCHAR 003A
ENCODING 58
SWIDTH 288 0
DWIDTH 8 0
BBX 5 14 2 0
BITMAP
38
38
00
00
00
00
00
00
00
00
00
E0
E0
C0
ENDCHAR
STARTCHAR 003B
ENCODING 59
SWIDTH 288 0
DWIDTH 8 0
BBX 6 18 1 -4
BITMAP
1C
1C
00
00
00
00
00
00
00
00
00
70
70
60
20
20
40
80
ENDCHAR
STARTCHAR 003C
ENCODING 60
SWIDTH 576 0
DWIDTH 16 0
BBX 14 13 2 4
BITMAP
001C
007C
03F0
0FC0
3E00
F800
F000
7C00
1F80
03E0
00FC
003C
0004
ENDCHAR
STARTCHAR 003D
ENCODING 61
SWIDTH 576 0
DWIDTH 16 0
BBX 14 8 2 6
BITMAP
FFFC
FFFC
0000
0000
0000
0000
FFFC
FFFC
ENDCHAR
STARTCHAR 003E
ENCODING 62
SWIDTH 576 0
DWIDTH 16 0
BBX 14 14 2 3
BITMAP
8000
E000
F800
3F00
0FC0
01F0
007C
003C
00F8
07E0
1F80
7C00
F000
8000
ENDCHAR
STARTCHAR 003F
ENCODING 63
SWIDTH 540 0
DWIDTH 15 0
BBX 12 20 4 0
BITMAP
1F80
3FC0
70E0
E060
C070
C060
00E0
00E0
03C0
0780
0E00
1C00
1800
3800
3000
0000
0000
7000
7000
7000
ENDCHAR
STARTCHAR 0040
ENCODING 64
SWIDTH 1008 0
DWIDTH 28 0
BBX 25 26 2 -6
BITMAP
00FFC000
03FFF000
07807800
1E001C00
18000E00
30180600
70FEE300
61E7C300
E383C300
C381C380
C701C180
C7018300
C6018300
C6018300
C6038700
C6038600
C7070C00
C38FBC00
E3FBF800
60F3E000
70000380
38000700
1E001E00
0FC07C00
03FFF000
007F8000
ENDCHAR
STARTCHAR 0041
ENCODING 65
SWIDTH 684 0
DWIDTH 19 0
BBX 17 20 0 0
BITMAP
003C00
003C00
007C00
006C00
00EE00
00CE00
01CE00
018600
038600
070600
070700
0E0700
0FFF00
1FFF00
180300
380300
700380
700380
E00380
E00380
ENDCHAR
STARTCHAR 0042
ENCODING 66
SWIDTH 684 0
DWIDTH 19 0
BBX 17 20 1 0
BITMAP
0FFC00
0FFF00
0E0F80
0C0380
1C0180
1C0180
1C0380
180300
181F00
3FFC00
3FFE00
380700
300380
300380
700380
700300
700700
601E00
7FFC00
FFF800
ENDCHAR
STARTCHAR 0043
ENCODING 67
SWIDTH 720 0
DWIDTH 20 0
BBX 17 20 3 0
BITMAP
03FC00
0FFE00
1E0F00
3C0380
380380
700180
600000
E00000
E00000
C00000
C00000
C00000
C00000
C00300
E00700
E00600
F00E00
783C00
3FF800
1FE000
ENDCHAR
STARTCHAR 0044
ENCODING 68
SWIDTH 720 0
DWIDTH 20 0
BBX 19 20 1 0
BITMAP
0FFC00
0FFF00
0E1F80
0C03C0
1C01C0
1C00C0
1C00E0
1C00E0
1800E0
3800E0
3800E0
3800C0
3001C0
3001C0
700380
700780
700F00
607E00
7FFC00
FFE000
ENDCHAR
STARTCHAR 0045
ENCODING 69
SWIDTH 684 0
DWIDTH 19 0
BBX 19 20 1 0
BITMAP
0FFFE0
0FFFC0
0E0000
0C0000
1C0000
1C0000
1C0000
1C0000
180000
3FFF00
3FFF00
380000
300000
300000
700000
700000
700000
600000
7FFF00
FFFF00
ENDCHAR
STARTCHAR 0046
ENCODING 70
SWIDTH 612 0
DWIDTH 17 0
BBX 17 20 1 0
BITMAP
0FFF80
0FFF80
0E0000
0C0000
1C0000
1C0000
1C0000
1C0000
180000
3FFF00
3FFE00
380000
300000
300000
700000
700000
700000
600000
600000
E00000
ENDCHAR
STARTCHAR 0047
ENCODING 71
SWIDTH 792 0
DWIDTH 22 0
BBX 18 20 3 0
BITMAP
01FC00
07FF00
0F0780
1C03C0
3801C0
7001C0
700000
E00000
E00000
E00000
C07F80
C07F80
C00380
E00380
E00380
E00300
700700
781F00
3FFE00
0FF800
ENDCHAR
STARTCHAR 0048
ENCODING 72
SWIDTH 720 0
DWIDTH 20 0
BBX 20 20 1 0
BITMAP
0E0070
0E0070
0C0060
0C0060
1C00E0
1C00E0
1C00E0
1800C0
1FFFC0
3FFFC0
3FFFC0
3801C0
300180
300380
700380
700380
700380
600300
E00700
E00700
ENDCHAR
STARTCHAR 0049
ENCODING 73
SWIDTH 288 0
DWIDTH 8 0
BBX 6 20 2 0
BITMAP
0C
1C
1C
1C
18
18
38
38
38
30
30
70
70
70
60
60
E0
E0
E0
C0
ENDCHAR
STARTCHAR 004A
ENCODING 74
SWIDTH 504 0
DWIDTH 14 0
BBX 14 20 1 0
BITMAP
001C
001C
0018
0018
0038
0038
0038
0030
0070
0070
0070
0070
0060
00E0
E0E0
C0E0
E0C0
E1C0
7F80
3F00
ENDCHAR
STARTCHAR 004B
ENCODING 75
SWIDTH 684 0
DWIDTH 19 0
BBX 19 20 1 0
BITMAP
0E01E0
0E03C0
0E0780
0C0F00
1C1E00
1C3800
1C7000
1CE000
1BE000
3FE000
3F7000
3E7000
383800
303800
701C00
700E00
700E00
600700
600700
E00380
ENDCHAR
STARTCHAR 004C
ENCODING 76
SWIDTH 540 0
DWIDTH 15 0
BBX 13 20 1 0
BITMAP
0E00
0E00
0C00
0C00
1C00
1C00
1C00
1800
1800
3800
3800
3800
3000
7000
7000
7000
6000
6000
FFF8
FFF8
ENDCHAR
STARTCHAR 004D
ENCODING 77
SWIDTH 828 0
DWIDTH 23 0
BBX 23 20 1 0
BITMAP
0F000E
0F001E
0F001E
0F003E
1F007C
1F006C
1F80FC
1980DC
1981D8
398198
398338
398738
31C638
31CE30
70CC30
70DC70
70D870
60F070
60F060
E0E060
ENDCHAR
STARTCHAR 004E
ENCODING 78
SWIDTH 720 0
DWIDTH 20 0
BBX 20 20 1 0
BITMAP
0E0070
0F0070
0F0070
0F8060
0D8060
1DC0E0
1DC0E0
1CC0C0
18E0C0
1861C0
3871C0
3831C0
383980
303980
701B80
701F80
700F80
600F00
600700
E00700
ENDCHAR
STARTCHAR 004F
ENCODING 79
SWIDTH 792 0
DWIDTH 22 0
BBX 18 20 3 0
BITMAP
03FC00
0FFE00
1E0F00
3C0380
3801C0
7001C0
E000C0
E000C0
E000C0
C000C0
C000C0
C001C0
C001C0
C001C0
E00380
E00700
700F00
781E00
3FFC00
0FF000
ENDCHAR
STARTCHAR 0050
ENCODING 80
SWIDTH 684 0
DWIDTH 19 0
BBX 18 20 1 0
BITMAP
0FFE00
0FFF80
0E03C0
0C01C0
1C00C0
1C00C0
1C00C0
1801C0
180380
380F80
3FFF00
3FF800
300000
300000
700000
700000
700000
600000
600000
E00000
ENDCHAR
STARTCHAR 0051
ENCODING 81
SWIDTH 792 0
DWIDTH 22 0
BBX 18 22 3 -2
BITMAP
03FC00
0FFE00
1F0F00
3C0380
3801C0
7001C0
6000C0
E000C0
E000C0
C000C0
C000C0
C001C0
C001C0
C001C0
E00380
E0E780
707F00
783E00
3FFC00
0FFE00
000700
000300
ENDCHAR
STARTCHAR 0052
ENCODING 82
SWIDTH 720 0
DWIDTH 20 0
BBX 19 20 1 0
BITMAP
0FFF00
0FFFC0
0E01E0
0C00E0
0C0060
1C0060
1C00E0
1C00E0
1803C0
3FFF80
3FFE00
383800
381C00
300E00
700600
700700
700700
600380
600380
E001C0
ENDCHAR
STARTCHAR 0053
ENCODING 83
SWIDTH 684 0
DWIDTH 19 0
BBX 17 20 2 0
BITMAP
03F800
0FFE00
1E0F00
180700
380380
380380
1C0000
1E0000
0F8000
07E000
01F800
007C00
001E00
600E00
E00600
E00600
E00E00
781C00
3FF800
1FF000
ENDCHAR
STARTCHAR 0054
ENCODING 84
SWIDTH 612 0
DWIDTH 17 0
BBX 16 20 4 0
BITMAP
FFFF
FFFE
0380
0300
0300
0700
0700
0700
0600
0E00
0E00
0E00
0E00
0C00
1C00
1C00
1C00
1800
1800
3800
ENDCHAR
STARTCHAR 0055
ENCODING 85
SWIDTH 720 0
DWIDTH 20 0
BBX 18 20 3 0
BITMAP
3801C0
3801C0
380180
300180
300380
700380
700380
700300
600300
600700
E00700
E00700
E00600
C00E00
C00E00
C00C00
E01C00
F07800
7FF000
1FE000
ENDCHAR
STARTCHAR 0056
ENCODING 86
SWIDTH 684 0
DWIDTH 19 0
BBX 17 20 4 0
BITMAP
C00380
C00300
C00700
E00E00
E00E00
E01C00
601C00
603800
703000
707000
706000
30E000
30C000
39C000
398000
3B8000
1B0000
1E0000
1E0000
1C0000
ENDCHAR
STARTCHAR 0057
ENCODING 87
SWIDTH 936 0
DWIDTH 26 0
BBX 26 20 3 0
BITMAP
E00E00C0
601E01C0
601E0180
603E0380
603E0300
60760700
60760600
70E60E00
70E60C00
71C61C00
71871800
73873800
73073000
77077000
76076000
7E07E000
7C07C000
3C07C000
38078000
38078000
ENDCHAR
STARTCHAR 0058
ENCODING 88
SWIDTH 684 0
DWIDTH 19 0
BBX 21 20 0 0
BITMAP
1C0038
0E0070
0E00E0
0701C0
070380
038700
01CE00
01DC00
00FC00
00F800
00F000
01F000
03F800
079C00
0F1C00
1E0E00
3C0E00
780700
700700
E00380
ENDCHAR
STARTCHAR 0059
ENCODING 89
SWIDTH 684 0
DWIDTH 19 0
BBX 18 20 3 0
BITMAP
E001C0
700380
700780
380700
380E00
1C1C00
1C3C00
0E3800
0E7000
07E000
07E000
03C000
038000
038000
038000
030000
070000
070000
070000
070000
ENDCHAR
STARTCHAR 005A
ENCODING 90
SWIDTH 612 0
DWIDTH 17 0
BBX 17 20 1 0
BITMAP
1FFF80
1FFF80
000700
000E00
001E00
003C00
003800
007000
00E000
01C000
038000
078000
070000
0E0000
1C0000
380000
700000
F00000
FFFE00
FFFE00
ENDCHAR
STARTCHAR 005B
ENCODING 91
SWIDTH 288 0
DWIDTH 8 0
BBX 11 25 0 -5
BITMAP
07E0
07E0
0600
0600
0E00
0E00
0E00
0C00
0C00
1C00
1C00
1C00
1800
1800
3800
3800
3000
3000
3000
7000
7000
6000
6000
6000
FC00
ENDCHAR
STARTCHAR 005C
ENCODING 92
SWIDTH 288 0
DWIDTH 8 0
BBX 5 20 2 0
BITMAP
C0
60
60
60
60
60
60
30
30
30
30
30
30
10
18
18
18
18
18
08
ENDCHAR
STARTCHAR 005D
ENCODING 93
SWIDTH 288 0
DWIDTH 8 0
BBX 10 25 -1 -5
BITMAP
07C0
0FC0
01C0
0180
0180
0180
0380
0380
0300
0300
0700
0700
0700
0600
0600
0E00
0E00
0C00
0C00
0C00
1C00
1C00
1800
1800
F800
ENDCHAR
STARTCHAR 005E
ENCODING 94
SWIDTH 468 0
DWIDTH 13 0
BBX 11 11 2 9
BITMAP
0E00
0E00
0F00
1B00
1B80
3980
31C0
70C0
60E0
E060
E060
ENDCHAR
STARTCHAR 005F
ENCODING 95
SWIDTH 540 0
DWIDTH 15 0
BBX 16 2 -2 -6
BITMAP
FFFF
FFFF
ENDCHAR
STARTCHAR 0060
ENCODING 96
SWIDTH 324 0
DWIDTH 9 0
BBX 4 4 4 16
BITMAP
E0
70
30
30
ENDCHAR
STARTCHAR 0061
ENCODING 97
SWIDTH 540 0
DWIDTH 15 0
BBX 14 15 1 0
BITMAP
01C0
0FF0
1C38
381C
301C
001C
01F8
3FF8
7C38
6038
E030
E070
E0F0
7FB0
3F30
ENDCHAR
STARTCHAR 0062
ENCODING 98
SWIDTH 540 0
DWIDTH 15 0
BBX 14 20 1 0
BITMAP
0C00
0C00
0C00
1C00
1C00
18C0
1BF0
1E38
3C1C
381C
301C
301C
701C
701C
7018
7038
7038
F870
DFE0
CFC0
ENDCHAR
STARTCHAR 0063
ENCODING 99
SWIDTH 504 0
DWIDTH 14 0
BBX 12 15 2 0
BITMAP
0380
1FE0
3CF0
7070
6030
E000
E000
C000
C000
C000
C060
C0E0
E1C0
7F80
3F00
ENDCHAR
STARTCHAR 0064
ENCODING 100
SWIDTH 540 0
DWIDTH 15 0
BBX 16 20 1 0
BITMAP
0007
0006
0006
000E
000E
038C
0FEC
1E6C
383C
301C
7018
6018
6018
6018
E038
6030
6070
70F0
3FF0
1F70
ENDCHAR
STARTCHAR 0065
ENCODING 101
SWIDTH 540 0
DWIDTH 15 0
BBX 14 15 1 0
BITMAP
0180
0FF0
1E38
3818
301C
701C
601C
7FFC
E000
E000
6038
6030
7070
3FE0
1F80
ENDCHAR
STARTCHAR 0066
ENCODING 102
SWIDTH 288 0
DWIDTH 8 0
BBX 10 20 1 0
BITMAP
07C0
0FC0
0E00
0C00
1C00
1C00
7F00
1F00
1800
3800
3800
3000
3000
3000
7000
7000
6000
6000
6000
E000
ENDCHAR
STARTCHAR 0067
ENCODING 103
SWIDTH 540 0
DWIDTH 15 0
BBX 14 21 1 -6
BITMAP
0380
0FEC
1E7C
383C
701C
701C
6018
E018
E018
E038
E038
6070
70F0
3FF0
1F70
0070
C060
C0E0
E1C0
7F80
1E00
ENDCHAR
STARTCHAR 0068
ENCODING 104
SWIDTH 540 0
DWIDTH 15 0
BBX 14 20 1 0
BITMAP
0C00
0C00
0C00
1C00
1C00
1860
1BF8
1F3C
3C1C
381C
3818
3018
7018
7038
7038
6030
6030
E030
E070
C070
ENDCHAR
STARTCHAR 0069
ENCODING 105
SWIDTH 216 0
DWIDTH 6 0
BBX 6 20 1 0
BITMAP
0C
0C
1C
00
00
00
18
38
38
30
30
30
70
70
60
60
60
E0
E0
C0
ENDCHAR
STARTCHAR 006A
ENCODING 106
SWIDTH 216 0
DWIDTH 6 0
BBX 10 26 -3 -6
BITMAP
00C0
00C0
01C0
0000
0000
0000
0180
0380
0380
0300
0300
0300
0700
0700
0600
0600
0600
0E00
0E00
0C00
0C00
1C00
1C00
B800
F800
E000
ENDCHAR
STARTCHAR 006B
ENCODING 107
SWIDTH 504 0
DWIDTH 14 0
BBX 14 20 1 0
BITMAP
0C00
0C00
0C00
1C00
1C00
1800
183C
1870
38E0
39C0
3380
3700
3F80
7980
71C0
61C0
60E0
E0E0
E060
E070
ENDCHAR
STARTCHAR 006C
ENCODING 108
SWIDTH 216 0
DWIDTH 6 0
BBX 6 20 1 0
BITMAP
0C
0C
1C
1C
18
18
18
38
38
30
30
70
70
70
60
60
E0
E0
E0
C0
ENDCHAR
STARTCHAR 006D
ENCODING 109
SWIDTH 828 0
DWIDTH 23 0
BBX 22 15 1 0
BITMAP
00E070
1BF1F8
1F3B38
3C1C1C
381C18
383818
303818
703038
703038
703030
607030
607030
E06070
E06070
C0E060
ENDCHAR
STARTCHAR 006E
ENCODING 110
SWIDTH 540 0
DWIDTH 15 0
BBX 14 15 1 0
BITMAP
00E0
19F8
1F38
3C1C
381C
3818
3018
7018
7038
7038
6030
6030
E030
E070
C070
ENDCHAR
STARTCHAR 006F
ENCODING 111
SWIDTH 540 0
DWIDTH 15 0
BBX 14 15 1 0
BITMAP
03C0
0FF0
1E38
381C
301C
700C
600C
601C
E01C
E01C
E038
6038
7070
3FE0
1FC0
ENDCHAR
STARTCHAR 0070
ENCODING 112
SWIDTH 540 0
DWIDTH 15 0
BBX 15 21 0 -6
BITMAP
0060
0DF8
1F3C
1E0E
1C0E
180E
180E
380E
380E
380C
381C
3818
7C38
7FF0
67E0
6000
6000
E000
E000
C000
C000
ENDCHAR
STARTCHAR 0071
ENCODING 113
SWIDTH 540 0
DWIDTH 15 0
BBX 14 21 1 -6
BITMAP
0380
0FEC
1C6C
383C
301C
7018
6018
6018
E038
E030
E030
6070
70F0
3FF0
1F60
0060
0060
00E0
00E0
00C0
00C0
ENDCHAR
STARTCHAR 0072
ENCODING 114
SWIDTH 324 0
DWIDTH 9 0
BBX 10 15 1 0
BITMAP
00C0
1BC0
1FC0
3C00
3800
3800
3000
7000
7000
6000
6000
6000
E000
E000
C000
ENDCHAR
STARTCHAR 0073
ENCODING 115
SWIDTH 504 0
DWIDTH 14 0
BBX 13 15 1 0
BITMAP
0380
0FE0
1C70
3838
3838
3C00
1F00
0FC0
03E0
00F0
E070
E070
7070
7FE0
3FC0
ENDCHAR
STARTCHAR 0074
ENCODING 116
SWIDTH 288 0
DWIDTH 8 0
BBX 7 20 2 0
BITMAP
04
08
18
38
38
38
FE
3E
70
70
60
60
60
E0
E0
C0
C0
C0
F8
F0
ENDCHAR
STARTCHAR 0075
ENCODING 117
SWIDTH 540 0
DWIDTH 15 0
BBX 13 14 2 0
BITMAP
3018
3018
7038
7038
6030
6030
E030
E070
E070
C060
C0E0
C1E0
FF60
7CE0
ENDCHAR
STARTCHAR 0076
ENCODING 118
SWIDTH 504 0
DWIDTH 14 0
BBX 13 14 2 0
BITMAP
E038
E030
6070
6060
60E0
70C0
71C0
7180
3300
3700
3600
3E00
3C00
3C00
ENDCHAR
STARTCHAR 0077
ENCODING 119
SWIDTH 720 0
DWIDTH 20 0
BBX 19 14 2 0
BITMAP
E0E060
E0E0E0
E1E0C0
61E1C0
63F180
637380
677300
663700
663600
6C3600
6C3C00
783C00
783800
303800
ENDCHAR
STARTCHAR 0078
ENCODING 120
SWIDTH 504 0
DWIDTH 14 0
BBX 14 14 0 0
BITMAP
1C1C
0C38
0E38
0670
07E0
03C0
0380
0380
07C0
0EC0
1CE0
3860
7070
E030
ENDCHAR
STARTCHAR 0079
ENCODING 121
SWIDTH 504 0
DWIDTH 14 0
BBX 15 20 0 -6
BITMAP
1806
180E
181C
1C18
1C38
1C30
0C70
0C60
0CE0
0CC0
0F80
0F80
0700
0700
0600
0E00
1C00
F800
F800
E000
ENDCHAR
STARTCHAR 007A
ENCODING 122
SWIDTH 504 0
DWIDTH 14 0
BBX 13 14 1 0
BITMAP
3FF8
3FF8
0070
00E0
01C0
0380
0700
0E00
1C00
3800
7800
F000
FFE0
FFE0
ENDCHAR
STARTCHAR 007B
ENCODING 123
SWIDTH 324 0
DWIDTH 9 0
BBX 10 26 2 -6
BITMAP
01C0
03C0
0600
0600
0E00
0C00
0C00
0C00
1C00
1800
3800
7000
E000
E000
7000
3000
3000
7000
7000
6000
6000
6000
6000
6000
7800
3800
ENDCHAR
STARTCHAR 007C
ENCODING 124
SWIDTH 252 0
DWIDTH 7 0
BBX 2 26 3 -6
BITMAP
C0
C0
C0
C0
C0
C0
C0
C0
C0
C0
C0
C0
C0
C0
C0
C0
C0
C0
C0
C0
C0
C0
C0
C0
C0
C0
ENDCHAR
STARTCHAR 007D
ENCODING 125
SWIDTH 324 0
DWIDTH 9 0
BBX 10 26 -2 -6
BITMAP
0780
0780
01C0
0180
0180
0180
0180
0380
0380
0300
0380
01C0
00C0
01C0
0300
0600
0600
0E00
0C00
0C00
0C00
1C00
1800
3800
F000
E000
ENDCHAR
STARTCHAR 007E
ENCODING 126
SWIDTH 576 0
DWIDTH 16 0
BBX 14 4 2 8
BITMAP
3C00
FF8C
FFFC
81F8
ENDCHAR
STARTCHAR 00A0
ENCODING 160
SWIDTH 288 0
DWIDTH 8 0
BBX 0 0 0 0
BITMAP
ENDCHAR
STARTCHAR 00A1
ENCODING 161
SWIDTH 324 0
DWIDTH 9 0
BBX 6 19 2 -5
BITMAP
0C
1C
00
00
00
18
18
18
30
30
30
30
70
70
70
E0
E0
E0
E0
ENDCHAR
STARTCHAR 00A2
ENCODING 162
SWIDTH 540 0
DWIDTH 15 0
BBX 13 25 2 -6
BITMAP
0010
0030
0020
0060
0060
03C0
0FE0
1CF0
39B8
7138
6300
6300
E200
E600
E400
EC70
EC60
78E0
7FC0
3F00
3000
3000
6000
6000
4000
ENDCHAR
STARTCHAR 00A3
ENCODING 163
SWIDTH 540 0
DWIDTH 15 0
BBX 16 20 1 0
BITMAP
01F8
03FC
070E
0E07
0C07
0C00
0C00
0C00
0C00
7FC0
7FC0
0C00
0C00
0C00
1C00
1800
3000
7F08
FFF8
C1F8
ENDCHAR
STARTCHAR 00A4
ENCODING 164
SWIDTH 540 0
DWIDTH 15 0
BBX 13 13 2 3
BITMAP
6218
7FF8
3FF0
3870
7030
6038
6038
7030
3070
3CF0
7FF8
E798
4000
ENDCHAR
STARTCHAR 00A5
ENCODING 165
SWIDTH 540 0
DWIDTH 15 0
BBX 17 20 1 0
BITMAP
380380
180700
1C0700
1C0E00
0C1C00
0E1800
063800
067000
076000
03C000
7FFE00
7FFC00
038000
030000
FFFC00
FFFC00
070000
070000
060000
060000
ENDCHAR
STARTCHAR 00A6
ENCODING 166
SWIDTH 252 0
DWIDTH 7 0
BBX 2 26 3 -6
BITMAP
C0
C0
C0
C0
C0
C0
C0
C0
C0
C0
C0
00
00
00
00
C0
C0
C0
C0
C0
C0
C0
C0
C0
C0
C0
ENDCHAR
STARTCHAR 00A7
ENCODING 167
SWIDTH 540 0
DWIDTH 15 0
BBX 14 26 1 -6
BITMAP
03F0
07F8
0E1C
0C0C
0C08
0E00
0600
0F00
1BC0
31E0
70F0
6038
701C
701C
3C1C
1E18
0F38
03E0
01C0
00E0
0060
C060
E060
70E0
3FC0
0F00
ENDCHAR
STARTCHAR 00A8
ENCODING 168
SWIDTH 324 0
DWIDTH 9 0
BBX 8 2 3 17
BITMAP
63
E7
ENDCHAR
STARTCHAR 00A9
ENCODING 169
SWIDTH 720 0
DWIDTH 20 0
BBX 21 20 1 0
BITMAP
01FC00
07FF00
1C0380
1800C0
307060
61FC30
630E30
C60610
C60018
C60018
C60018
C60018
C60610
630630
61FC30
30F060
3800C0
1C0380
07DF00
03FC00
ENDCHAR
STARTCHAR 00AA
ENCODING 170
SWIDTH 360 0
DWIDTH 10 0
BBX 9 10 2 10
BITMAP
1F00
3B80
6180
0180
3F80
7980
C380
C300
7F00
7900
ENDCHAR
STARTCHAR 00AB
ENCODING 171
SWIDTH 540 0
DWIDTH 15 0
BBX 12 12 2 1
BITMAP
0630
0C70
18E0
39C0
7380
E300
6300
6380
7180
3180
30C0
18C0
ENDCHAR
STARTCHAR 00AC
ENCODING 172
SWIDTH 576 0
DWIDTH 16 0
BBX 14 8 2 6
BITMAP
FFFC
FFFC
001C
001C
001C
001C
001C
001C
ENDCHAR
STARTCHAR 00AD
ENCODING 173
SWIDTH 324 0
DWIDTH 9 0
BBX 8 2 1 6
BITMAP
7F
FF
ENDCHAR
STARTCHAR 00AE
ENCODING 174
SWIDTH 720 0
DWIDTH 20 0
BBX 21 20 1 0
BITMAP
01FC00
07FF00
1C0380
1800C0
300060
63F830
630C30
C30C10
C30C18
C3FC18
C3F018
C33018
C31810
630C30
630C30
330660
3800C0
1C0380
07DF00
03FC00
ENDCHAR
STARTCHAR 00AF
ENCODING 175
SWIDTH 540 0
DWIDTH 15 0
BBX 17 2 2 21
BITMAP
FFFF80
FFFF80
ENDCHAR
STARTCHAR 00B0
ENCODING 176
SWIDTH 396 0
DWIDTH 11 0
BBX 7 7 4 13
BITMAP
7C
CE
86
82
82
C6
7C
ENDCHAR
STARTCHAR 00B1
ENCODING 177
SWIDTH 540 0
DWIDTH 15 0
BBX 13 17 2 0
BITMAP
0600
0600
0600
0600
0600
0600
FFF8
FFF8
0600
0600
0600
0600
0600
0000
0000
FFF8
FFF8
ENDCHAR
STARTCHAR 00B2
ENCODING 178
SWIDTH 324 0
DWIDTH 9 0
BBX 9 10 2 10
BITMAP
1F00
3F80
6180
0180
0380
0E00
1C00
7000
7F00
FF00
ENDCHAR
STARTCHAR 00B3
ENCODING 179
SWIDTH 324 0
DWIDTH 9 0
BBX 9 10 2 10
BITMAP
1F00
3B80
2180
0180
0F00
0F00
0380
C380
7700
3E00
ENDCHAR
STARTCHAR 00B4
ENCODING 180
SWIDTH 324 0
DWIDTH 9 0
BBX 5 4 5 16
BITMAP
38
70
60
C0
ENDCHAR
STARTCHAR 00B5
ENCODING 181
SWIDTH 576 0
DWIDTH 16 0
BBX 16 20 0 -6
BITMAP
0E07
0C06
0C06
0C06
1C0E
1C0E
180C
180C
380C
381C
381C
3838
3FF8
77D8
7000
6000
6000
6000
E000
E000
ENDCHAR
STARTCHAR 00B6
ENCODING 182
SWIDTH 540 0
DWIDTH 15 0
BBX 15 26 2 -6
BITMAP
0FFE
3FFE
7F18
FF18
FF18
FF18
FF18
FF18
7F18
7F18
3F18
0718
0718
0718
0718
0718
0718
0718
0718
0718
0718
0718
0718
0718
0718
0718
ENDCHAR
STARTCHAR 00B7
ENCODING 183
SWIDTH 288 0
DWIDTH 8 0
BBX 2 3 3 8
BITMAP
C0
C0
C0
ENDCHAR
STARTCHAR 00B8
ENCODING 184
SWIDTH 324 0
DWIDTH 9 0
BBX 7 6 1 -6
BITMAP
18
1C
0E
06
FE
F8
ENDCHAR
STARTCHAR 00B9
ENCODING 185
SWIDTH 324 0
DWIDTH 9 0
BBX 6 10 4 10
BITMAP
0C
3C
F8
D8
18
18
30
30
30
30
ENDCHAR
STARTCHAR 00BA
ENCODING 186
SWIDTH 360 0
DWIDTH 10 0
BBX 9 10 2 10
BITMAP
1F00
3F80
6180
C180
C180
C180
C180
E300
7F00
3C00
ENDCHAR
STARTCHAR 00BB
ENCODING 187
SWIDTH 540 0
DWIDTH 15 0
BBX 12 12 2 1
BITMAP
30C0
18C0
18C0
1C60
0C60
0C70
0C70
18E0
39C0
7180
E300
C600
ENDCHAR
STARTCHAR 00BC
ENCODING 188
SWIDTH 828 0
DWIDTH 23 0
BBX 20 21 3 -1
BITMAP
060030
1E0060
7C00C0
6C0180
0C0300
0C0600
180E00
181C00
183800
183000
006020
00C060
0180E0
0303E0
060760
0C0E40
181CC0
381FE0
7000C0
6000C0
C00000
ENDCHAR
STARTCHAR 00BD
ENCODING 189
SWIDTH 828 0
DWIDTH 23 0
BBX 21 21 2 -1
BITMAP
030030
0F0060
3E00C0
3601C0
060380
060700
0C0600
0C0C00
0C1800
0C3000
0060E0
00C3F0
018618
038018
070038
0E00F0
0C01C0
180380
300600
600FF0
C00000
ENDCHAR
STARTCHAR 00BE
ENCODING 190
SWIDTH 828 0
DWIDTH 23 0
BBX 22 21 2 -1
BITMAP
1F001C
3B8030
218070
0180E0
0F01C0
0F0180
038300
C38600
770C00
3E1800
003010
006030
00C070
01C1F0
0383B0
030720
060E60
0C0FF0
180060
300060
600000
ENDCHAR
STARTCHAR 00BF
ENCODING 191
SWIDTH 612 0
DWIDTH 17 0
BBX 12 20 2 -6
BITMAP
00E0
00E0
0000
0000
0000
00C0
01C0
0380
0700
0E00
1C00
3800
7000
6000
E030
E070
6070
70E0
3FC0
0F00
ENDCHAR
STARTCHAR 00C0
ENCODING 192
SWIDTH 684 0
DWIDTH 19 0
BBX 17 25 0 0
BITMAP
001C00
000C00
000E00
000600
000000
003C00
003C00
007C00
006C00
00EE00
00CE00
01CE00
018600
038600
070600
070700
0E0700
0FFF00
1FFF00
180300
380300
700380
700380
E00380
E00380
ENDCHAR
STARTCHAR 00C1
ENCODING 193
SWIDTH 684 0
DWIDTH 19 0
BBX 17 25 0 0
BITMAP
000700
000E00
000C00
001800
000000
003C00
003C00
007C00
006C00
00EE00
00CE00
01CE00
018600
038600
070600
070700
0E0700
0FFF00
1FFF00
180300
380300
700380
700380
E00380
E00380
ENDCHAR
STARTCHAR 00C2
ENCODING 194
SWIDTH 684 0
DWIDTH 19 0
BBX 17 25 0 0
BITMAP
001E00
003E00
007600
00E300
000000
003C00
003C00
007C00
006C00
00EE00
00CE00
01CE00
018600
038600
070600
070700
0E0700
0FFF00
1FFF00
180300
380300
700380
700380
E00380
E00380
ENDCHAR
STARTCHAR 00C3
ENCODING 195
SWIDTH 684 0
DWIDTH 19 0
BBX 17 24 0 0
BITMAP
007980
00FF80
00C700
000000
003C00
003C00
007C00
006C00
00EE00
00CE00
01CE00
018600
038600
070600
070700
0E0700
0FFF00
1FFF00
180300
380300
700380
700380
E00380
E00380
ENDCHAR
STARTCHAR 00C4
ENCODING 196
SWIDTH 684 0
DWIDTH 19 0
BBX 17 24 0 0
BITMAP
006300
006300
00E700
000000
003C00
003C00
007C00
006C00
00EE00
00CE00
01CE00
018600
038600
070600
070700
0E0700
0FFF00
1FFF00
180300
380300
700380
700380
E00380
E00380
ENDCHAR
STARTCHAR 00C5
ENCODING 197
SWIDTH 684 0
DWIDTH 19 0
BBX 17 24 0 0
BITMAP
001C00
003200
002200
003200
003C00
003C00
007C00
006C00
00EE00
00CE00
01CE00
018600
038600
070600
070700
0E0700
0FFF00
1FFF00
180300
380300
700380
700380
E00380
E00380
ENDCHAR
STARTCHAR 00C6
ENCODING 198
SWIDTH 1008 0
DWIDTH 28 0
BBX 30 20 -1 0
BITMAP
000FFFFC
001FFFFC
001CE000
0038E000
0070E000
0070E000
00E0C000
00C1C000
01C1C000
0381FFF0
0381FFF0
07018000
0FFF8000
0FFF8000
1C038000
1C030000
38030000
70070000
7007FFE0
E007FFE0
ENDCHAR
STARTCHAR 00C7
ENCODING 199
SWIDTH 720 0
DWIDTH 20 0
BBX 17 26 3 -6
BITMAP
03FC00
0FFE00
1E0F00
3C0380
380380
700180
600000
E00000
E00000
C00000
C00000
C00000
C00000
C00300
E00700
E00600
F00E00
783C00
3FF800
1FE000
060000
070000
038000
018000
3F8000
3E0000
ENDCHAR
STARTCHAR 00C8
ENCODING 200
SWIDTH 684 0
DWIDTH 19 0
BBX 19 25 1 0
BITMAP
001800
001C00
000C00
000600
000000
0FFFE0
0FFFC0
0E0000
0C0000
1C0000
1C0000
1C0000
1C0000
180000
3FFF00
3FFF00
380000
300000
300000
700000
700000
700000
600000
7FFF00
FFFF00
ENDCHAR
STARTCHAR 00C9
ENCODING 201
SWIDTH 684 0
DWIDTH 19 0
BBX 19 25 1 0
BITMAP
001C00
001800
003000
007000
000000
0FFFE0
0FFFC0
0E0000
0C0000
1C0000
1C0000
1C0000
1C0000
180000
3FFF00
3FFF00
380000
300000
300000
700000
700000
700000
600000
7FFF00
FFFF00
ENDCHAR
STARTCHAR 00CA
ENCODING 202
SWIDTH 684 0
DWIDTH 19 0
BBX 19 25 1 0
BITMAP
001C00
003C00
006E00
00C600
000000
0FFFE0
0FFFC0
0E0000
0C0000
1C0000
1C0000
1C0000
1C0000
180000
3FFF00
3FFF00
380000
300000
300000
700000
700000
700000
600000
7FFF00
FFFF00
ENDCHAR
STARTCHAR 00CB
ENCODING 203
SWIDTH 684 0
DWIDTH 19 0
BBX 19 24 1 0
BITMAP
00E700
00E700
00E700
000000
0FFFE0
0FFFC0
0E0000
0C0000
1C0000
1C0000
1C0000
1C0000
180000
3FFF00
3FFF00
380000
300000
300000
700000
700000
700000
600000
7FFF00
FFFF00
ENDCHAR
STARTCHAR 00CC
ENCODING 204
SWIDTH 288 0
DWIDTH 8 0
BBX 7 25 2 0
BITMAP
1C
0C
06
06
00
0C
1C
1C
1C
18
18
38
38
38
30
30
70
70
70
60
60
E0
E0
E0
C0
ENDCHAR
STARTCHAR 00CD
ENCODING 205
SWIDTH 288 0
DWIDTH 8 0
BBX 8 25 2 0
BITMAP
07
07
0E
1C
00
0C
1C
1C
1C
18
18
38
38
38
30
30
70
70
70
60
60
E0
E0
E0
C0
ENDCHAR
STARTCHAR 00CE
ENCODING 206
SWIDTH 288 0
DWIDTH 8 0
BBX 9 25 2 0
BITMAP
0700
0F00
1980
3180
0000
0C00
1C00
1C00
1C00
1800
1800
3800
3800
3800
3000
3000
7000
7000
7000
6000
6000
E000
E000
E000
C000
ENDCHAR
STARTCHAR 00CF
ENCODING 207
SWIDTH 288 0
DWIDTH 8 0
BBX 9 24 2 0
BITMAP
3180
3180
7380
0000
0C00
1C00
1C00
1C00
1800
1800
3800
3800
3800
3000
3000
7000
7000
7000
6000
6000
E000
E000
E000
C000
ENDCHAR
STARTCHAR 00D0
ENCODING 208
SWIDTH 720 0
DWIDTH 20 0
BBX 19 20 1 0
BITMAP
07FC00
0FFF00
0E1F80
0E01C0
0C01C0
0C00E0
1C00E0
1C00E0
1C00E0
7FE0E0
FFE0E0
3800E0
3801C0
3001C0
300380
700380
700F00
707E00
7FFC00
7FF000
ENDCHAR
STARTCHAR 00D1
ENCODING 209
SWIDTH 720 0
DWIDTH 20 0
BBX 20 24 1 0
BITMAP
007980
00FF80
00C700
000000
0E0070
0F0070
0F0070
0F8060
0D8060
1DC0E0
1DC0E0
1CC0C0
18E0C0
1861C0
3871C0
3831C0
383980
303980
701B80
701F80
700F80
600F00
600700
E00700
ENDCHAR
STARTCHAR 00D2
ENCODING 210
SWIDTH 792 0
DWIDTH 22 0
BBX 18 25 3 0
BITMAP
007000
007000
003800
001800
000000
03FC00
0FFE00
1E0F00
3C0380
3801C0
7001C0
E000C0
E000C0
E000C0
C000C0
C000C0
C001C0
C001C0
C001C0
E00380
E00700
700F00
781E00
3FFC00
0FF000
ENDCHAR
STARTCHAR 00D3
ENCODING 211
SWIDTH 792 0
DWIDTH 22 0
BBX 18 25 3 0
BITMAP
003800
003000
007000
00E000
000000
03FC00
0FFE00
1E0F00
3C0380
3801C0
7001C0
E000C0
E000C0
E000C0
C000C0
C000C0
C001C0
C001C0
C001C0
E00380
E00700
700F00
781E00
3FFC00
0FF000
ENDCHAR
STARTCHAR 00D4
ENCODING 212
SWIDTH 792 0
DWIDTH 22 0
BBX 18 25 3 0
BITMAP
007000
00F800
01D800
038C00
000000
03FC00
0FFE00
1E0F00
3C0380
3801C0
7001C0
E000C0
E000C0
E000C0
C000C0
C000C0
C001C0
C001C0
C001C0
E00380
E00700
700F00
781E00
3FFC00
0FF000
ENDCHAR
STARTCHAR 00D5
ENCODING 213
SWIDTH 792 0
DWIDTH 22 0
BBX 18 24 3 0
BITMAP
01E600
03FC00
033C00
000000
03FC00
0FFE00
1E0F00
3C0380
3801C0
7001C0
E000C0
E000C0
E000C0
C000C0
C000C0
C001C0
C001C0
C001C0
E00380
E00700
700F00
781E00
3FFC00
0FF000
ENDCHAR
STARTCHAR 00D6
ENCODING 214
SWIDTH 792 0
DWIDTH 22 0
BBX 18 24 3 0
BITMAP
018C00
018C00
039C00
000000
03FC00
0FFE00
1E0F00
3C0380
3801C0
7001C0
E000C0
E000C0
E000C0
C000C0
C000C0
C001C0
C001C0
C001C0
E00380
E00700
700F00
781E00
3FFC00
0FF000
ENDCHAR
STARTCHAR 00D7
ENCODING 215
SWIDTH 576 0
DWIDTH 16 0
BBX 11 12 4 4
BITMAP
0040
C0E0
E1E0
73C0
3F80
1F00
1E00
3F00
7B80
F1C0
E0E0
4040
ENDCHAR
STARTCHAR 00D8
ENCODING 216
SWIDTH 792 0
DWIDTH 22 0
BBX 18 22 3 -1
BITMAP
000040
03FCC0
0FFF80
1F0F00
3C0780
3807C0
700DC0
E018C0
E030C0
E060C0
C0E0C0
C0C0C0
C181C0
C301C0
C601C0
EC0380
FC0780
780F00
781E00
7FFC00
CFF000
800000
ENDCHAR
STARTCHAR 00D9
ENCODING 217
SWIDTH 720 0
DWIDTH 20 0
BBX 18 25 3 0
BITMAP
00E000
007000
003000
003000
000000
3801C0
3801C0
380180
300180
300380
700380
700380
700300
600300
600700
E00700
E00700
E00600
C00E00
C00E00
C00C00
E01C00
F07800
7FF000
1FE000
ENDCHAR
STARTCHAR 00DA
ENCODING 218
SWIDTH 720 0
DWIDTH 20 0
BBX 18 25 3 0
BITMAP
003800
003000
006000
00C000
000000
3801C0
3801C0
380180
300180
300380
700380
700380
700300
600300
600700
E00700
E00700
E00600
C00E00
C00E00
C00C00
E01C00
F07800
7FF000
1FE000
ENDCHAR
STARTCHAR 00DB
ENCODING 219
SWIDTH 720 0
DWIDTH 20 0
BBX 18 25 3 0
BITMAP
007800
00F800
01DC00
018C00
000000
3801C0
3801C0
380180
300180
300380
700380
700380
700300
600300
600700
E00700
E00700
E00600
C00E00
C00E00
C00C00
E01C00
F07800
7FF000
1FE000
ENDCHAR
STARTCHAR 00DC
ENCODING 220
SWIDTH 720 0
DWIDTH 20 0
BBX 18 24 3 0
BITMAP
01CE00
018C00
018C00
000000
3801C0
3801C0
380180
300180
300380
700380
700380
700300
600300
600700
E00700
E00700
E00600
C00E00
C00E00
C00C00
E01C00
F07800
7FF000
1FE000
ENDCHAR
STARTCHAR 00DD
ENCODING 221
SWIDTH 684 0
DWIDTH 19 0
BBX 18 25 3 0
BITMAP
003800
007000
00E000
00C000
000000
E001C0
700380
700780
380700
380E00
1C1C00
1C3C00
0E3800
0E7000
07E000
07E000
03C000
038000
038000
038000
030000
070000
070000
070000
070000
ENDCHAR
STARTCHAR 00DE
ENCODING 222
SWIDTH 684 0
DWIDTH 19 0
BBX 18 20 1 0
BITMAP
0E0000
0E0000
0E0000
0C0000
1FFC00
1FFF00
1C0780
1C0180
1801C0
3801C0
380180
380380
300780
301F00
7FFE00
7FF800
700000
600000
600000
E00000
ENDCHAR
STARTCHAR 00DF
ENCODING 223
SWIDTH 612 0
DWIDTH 17 0
BBX 15 20 1 0
BITMAP
01F8
07FC
0E0C
0C0C
1C1C
1C18
1838
1870
3860
38E0
30E0
3070
3038
701C
700E
600E
620E
671C
E3FC
E1F0
ENDCHAR
STARTCHAR 00E0
ENCODING 224
SWIDTH 540 0
DWIDTH 15 0
BBX 14 20 1 0
BITMAP
01C0
00C0
00E0
0060
0000
01C0
0FF0
1C38
381C
301C
001C
01F8
3FF8
7C38
6038
E030
E070
E0F0
7FB0
3F30
ENDCHAR
STARTCHAR 00E1
ENCODING 225
SWIDTH 540 0
DWIDTH 15 0
BBX 14 20 1 0
BITMAP
0070
00E0
01C0
0180
0000
01C0
0FF0
1C38
381C
301C
001C
01F8
3FF8
7C38
6038
E030
E070
E0F0
7FB0
3F30
ENDCHAR
STARTCHAR 00E2
ENCODING 226
SWIDTH 540 0
DWIDTH 15 0
BBX 14 20 1 0
BITMAP
00E0
01F0
03B0
0718
0000
01C0
0FF0
1C38
381C
301C
001C
01F8
3FF8
7C38
6038
E030
E070
E0F0
7FB0
3F30
ENDCHAR
STARTCHAR 00E3
ENCODING 227
SWIDTH 540 0
DWIDTH 15 0
BBX 14 20 1 0
BITMAP
018C
03FC
06F8
0000
0000
01C0
0FF0
1C38
381C
301C
001C
01F8
3FF8
7C38
6038
E030
E070
E0F0
7FB0
3F30
ENDCHAR
STARTCHAR 00E4
ENCODING 228
SWIDTH 540 0
DWIDTH 15 0
BBX 14 19 1 0
BITMAP
0738
0738
0000
0000
01C0
0FF0
1C38
381C
301C
001C
01F8
3FF8
7C38
6038
E030
E070
E0F0
7FB0
3F30
ENDCHAR
STARTCHAR 00E5
ENCODING 229
SWIDTH 540 0
DWIDTH 15 0
BBX 14 20 1 0
BITMAP
01E0
0320
0220
01E0
0080
01C0
0FF0
1C38
381C
301C
001C
01F8
3FF8
7C38
6038
E030
E070
E0F0
7FB0
3F30
ENDCHAR
STARTCHAR 00E6
ENCODING 230
SWIDTH 900 0
DWIDTH 25 0
BBX 23 15 1 0
BITMAP
0380E0
0FF3F8
1C7F1C
383E0E
301C06
001806
01F806
3FFFFE
7C3000
E03000
E0700C
E0781C
E0F838
7F9FF0
3F0FE0
ENDCHAR
STARTCHAR 00E7
ENCODING 231
SWIDTH 504 0
DWIDTH 14 0
BBX 12 21 2 -6
BITMAP
0380
1FE0
3CF0
7070
6030
E000
E000
C000
C000
C000
C060
C0E0
E1C0
7F80
3F00
1800
1E00
0600
0600
7E00
2000
ENDCHAR
STARTCHAR 00E8
ENCODING 232
SWIDTH 540 0
DWIDTH 15 0
BBX 14 20 1 0
BITMAP
01C0
00C0
00E0
0060
0000
0180
0FF0
1E38
3818
301C
701C
601C
7FFC
E000
E000
6038
6030
7070
3FE0
1F80
ENDCHAR
STARTCHAR 00E9
ENCODING 233
SWIDTH 540 0
DWIDTH 15 0
BBX 14 20 1 0
BITMAP
0070
00E0
00C0
0180
0000
0180
0FF0
1E38
3818
301C
701C
601C
7FFC
E000
E000
6038
6030
7070
3FE0
1F80
ENDCHAR
STARTCHAR 00EA
ENCODING 234
SWIDTH 540 0
DWIDTH 15 0
BBX 14 20 1 0
BITMAP
00F0
01F0
03B0
0718
0000
0180
0FF0
1E38
3818
301C
701C
601C
7FFC
E000
E000
6038
6030
7070
3FE0
1F80
ENDCHAR
STARTCHAR 00EB
ENCODING 235
SWIDTH 540 0
DWIDTH 15 0
BBX 14 19 1 0
BITMAP
0738
0738
0000
0000
0180
0FF0
1E38
3818
301C
701C
601C
7FFC
E000
E000
6038
6030
7070
3FE0
1F80
ENDCHAR
STARTCHAR 00EC
ENCODING 236
SWIDTH 288 0
DWIDTH 8 0
BBX 6 20 2 0
BITMAP
38
1C
0C
0C
00
00
18
38
38
30
30
70
70
70
60
60
E0
E0
C0
C0
ENDCHAR
STARTCHAR 00ED
ENCODING 237
SWIDTH 288 0
DWIDTH 8 0
BBX 7 20 2 0
BITMAP
0E
0C
18
30
00
00
18
38
38
30
30
70
70
70
60
60
E0
E0
C0
C0
ENDCHAR
STARTCHAR 00EE
ENCODING 238
SWIDTH 288 0
DWIDTH 8 0
BBX 8 20 2 0
BITMAP
1E
3E
76
E3
00
00
18
38
38
30
30
70
70
70
60
60
E0
E0
C0
C0
ENDCHAR
STARTCHAR 00EF
ENCODING 239
SWIDTH 288 0
DWIDTH 8 0
BBX 8 19 2 0
BITMAP
63
63
00
00
00
18
38
38
30
30
70
70
70
60
60
E0
E0
C0
C0
ENDCHAR
STARTCHAR 00F0
ENCODING 240
SWIDTH 540 0
DWIDTH 15 0
BBX 14 20 1 0
BITMAP
00C4
007C
00F0
03F8
0018
0018
0FFC
1FFC
383C
301C
701C
600C
601C
E01C
E01C
E018
6038
7070
3FE0
1FC0
ENDCHAR
STARTCHAR 00F1
ENCODING 241
SWIDTH 540 0
DWIDTH 15 0
BBX 14 20 1 0
BITMAP
010C
07FC
06F8
0000
0000
00E0
19F8
1F38
3C1C
381C
3818
3018
7018
7038
7038
6030
6030
E030
E070
C070
ENDCHAR
STARTCHAR 00F2
ENCODING 242
SWIDTH 540 0
DWIDTH 15 0
BBX 14 20 1 0
BITMAP
01C0
00C0
00E0
0060
0000
03C0
0FF0
1E38
381C
301C
700C
600C
601C
E01C
E01C
E038
6038
7070
3FE0
1FC0
ENDCHAR
STARTCHAR 00F3
ENCODING 243
SWIDTH 540 0
DWIDTH 15 0
BBX 14 20 1 0
BITMAP
0070
00E0
01C0
0380
0000
03C0
0FF0
1E38
381C
301C
700C
600C
601C
E01C
E01C
E038
6038
7070
3FE0
1FC0
ENDCHAR
STARTCHAR 00F4
ENCODING 244
SWIDTH 540 0
DWIDTH 15 0
BBX 14 20 1 0
BITMAP
00E0
01F0
0330
0630
0000
03C0
0FF0
1E38
381C
301C
700C
600C
601C
E01C
E01C
E038
6038
7070
3FE0
1FC0
ENDCHAR
STARTCHAR 00F5
ENCODING 245
SWIDTH 540 0
DWIDTH 15 0
BBX 14 20 1 0
BITMAP
0308
07F8
06F8
0000
0000
03C0
0FF0
1E38
381C
301C
700C
600C
601C
E01C
E01C
E038
6038
7070
3FE0
1FC0
ENDCHAR
STARTCHAR 00F6
ENCODING 246
SWIDTH 540 0
DWIDTH 15 0
BBX 14 19 1 0
BITMAP
0738
0738
0000
0000
03C0
0FF0
1E38
381C
301C
700C
600C
601C
E01C
E01C
E038
6038
7070
3FE0
1FC0
ENDCHAR
STARTCHAR 00F7
ENCODING 247
SWIDTH 540 0
DWIDTH 15 0
BBX 13 11 2 4
BITMAP
0700
0700
0700
0000
FFF8
FFF8
0000
0000
0700
0700
0700
ENDCHAR
STARTCHAR 00F8
ENCODING 248
SWIDTH 612 0
DWIDTH 17 0
BBX 14 16 2 0
BITMAP
03CC
0FF8
1C78
3838
707C
70DC
619C
E31C
E31C
E618
EC38
7838
7070
3FE0
7F80
C000
ENDCHAR
STARTCHAR 00F9
ENCODING 249
SWIDTH 540 0
DWIDTH 15 0
BBX 13 20 2 0
BITMAP
0380
0180
01C0
00C0
0000
0000
3018
3018
7038
7038
6030
6030
E030
E070
E070
C060
C0E0
C1E0
FF60
7CE0
ENDCHAR
STARTCHAR 00FA
ENCODING 250
SWIDTH 540 0
DWIDTH 15 0
BBX 13 20 2 0
BITMAP
00E0
00C0
0180
0300
0000
0000
3018
3018
7038
7038
6030
6030
E030
E070
E070
C060
C0E0
C1E0
FF60
7CE0
ENDCHAR
STARTCHAR 00FB
ENCODING 251
SWIDTH 540 0
DWIDTH 15 0
BBX 13 20 2 0
BITMAP
01C0
0360
0760
0E70
0000
0000
3018
3018
7038
7038
6030
6030
E030
E070
E070
C060
C0E0
C1E0
FF60
7CE0
ENDCHAR
STARTCHAR 00FC
ENCODING 252
SWIDTH 540 0
DWIDTH 15 0
BBX 13 19 2 0
BITMAP
0630
0E70
0000
0000
0000
3018
3018
7038
7038
6030
6030
E030
E070
E070
C060
C0E0
C1E0
FF60
7CE0
ENDCHAR
STARTCHAR 00FD
ENCODING 253
SWIDTH 504 0
DWIDTH 14 0
BBX 15 26 0 -6
BITMAP
0070
0060
00C0
0180
0000
0000
1806
180E
181C
1C18
1C38
1C30
0C70
0C60
0CE0
0CC0
0F80
0F80
0700
0700
0600
0E00
1C00
F800
F800
E000
ENDCHAR
STARTCHAR 00FE
ENCODING 254
SWIDTH 540 0
DWIDTH 15 0
BBX 15 26 0 -6
BITMAP
0600
0600
0600
0E00
0E00
0C60
0DF8
1F3C
1E0E
1C0E
180E
180E
380E
380E
380C
381C
3818
7C38
7FF0
67E0
6000
6000
E000
E000
C000
C000
ENDCHAR
STARTCHAR 00FF
ENCODING 255
SWIDTH 504 0
DWIDTH 14 0
BBX 15 25 0 -6
BITMAP
0318
0318
0000
0000
0000
1806
180E
181C
1C18
1C38
1C30
0C70
0C60
0CE0
0CC0
0F80
0F80
0700
0700
0600
0E00
1C00
F800
F800
E000
ENDCHAR
STARTCHAR 0100
ENCODING 256
SWIDTH 684 0
DWIDTH 19 0
BBX 17 23 0 0
BITMAP
007F80
000000
000000
003C00
003C00
007C00
006C00
00EE00
00CE00
01CE00
018600
038600
070600
070700
0E0700
0FFF00
1FFF00
180300
380300
700380
700380
E00380
E00380
ENDCHAR
STARTCHAR 0101
ENCODING 257
SWIDTH 540 0
DWIDTH 15 0
BBX 14 19 1 0
BITMAP
07FC
07F8
0000
0000
01C0
0FF0
1C38
381C
301C
001C
01F8
3FF8
7C38
6038
E030
E070
E0F0
7FB0
3F30
ENDCHAR
STARTCHAR 0102
ENCODING 258
SWIDTH 684 0
DWIDTH 19 0
BBX 17 25 0 0
BITMAP
004180
006100
007F00
001C00
000000
003C00
003C00
007C00
006C00
00EE00
00CE00
01CE00
018600
038600
070600
070700
0E0700
0FFF00
1FFF00
180300
380300
700380
700380
E00380
E00380
ENDCHAR
STARTCHAR 0103
ENCODING 259
SWIDTH 540 0
DWIDTH 15 0
BBX 14 19 1 0
BITMAP
0618
03B0
01E0
0000
01C0
0FF0
1C38
381C
301C
001C
01F8
3FF8
7C38
6038
E030
E070
E0F0
7FB0
3F30
ENDCHAR
STARTCHAR 0104
ENCODING 260
SWIDTH 684 0
DWIDTH 19 0
BBX 19 26 0 -6
BITMAP
003C00
003C00
007C00
006C00
00EE00
00CE00
01CE00
018600
038600
070600
070700
0E0700
0FFF00
1FFF00
180300
380300
700380
700380
E00380
E00380
000300
000300
000200
000300
0003E0
0001C0
ENDCHAR
STARTCHAR 0105
ENCODING 261
SWIDTH 540 0
DWIDTH 15 0
BBX 15 21 1 -6
BITMAP
01C0
0FF0
1C38
381C
301C
001C
01F8
3FF8
7C38
6038
E030
E070
E0F0
7FB0
3F30
0020
0060
0060
0062
007E
0038
ENDCHAR
STARTCHAR 0106
ENCODING 262
SWIDTH 720 0
DWIDTH 20 0
BBX 17 25 3 0
BITMAP
001C00
003800
007000
006000
000000
03FC00
0FFE00
1E0F00
3C0380
380380
700180
600000
E00000
E00000
C00000
C00000
C00000
C00000
C00300
E00700
E00600
F00E00
783C00
3FF800
1FE000
ENDCHAR
STARTCHAR 0107
ENCODING 263
SWIDTH 504 0
DWIDTH 14 0
BBX 12 20 2 0
BITMAP
00E0
00C0
0180
0300
0000
0380
1FE0
3CF0
7070
6030
E000
E000
C000
C000
C000
C060
C0E0
E1C0
7F80
3F00
ENDCHAR
STARTCHAR 0108
ENCODING 264
SWIDTH 720 0
DWIDTH 20 0
BBX 17 25 3 0
BITMAP
003800
007800
00CC00
018C00
000000
03FC00
0FFE00
1E0F00
3C0380
380380
700180
600000
E00000
E00000
C00000
C00000
C00000
C00000
C00300
E00700
E00600
F00E00
783C00
3FF800
1FE000
ENDCHAR
STARTCHAR 0109
ENCODING 265
SWIDTH 504 0
DWIDTH 14 0
BBX 12 20 2 0
BITMAP
01C0
03C0
0660
0C60
0000
0380
1FE0
3CF0
7070
6030
E000
E000
C000
C000
C000
C060
C0E0
E1C0
7F80
3F00
ENDCHAR
STARTCHAR 010A
ENCODING 266
SWIDTH 720 0
DWIDTH 20 0
BBX 17 24 3 0
BITMAP
003800
007000
007000
000000
03FC00
0FFE00
1E0F00
3C0380
380380
700180
600000
E00000
E00000
C00000
C00000
C00000
C00000
C00300
E00700
E00600
F00E00
783C00
3FF800
1FE000
ENDCHAR
STARTCHAR 010B
ENCODING 267
SWIDTH 504 0
DWIDTH 14 0
BBX 12 19 2 0
BITMAP
0380
0380
0380
0000
0380
1FE0
3CF0
7070
6030
E000
E000
C000
C000
C000
C060
C0E0
E1C0
7F80
3F00
ENDCHAR
STARTCHAR 010C
ENCODING 268
SWIDTH 720 0
DWIDTH 20 0
BBX 17 25 3 0
BITMAP
018E00
00DC00
00F800
00F000
000000
03FC00
0FFE00
1E0F00
3C0380
380380
700180
600000
E00000
E00000
C00000
C00000
C00000
C00000
C00300
E00700
E00600
F00E00
783C00
3FF800
1FE000
ENDCHAR
STARTCHAR 010D
ENCODING 269
SWIDTH 504 0
DWIDTH 14 0
BBX 12 20 2 0
BITMAP
0E70
06E0
06C0
0380
0000
0380
1FE0
3CF0
7070
6030
E000
E000
C000
C000
C000
C060
C0E0
E1C0
7F80
3F00
ENDCHAR
STARTCHAR 010E
ENCODING 270
SWIDTH 720 0
DWIDTH 20 0
BBX 19 25 1 0
BITMAP
018E00
00DC00
00F800
007000
000000
0FFC00
0FFF00
0E1F80
0C03C0
1C01C0
1C00C0
1C00E0
1C00E0
1800E0
3800E0
3800E0
3800C0
3001C0
3001C0
700380
700780
700F00
607E00
7FFC00
FFE000
ENDCHAR
STARTCHAR 010F
ENCODING 271
SWIDTH 612 0
DWIDTH 17 0
BBX 19 20 2 0
BITMAP
000EE0
000CC0
000CC0
000C40
001C80
071D80
1FD800
3CD800
707800
603800
E03800
C03000
C03000
C03000
C07000
C06000
C0E000
E1E000
7F6000
3EE000
ENDCHAR
STARTCHAR 0110
ENCODING 272
SWIDTH 720 0
DWIDTH 20 0
BBX 19 20 1 0
BITMAP
07FC00
0FFF00
0E1F80
0E01C0
0C01C0
0C00E0
1C00E0
1C00E0
1C00E0
7FE0E0
FFE0E0
3800E0
3801C0
3001C0
300380
700380
700F00
707E00
7FFC00
7FF000
ENDCHAR
STARTCHAR 0111
ENCODING 273
SWIDTH 540 0
DWIDTH 15 0
BBX 17 20 1 0
BITMAP
000700
000600
00FF80
000E00
000E00
038E00
0FEC00
1E6C00
383C00
301C00
701800
601800
601800
601800
E03800
603000
607000
70F000
3FF000
1F7000
ENDCHAR
STARTCHAR 0112
ENCODING 274
SWIDTH 684 0
DWIDTH 19 0
BBX 19 23 1 0
BITMAP
00FF00
000000
000000
0FFFE0
0FFFC0
0E0000
0C0000
1C0000
1C0000
1C0000
1C0000
180000
3FFF00
3FFF00
380000
300000
300000
700000
700000
700000
600000
7FFF00
FFFF00
ENDCHAR
STARTCHAR 0113
ENCODING 275
SWIDTH 540 0
DWIDTH 15 0
BBX 14 19 1 0
BITMAP
07F8
07F8
0000
0000
0180
0FF0
1E38
3818
301C
701C
601C
7FFC
E000
E000
6038
6030
7070
3FE0
1F80
ENDCHAR
STARTCHAR 0114
ENCODING 276
SWIDTH 684 0
DWIDTH 19 0
BBX 19 25 1 0
BITMAP
00C300
00C300
007E00
003800
000000
0FFFE0
0FFFC0
0E0000
0C0000
1C0000
1C0000
1C0000
1C0000
180000
3FFF00
3FFF00
380000
300000
300000
700000
700000
700000
600000
7FFF00
FFFF00
ENDCHAR
STARTCHAR 0115
ENCODING 277
SWIDTH 540 0
DWIDTH 15 0
BBX 14 19 1 0
BITMAP
0618
0330
03E0
0000
0180
0FF0
1E38
3818
301C
701C
601C
7FFC
E000
E000
6038
6030
7070
3FE0
1F80
ENDCHAR
STARTCHAR 0116
ENCODING 278
SWIDTH 684 0
DWIDTH 19 0
BBX 19 24 1 0
BITMAP
001C00
001C00
003800
000000
0FFFE0
0FFFC0
0E0000
0C0000
1C0000
1C0000
1C0000
1C0000
180000
3FFF00
3FFF00
380000
300000
300000
700000
700000
700000
600000
7FFF00
FFFF00
ENDCHAR
STARTCHAR 0117
ENCODING 279
SWIDTH 540 0
DWIDTH 15 0
BBX 14 19 1 0
BITMAP
00E0
00E0
00E0
0000
0180
0FF0
1E38
3818
301C
701C
601C
7FFC
E000
E000
6038
6030
7070
3FE0
1F80
ENDCHAR
STARTCHAR 0118
ENCODING 280
SWIDTH 684 0
DWIDTH 19 0
BBX 19 26 1 -6
BITMAP
0FFFE0
0FFFC0
0E0000
0C0000
1C0000
1C0000
1C0000
1C0000
180000
3FFF00
3FFF00
380000
300000
300000
700000
700000
700000
600000
7FFF00
FFFF00
003000
002000
002000
003000
003E00
001C00
ENDCHAR
STARTCHAR 0119
ENCODING 281
SWIDTH 540 0
DWIDTH 15 0
BBX 14 21 1 -6
BITMAP
0180
0FF0
1E38
3818
301C
701C
601C
7FFC
E000
E000
6038
6030
7070
3FE0
1F80
0600
0400
0400
0600
07C0
0380
ENDCHAR
STARTCHAR 011A
ENCODING 282
SWIDTH 684 0
DWIDTH 19 0
BBX 19 25 1 0
BITMAP
00C700
006E00
007C00
007800
000000
0FFFE0
0FFFC0
0E0000
0C0000
1C0000
1C0000
1C0000
1C0000
180000
3FFF00
3FFF00
380000
300000
300000
700000
700000
700000
600000
7FFF00
FFFF00
ENDCHAR
STARTCHAR 011B
ENCODING 283
SWIDTH 540 0
DWIDTH 15 0
BBX 14 20 1 0
BITMAP
0738
0370
0360
01C0
0000
0180
0FF0
1E38
3818
301C
701C
601C
7FFC
E000
E000
6038
6030
7070
3FE0
1F80
ENDCHAR
STARTCHAR 011C
ENCODING 284
SWIDTH 792 0
DWIDTH 22 0
BBX 18 25 3 0
BITMAP
003C00
003C00
006E00
00C600
000000
01FC00
07FF00
0F0780
1C03C0
3801C0
7001C0
700000
E00000
E00000
E00000
C07F80
C07F80
C00380
E00380
E00380
E00300
700700
781F00
3FFE00
0FF800
ENDCHAR
STARTCHAR 011D
ENCODING 285
SWIDTH 540 0
DWIDTH 15 0
BBX 14 26 1 -6
BITMAP
00E0
01F0
03B0
0718
0000
0380
0FEC
1E7C
383C
701C
701C
6018
E018
E018
E038
E038
6070
70F0
3FF0
1F70
0070
C060
C0E0
E1C0
7F80
1E00
ENDCHAR
STARTCHAR 011E
ENCODING 286
SWIDTH 792 0
DWIDTH 22 0
BBX 18 25 3 0
BITMAP
008300
00C200
00FE00
003800
000000
01FC00
07FF00
0F0780
1C03C0
3801C0
7001C0
700000
E00000
E00000
E00000
C07F80
C07F80
C00380
E00380
E00380
E00300
700700
781F00
3FFE00
0FF800
ENDCHAR
STARTCHAR 011F
ENCODING 287
SWIDTH 540 0
DWIDTH 15 0
BBX 14 25 1 -6
BITMAP
0208
03B8
01F0
0000
0380
0FEC
1E7C
383C
701C
701C
6018
E018
E018
E038
E038
6070
70F0
3FF0
1F70
0070
C060
C0E0
E1C0
7F80
1E00
ENDCHAR
STARTCHAR 0120
ENCODING 288
SWIDTH 792 0
DWIDTH 22 0
BBX 18 24 3 0
BITMAP
003800
003800
003800
000000
01FC00
07FF00
0F0780
1C03C0
3801C0
7001C0
700000
E00000
E00000
E00000
C07F80
C07F80
C00380
E00380
E00380
E00300
700700
781F00
3FFE00
0FF800
ENDCHAR
STARTCHAR 0121
ENCODING 289
SWIDTH 540 0
DWIDTH 15 0
BBX 14 25 1 -6
BITMAP
00E0
00E0
00E0
0000
0380
0FEC
1E7C
383C
701C
701C
6018
E018
E018
E038
E038
6070
70F0
3FF0
1F70
0070
C060
C0E0
E1C0
7F80
1E00
ENDCHAR
STARTCHAR 0122
ENCODING 290
SWIDTH 792 0
DWIDTH 22 0
BBX 18 26 3 -6
BITMAP
01FC00
07FF00
0F0780
1C03C0
3801C0
7001C0
700000
E00000
E00000
E00000
C07F80
C07F80
C00380
E00380
E00380
E00300
700700
781F00
3FFE00
0FF800
060000
078000
018000
01C000
1F8000
1E0000
ENDCHAR
STARTCHAR 0123
ENCODING 291
SWIDTH 540 0
DWIDTH 15 0
BBX 14 27 1 -6
BITMAP
0060
00C0
0080
01C0
01C0
0000
0380
0FEC
1C7C
383C
701C
701C
6018
E018
E018
E038
E038
6070
70F0
3FF0
1F70
0070
C060
C0E0
F3C0
7F80
1E00
ENDCHAR
STARTCHAR 0124
ENCODING 292
SWIDTH 720 0
DWIDTH 20 0
BBX 20 25 1 0
BITMAP
000E00
001E00
003300
006300
000000
0E0070
0E0070
0C0060
0C0060
1C00E0
1C00E0
1C00E0
1800C0
1FFFC0
3FFFC0
3FFFC0
3801C0
300180
300380
700380
700380
700380
600300
E00700
E00700
ENDCHAR
STARTCHAR 0125
ENCODING 293
SWIDTH 540 0
DWIDTH 15 0
BBX 14 25 1 0
BITMAP
0070
00F0
0198
0318
0000
0C00
0C00
0C00
1C00
1C00
1860
1BF8
1F3C
3C1C
381C
3818
3018
7018
7038
7038
6030
6030
E030
E070
C070
ENDCHAR
STARTCHAR 0126
ENCODING 294
SWIDTH 720 0
DWIDTH 20 0
BBX 21 20 1 0
BITMAP
0E0070
0E0070
0C0060
3FFFF8
3FFFF8
1C00E0
1C00E0
1800C0
1FFFC0
3FFFC0
3FFFC0
3801C0
300180
300380
700380
700380
700380
600300
E00700
E00700
ENDCHAR
STARTCHAR 0127
ENCODING 295
SWIDTH 540 0
DWIDTH 15 0
BBX 14 20 1 0
BITMAP
0C00
0C00
3FE0
3FC0
1C00
1870
19F8
1F3C
3C1C
381C
3818
3018
7018
7038
7038
6030
6030
E030
E070
C070
ENDCHAR
STARTCHAR 0128
ENCODING 296
SWIDTH 288 0
DWIDTH 8 0
BBX 10 24 2 0
BITMAP
3CC0
7FC0
6380
0000
0C00
1C00
1C00
1C00
1800
1800
3800
3800
3800
3000
3000
7000
7000
7000
6000
6000
E000
E000
E000
C000
ENDCHAR
STARTCHAR 0129
ENCODING 297
SWIDTH 288 0
DWIDTH 8 0
BBX 9 20 1 0
BITMAP
1080
7F80
6F80
0000
0000
0000
1800
3800
3800
3000
3000
3000
7000
7000
6000
6000
6000
E000
E000
C000
ENDCHAR
STARTCHAR 012A
ENCODING 298
SWIDTH 288 0
DWIDTH 8 0
BBX 10 23 2 0
BITMAP
7FC0
0000
0000
0C00
1C00
1C00
1C00
1800
1800
3800
3800
3800
3000
3000
7000
7000
7000
6000
6000
E000
E000
E000
C000
ENDCHAR
STARTCHAR 012B
ENCODING 299
SWIDTH 288 0
DWIDTH 8 0
BBX 9 19 1 0
BITMAP
7F80
7F80
0000
0000
0000
1800
3800
3800
3000
3000
3000
7000
7000
6000
6000
6000
E000
E000
C000
ENDCHAR
STARTCHAR 012C
ENCODING 300
SWIDTH 288 0
DWIDTH 8 0
BBX 10 25 2 0
BITMAP
20C0
30C0
1F80
0E00
0000
0C00
1C00
1C00
1C00
1800
1800
3800
3800
3800
3000
3000
7000
7000
7000
6000
6000
E000
E000
E000
C000
ENDCHAR
STARTCHAR 012D
ENCODING 301
SWIDTH 288 0
DWIDTH 8 0
BBX 9 19 1 0
BITMAP
6180
7300
3E00
0000
0000
1800
3800
3800
3000
3000
3000
7000
7000
6000
6000
6000
E000
E000
C000
ENDCHAR
STARTCHAR 012E
ENCODING 302
SWIDTH 288 0
DWIDTH 8 0
BBX 7 26 1 -6
BITMAP
06
0E
0E
0E
0C
0C
1C
1C
1C
18
18
38
38
38
30
30
70
70
70
60
C0
C0
C0
C0
F8
70
ENDCHAR
STARTCHAR 012F
ENCODING 303
SWIDTH 216 0
DWIDTH 6 0
BBX 7 26 0 -6
BITMAP
06
06
06
00
00
00
0C
1C
1C
18
18
18
38
38
30
30
30
70
70
60
40
C0
C0
C4
F8
70
ENDCHAR
STARTCHAR 0130
ENCODING 304
SWIDTH 288 0
DWIDTH 8 0
BBX 7 24 2 0
BITMAP
0E
0E
0E
00
0C
1C
1C
1C
18
18
38
38
38
30
30
70
70
70
60
60
E0
E0
E0
C0
ENDCHAR
STARTCHAR 0131
ENCODING 305
SWIDTH 288 0
DWIDTH 8 0
BBX 5 14 2 0
BITMAP
18
38
38
30
30
70
70
70
60
60
E0
E0
C0
C0
ENDCHAR
STARTCHAR 0132
ENCODING 306
SWIDTH 720 0
DWIDTH 20 0
BBX 19 20 2 0
BITMAP
0C0060
1C00E0
1C00E0
1C00E0
1800C0
1800C0
3801C0
3801C0
3801C0
300180
300180
700380
700380
700380
630300
670700
E70700
E38E00
E3FE00
C1FC00
ENDCHAR
STARTCHAR 0133
ENCODING 307
SWIDTH 432 0
DWIDTH 12 0
BBX 13 26 1 -6
BITMAP
0C38
0C30
1C30
0000
0000
0000
1860
3860
38E0
30E0
30E0
30C0
70C0
71C0
61C0
6180
6180
E180
E380
C380
0300
0300
0700
2F00
3E00
3C00
ENDCHAR
STARTCHAR 0134
ENCODING 308
SWIDTH 504 0
DWIDTH 14 0
BBX 16 25 1 0
BITMAP
000E
001E
0033
0063
0000
001C
001C
0018
0018
0038
0038
0038
0030
0070
0070
0070
0070
0060
00E0
E0E0
C0E0
E0C0
E1C0
7F80
3F00
ENDCHAR
STARTCHAR 0135
ENCODING 309
SWIDTH 216 0
DWIDTH 6 0
BBX 12 26 -3 -6
BITMAP
01E0
03E0
0770
0630
0000
0000
0180
0380
0380
0300
0300
0300
0700
0700
0600
0600
0600
0E00
0E00
0C00
0C00
0C00
1C00
B800
F800
E000
ENDCHAR
STARTCHAR 0136
ENCODING 310
SWIDTH 684 0
DWIDTH 19 0
BBX 19 26 1 -6
BITMAP
0E01E0
0E03C0
0E0780
0C0F00
1C1E00
1C3800
1C7000
1CE000
1BE000
3FE000
3F7000
3E7000
383800
303800
701C00
700E00
700E00
600700
600700
E00380
000000
078000
01C000
00C000
1FC000
1F0000
ENDCHAR
STARTCHAR 0137
ENCODING 311
SWIDTH 504 0
DWIDTH 14 0
BBX 14 26 1 -6
BITMAP
0C00
0C00
0C00
1C00
1C00
1800
183C
1870
38E0
39C0
3380
3700
3F80
7980
71C0
61C0
60E0
E0E0
E060
E070
0000
1E00
0700
0700
7E00
7C00
ENDCHAR
STARTCHAR 0138
ENCODING 312
SWIDTH 504 0
DWIDTH 14 0
BBX 14 14 1 0
BITMAP
183C
1870
38E0
39C0
3380
3700
3F80
7980
71C0
61C0
60E0
E0E0
E060
E070
ENDCHAR
STARTCHAR 0139
ENCODING 313
SWIDTH 540 0
DWIDTH 15 0
BBX 13 25 1 0
BITMAP
00E0
00C0
0180
0300
0000
0E00
0E00
0C00
0C00
1C00
1C00
1C00
1800
1800
3800
3800
3800
3000
7000
7000
7000
6000
6000
FFF8
FFF8
ENDCHAR
STARTCHAR 013A
ENCODING 314
SWIDTH 216 0
DWIDTH 6 0
BBX 9 25 1 0
BITMAP
0380
0700
0E00
1C00
0000
0C00
0C00
1C00
1C00
1800
1800
1800
3800
3800
3000
3000
7000
7000
7000
6000
6000
E000
E000
E000
C000
ENDCHAR
STARTCHAR 013B
ENCODING 315
SWIDTH 540 0
DWIDTH 15 0
BBX 13 26 1 -6
BITMAP
0E00
0E00
0C00
0C00
1C00
1C00
1C00
1800
1800
3800
3800
3800
3000
7000
7000
7000
6000
6000
FFF8
FFF8
0000
0F00
0380
0380
3F00
3C00
ENDCHAR
STARTCHAR 013C
ENCODING 316
SWIDTH 216 0
DWIDTH 6 0
BBX 9 26 -2 -6
BITMAP
0180
0180
0380
0380
0300
0300
0300
0700
0700
0600
0600
0E00
0E00
0E00
0C00
0C00
1C00
1C00
1C00
1800
0000
3C00
0E00
0E00
FE00
F800
ENDCHAR
STARTCHAR 013D
ENCODING 317
SWIDTH 540 0
DWIDTH 15 0
BBX 14 20 1 0
BITMAP
0E0C
0E1C
0C1C
0C04
1C08
1C18
1C30
1800
1800
3800
3800
3800
3000
7000
7000
7000
6000
6000
FFF8
FFF8
ENDCHAR
STARTCHAR 013E
ENCODING 318
SWIDTH 288 0
DWIDTH 8 0
BBX 10 20 1 0
BITMAP
0DC0
0DC0
1DC0
1C80
1880
1B00
1800
3800
3800
3000
3000
3000
7000
7000
6000
6000
E000
E000
E000
C000
ENDCHAR
STARTCHAR 013F
ENCODING 319
SWIDTH 540 0
DWIDTH 15 0
BBX 13 20 1 0
BITMAP
0E00
0E00
0C00
0C00
1C00
1C00
1C00
1800
1800
3830
3870
3800
3000
7000
7000
7000
6000
6000
FFF8
FFF8
ENDCHAR
STARTCHAR 0140
ENCODING 320
SWIDTH 396 0
DWIDTH 11 0
BBX 9 20 1 0
BITMAP
0C00
0C00
1C00
1C00
1800
1800
1800
3800
3800
3380
3380
7000
7000
7000
6000
6000
E000
E000
E000
C000
ENDCHAR
STARTCHAR 0141
ENCODING 321
SWIDTH 540 0
DWIDTH 15 0
BBX 14 20 0 0
BITMAP
0700
0700
0600
0600
0E00
0E10
0E60
0DE0
0F80
1E00
3C00
7C00
D800
1800
3800
3800
3800
3000
7FFC
7FFC
ENDCHAR
STARTCHAR 0142
ENCODING 322
SWIDTH 216 0
DWIDTH 6 0
BBX 7 20 1 0
BITMAP
0C
0C
1C
1C
18
18
18
3A
3E
38
F0
F0
70
70
60
60
60
E0
E0
C0
ENDCHAR
STARTCHAR 0143
ENCODING 323
SWIDTH 720 0
DWIDTH 20 0
BBX 20 25 1 0
BITMAP
000E00
001C00
001800
003000
000000
0E0070
0F0070
0F0070
0F8060
0D8060
1DC0E0
1DC0E0
1CC0C0
18E0C0
1861C0
3871C0
3831C0
383980
303980
701B80
701F80
700F80
600F00
600700
E00700
ENDCHAR
STARTCHAR 0144
ENCODING 324
SWIDTH 540 0
DWIDTH 15 0
BBX 14 20 1 0
BITMAP
0070
00E0
00C0
0180
0000
00E0
19F8
1F38
3C1C
381C
3818
3018
7018
7038
7038
6030
6030
E030
E070
C070
ENDCHAR
STARTCHAR 0145
ENCODING 325
SWIDTH 720 0
DWIDTH 20 0
BBX 20 26 1 -6
BITMAP
0E0070
0F0070
0F0070
0F8060
0D8060
1DC0E0
1DC0E0
1CC0C0
18E0C0
1861C0
3871C0
3831C0
383980
303980
701B80
701F80
700F80
600F00
600700
E00700
000000
03C000
00E000
00E000
0FC000
0F8000
ENDCHAR
STARTCHAR 0146
ENCODING 326
SWIDTH 540 0
DWIDTH 15 0
BBX 14 21 1 -6
BITMAP
00E0
19F8
1F38
3C1C
381C
3818
3018
7018
7038
7038
6030
6030
E030
E070
C070
0000
0F00
0380
0380
3F00
3C00
ENDCHAR
STARTCHAR 0147
ENCODING 327
SWIDTH 720 0
DWIDTH 20 0
BBX 20 25 1 0
BITMAP
006300
006600
003C00
003800
000000
0E0070
0F0070
0F0070
0F8060
0D8060
1DC0E0
1DC0E0
1CC0C0
18E0C0
1861C0
3871C0
3831C0
383980
303980
701B80
701F80
700F80
600F00
600700
E00700
ENDCHAR
STARTCHAR 0148
ENCODING 328
SWIDTH 540 0
DWIDTH 15 0
BBX 14 20 1 0
BITMAP
0318
0330
01E0
01C0
0000
00E0
19F8
1F38
3C1C
381C
3818
3018
7018
7038
7038
6030
6030
E030
E070
C070
ENDCHAR
STARTCHAR 0149
ENCODING 329
SWIDTH 612 0
DWIDTH 17 0
BBX 15 20 1 0
BITMAP
3800
3000
7000
1000
3000
6038
CEFE
0DCE
0F06
0E06
0C06
1C06
1C0E
180E
180C
180C
381C
381C
301C
3018
ENDCHAR
STARTCHAR 014A
ENCODING 330
SWIDTH 720 0
DWIDTH 20 0
BBX 19 20 1 0
BITMAP
0E7F00
0EFF80
0FC3C0
0F01C0
0E00E0
1C00E0
1C00E0
1C00E0
1800E0
3800E0
3800E0
3800C0
3801C0
3001C0
7001C0
700380
700380
700700
60FE00
E1FC00
ENDCHAR
STARTCHAR 014B
ENCODING 331
SWIDTH 540 0
DWIDTH 15 0
BBX 14 21 1 -6
BITMAP
0060
19F8
1F3C
3C1C
381C
381C
3018
3018
7038
7038
6030
6030
6030
E070
E070
0060
0060
00E0
07E0
07C0
0380
ENDCHAR
STARTCHAR 014C
ENCODING 332
SWIDTH 792 0
DWIDTH 22 0
BBX 18 23 3 0
BITMAP
01FE00
000000
000000
03FC00
0FFE00
1E0F00
3C0380
3801C0
7001C0
E000C0
E000C0
E000C0
C000C0
C000C0
C001C0
C001C0
C001C0
E00380
E00700
700F00
781E00
3FFC00
0FF000
ENDCHAR
STARTCHAR 014D
ENCODING 333
SWIDTH 540 0
DWIDTH 15 0
BBX 14 19 1 0
BITMAP
07FC
07F8
0000
0000
03C0
0FF0
1E38
381C
301C
700C
600C
601C
E01C
E01C
E038
6038
7070
3FE0
1FC0
ENDCHAR
STARTCHAR 014E
ENCODING 334
SWIDTH 792 0
DWIDTH 22 0
BBX 18 25 3 0
BITMAP
018200
018600
00FC00
007800
000000
03FC00
0FFE00
1E0F00
3C0380
3801C0
7001C0
E000C0
E000C0
E000C0
C000C0
C000C0
C001C0
C001C0
C001C0
E00380
E00700
700F00
781E00
3FFC00
0FF000
ENDCHAR
STARTCHAR 014F
ENCODING 335
SWIDTH 540 0
DWIDTH 15 0
BBX 14 19 1 0
BITMAP
0618
03B8
01E0
0000
03C0
0FF0
1E38
381C
301C
700C
600C
601C
E01C
E01C
E038
6038
7070
3FE0
1FC0
ENDCHAR
STARTCHAR 0150
ENCODING 336
SWIDTH 792 0
DWIDTH 22 0
BBX 18 25 3 0
BITMAP
007380
00E700
00CE00
018C00
000000
03FC00
0FFE00
1E0F00
3C0380
3801C0
7001C0
E000C0
E000C0
E000C0
C000C0
C000C0
C001C0
C001C0
C001C0
E00380
E00700
700F00
781E00
3FFC00
0FF000
ENDCHAR
STARTCHAR 0151
ENCODING 337
SWIDTH 540 0
DWIDTH 15 0
BBX 15 20 1 0
BITMAP
01CE
019C
0338
0630
0000
03C0
0FF0
1E38
381C
301C
700C
600C
601C
E01C
E01C
E038
6038
7070
3FE0
1FC0
ENDCHAR
STARTCHAR 0152
ENCODING 338
SWIDTH 1008 0
DWIDTH 28 0
BBX 27 20 2 0
BITMAP
01F8FFE0
07FDFFE0
0F0FC000
1C07C000
38038000
38038000
70038000
70038000
60038000
E003FF80
E003FF80
E0070000
E0070000
E0070000
E0060000
600E0000
701E0000
383E0000
3FFFFF00
0FEFFF00
ENDCHAR
STARTCHAR 0153
ENCODING 339
SWIDTH 936 0
DWIDTH 26 0
BBX 24 15 2 0
BITMAP
0380E0
1FE3FC
3C771C
703E06
603C06
E01C07
E01807
C01FFE
C03800
C03800
C0380E
E0781C
E0FC38
7FCFF0
3F87E0
ENDCHAR
STARTCHAR 0154
ENCODING 340
SWIDTH 720 0
DWIDTH 20 0
BBX 19 25 1 0
BITMAP
001C00
003800
007000
006000
000000
0FFF00
0FFFC0
0E01E0
0C00E0
0C0060
1C0060
1C00E0
1C00E0
1803C0
3FFF80
3FFE00
383800
381C00
300E00
700600
700700
700700
600380
600380
E001C0
ENDCHAR
STARTCHAR 0155
ENCODING 341
SWIDTH 324 0
DWIDTH 9 0
BBX 10 20 1 0
BITMAP
01C0
0380
0300
0600
0000
00C0
1BC0
1FC0
3C00
3800
3800
3000
7000
7000
6000
6000
6000
E000
E000
C000
ENDCHAR
STARTCHAR 0156
ENCODING 342
SWIDTH 720 0
DWIDTH 20 0
BBX 19 26 1 -6
BITMAP
0FFF00
0FFFC0
0E01E0
0C00E0
0C0060
1C0060
1C00E0
1C00E0
1803C0
3FFF80
3FFE00
383800
381C00
300E00
700600
700700
700700
600380
600380
E001C0
000000
03C000
00E000
00E000
0FC000
0F8000
ENDCHAR
STARTCHAR 0157
ENCODING 343
SWIDTH 324 0
DWIDTH 9 0
BBX 12 21 -1 -6
BITMAP
0030
06F0
07F0
0F00
0E00
0E00
0C00
1C00
1C00
1800
1800
1800
3800
3800
3000
0000
3C00
0E00
0600
FE00
F800
ENDCHAR
STARTCHAR 0158
ENCODING 344
SWIDTH 720 0
DWIDTH 20 0
BBX 19 25 1 0
BITMAP
00C600
00EE00
007C00
007800
000000
0FFF00
0FFFC0
0E01E0
0C00E0
0C0060
1C0060
1C00E0
1C00E0
1803C0
3FFF80
3FFE00
383800
381C00
300E00
700600
700700
700700
600380
600380
E001C0
ENDCHAR
STARTCHAR 0159
ENCODING 345
SWIDTH 324 0
DWIDTH 9 0
BBX 11 20 1 0
BITMAP
0C60
0CC0
0780
0700
0000
00C0
1BC0
1FC0
3C00
3800
3800
3000
7000
7000
6000
6000
6000
E000
E000
C000
ENDCHAR
STARTCHAR 015A
ENCODING 346
SWIDTH 684 0
DWIDTH 19 0
BBX 17 25 2 0
BITMAP
003800
007000
006000
00C000
000000
03F800
0FFE00
1E0F00
180700
380380
380380
1C0000
1E0000
0F8000
07E000
01F800
007C00
001E00
600E00
E00600
E00600
E00E00
781C00
3FF800
1FF000
ENDCHAR
STARTCHAR 015B
ENCODING 347
SWIDTH 504 0
DWIDTH 14 0
BBX 13 20 1 0
BITMAP
00E0
01C0
0180
0300
0000
0380
0FE0
1C70
3838
3838
3C00
1F00
0FC0
03E0
00F0
E070
E070
7070
7FE0
3FC0
ENDCHAR
STARTCHAR 015C
ENCODING 348
SWIDTH 684 0
DWIDTH 19 0
BBX 17 25 2 0
BITMAP
003800
007800
00CC00
018C00
000000
03F800
0FFE00
1E0F00
180700
380380
380380
1C0000
1E0000
0F8000
07E000
01F800
007C00
001E00
600E00
E00600
E00600
E00E00
781C00
3FF800
1FF000
ENDCHAR
STARTCHAR 015D
ENCODING 349
SWIDTH 504 0
DWIDTH 14 0
BBX 13 20 1 0
BITMAP
00E0
01E0
0330
0630
0000
0380
0FE0
1C70
3838
3838
3C00
1F00
0FC0
03E0
00F0
E070
E070
7070
7FE0
3FC0
ENDCHAR
STARTCHAR 015E
ENCODING 350
SWIDTH 684 0
DWIDTH 19 0
BBX 17 26 2 -6
BITMAP
03F800
0FFE00
1E0F00
180700
380380
380380
1C0000
1E0000
0F8000
07E000
01F800
007C00
001E00
600E00
E00600
E00600
E00E00
781C00
3FF800
1FF000
060000
070000
038000
018000
1F8000
3E0000
ENDCHAR
STARTCHAR 015F
ENCODING 351
SWIDTH 504 0
DWIDTH 14 0
BBX 13 21 1 -6
BITMAP
0380
0FE0
1C70
3838
3838
3C00
1F00
0FC0
03E0
00F0
E070
E070
7070
7FE0
3FC0
0C00
0F00
0300
0300
3F00
1000
ENDCHAR
STARTCHAR 0160
ENCODING 352
SWIDTH 684 0
DWIDTH 19 0
BBX 17 25 2 0
BITMAP
018C00
019800
00F000
00E000
000000
03F800
0FFE00
1E0F00
180700
380380
380380
1C0000
1E0000
0F8000
07E000
01F800
007C00
001E00
600E00
E00600
E00600
E00E00
781C00
3FF800
1FF000
ENDCHAR
STARTCHAR 0161
ENCODING 353
SWIDTH 504 0
DWIDTH 14 0
BBX 13 20 1 0
BITMAP
0638
0370
03E0
01C0
0000
0380
0FE0
1C70
3838
3838
3C00
1F00
0FC0
03E0
00F0
E070
E070
7070
7FE0
3FC0
ENDCHAR
STARTCHAR 0162
ENCODING 354
SWIDTH 612 0
DWIDTH 17 0
BBX 16 27 4 -8
BITMAP
FFFF
FFFE
0380
0300
0300
0700
0700
0700
0600
0E00
0E00
0E00
0E00
0C00
1C00
1C00
1C00
1800
1800
3800
0000
0000
3800
3000
1000
1000
6000
ENDCHAR
STARTCHAR 0163
ENCODING 355
SWIDTH 288 0
DWIDTH 8 0
BBX 8 27 1 -7
BITMAP
02
04
0C
1C
1C
1C
7F
1F
38
38
30
30
30
70
70
60
60
60
7C
78
00
00
70
70
20
20
C0
ENDCHAR
STARTCHAR 0164
ENCODING 356
SWIDTH 612 0
DWIDTH 17 0
BBX 16 25 4 0
BITMAP
0630
0660
07C0
0380
0000
FFFF
FFFE
0380
0300
0300
0700
0700
0700
0600
0E00
0E00
0E00
0E00
0C00
1C00
1C00
1C00
1800
1800
3800
ENDCHAR
STARTCHAR 0165
ENCODING 357
SWIDTH 360 0
DWIDTH 10 0
BBX 11 20 2 0
BITMAP
0060
08E0
18E0
3840
3840
3180
FE00
3C00
7000
7000
6000
6000
6000
E000
E000
C000
C000
C000
F000
F000
ENDCHAR
STARTCHAR 0166
ENCODING 358
SWIDTH 612 0
DWIDTH 17 0
BBX 17 20 3 0
BITMAP
7FFF80
7FFF00
01C000
018000
018000
038000
038000
038000
030000
030000
FFF800
070000
070000
060000
0E0000
0E0000
0E0000
0C0000
0C0000
1C0000
ENDCHAR
STARTCHAR 0167
ENCODING 359
SWIDTH 288 0
DWIDTH 8 0
BBX 9 20 0 0
BITMAP
0100
0200
0600
0E00
0E00
0E00
3F80
0F80
1C00
1C00
1800
1800
7F00
FF00
3800
3000
3000
3000
3E00
3C00
ENDCHAR
STARTCHAR 0168
ENCODING 360
SWIDTH 720 0
DWIDTH 20 0
BBX 18 24 3 0
BITMAP
01E200
01FE00
031C00
000000
3801C0
3801C0
380180
300180
300380
700380
700380
700300
600300
600700
E00700
E00700
E00600
C00E00
C00E00
C00C00
E01C00
F07800
7FF000
1FE000
ENDCHAR
STARTCHAR 0169
ENCODING 361
SWIDTH 540 0
DWIDTH 15 0
BBX 13 20 2 0
BITMAP
0218
0FF8
0DF0
0000
0000
0000
3018
3018
7038
7038
6030
6030
E030
E070
E070
C060
C0E0
C1E0
FF60
7CE0
ENDCHAR
STARTCHAR 016A
ENCODING 362
SWIDTH 720 0
DWIDTH 20 0
BBX 18 23 3 0
BITMAP
03FE00
000000
000000
3801C0
3801C0
380180
300180
300380
700380
700380
700300
600300
600700
E00700
E00700
E00600
C00E00
C00E00
C00C00
E01C00
F07800
7FF000
1FE000
ENDCHAR
STARTCHAR 016B
ENCODING 363
SWIDTH 540 0
DWIDTH 15 0
BBX 13 19 2 0
BITMAP
0FF8
0FF0
0000
0000
0000
3018
3018
7038
7038
6030
6030
E030
E070
E070
C060
C0E0
C1E0
FF60
7CE0
ENDCHAR
STARTCHAR 016C
ENCODING 364
SWIDTH 720 0
DWIDTH 20 0
BBX 18 25 3 0
BITMAP
010600
018400
01FC00
007000
000000
3801C0
3801C0
380180
300180
300380
700380
700380
700300
600300
600700
E00700
E00700
E00600
C00E00
C00E00
C00C00
E01C00
F07800
7FF000
1FE000
ENDCHAR
STARTCHAR 016D
ENCODING 365
SWIDTH 540 0
DWIDTH 15 0
BBX 13 19 2 0
BITMAP
0C30
0760
03C0
0000
0000
3018
3018
7038
7038
6030
6030
E030
E070
E070
C060
C0E0
C1E0
FF60
7CE0
ENDCHAR
STARTCHAR 016E
ENCODING 366
SWIDTH 720 0
DWIDTH 20 0
BBX 18 25 3 0
BITMAP
006000
00D000
008800
009800
007000
3801C0
3801C0
380180
300180
300380
700380
700380
700300
600300
600700
E00700
E00700
E00600
C00E00
C00E00
C00C00
E01C00
F07800
7FF000
1FE000
ENDCHAR
STARTCHAR 016F
ENCODING 367
SWIDTH 540 0
DWIDTH 15 0
BBX 13 20 2 0
BITMAP
03C0
0640
0440
03C0
0100
0000
3018
3018
7038
7038
6030
6030
E030
E070
E070
C060
C0E0
C1E0
FF60
7CE0
ENDCHAR
STARTCHAR 0170
ENCODING 368
SWIDTH 720 0
DWIDTH 20 0
BBX 18 25 3 0
BITMAP
007700
00E600
01CC00
019800
000000
3801C0
3801C0
380180
300180
300380
700380
700380
700300
600300
600700
E00700
E00700
E00600
C00E00
C00E00
C00C00
E01C00
F07800
7FF000
1FE000
ENDCHAR
STARTCHAR 0171
ENCODING 369
SWIDTH 540 0
DWIDTH 15 0
BBX 13 20 2 0
BITMAP
03B8
0730
0E60
0CC0
0000
0000
3018
3018
7038
7038
6030
6030
E030
E070
E070
C060
C0E0
C1E0
FF60
7CE0
ENDCHAR
STARTCHAR 0172
ENCODING 370
SWIDTH 720 0
DWIDTH 20 0
BBX 18 26 3 -6
BITMAP
3801C0
3801C0
380180
300180
300380
700380
700380
700300
600300
600700
E00700
E00700
E00600
C00E00
C00E00
C00C00
E01C00
F07800
7FF000
1FE000
060000
060000
040000
060000
07C000
038000
ENDCHAR
STARTCHAR 0173
ENCODING 371
SWIDTH 540 0
DWIDTH 15 0
BBX 13 20 2 -6
BITMAP
3018
3018
7038
7038
6030
6030
E030
E070
E070
C060
C0E0
C1E0
FF60
7CE0
00C0
0080
0180
01C0
00F8
0070
ENDCHAR
STARTCHAR 0174
ENCODING 372
SWIDTH 936 0
DWIDTH 26 0
BBX 26 25 3 0
BITMAP
00070000
000F0000
00198000
00318000
00000000
E00E00C0
601E01C0
601E0180
603E0380
603E0300
60760700
60760600
70E60E00
70E60C00
71C61C00
71871800
73873800
73073000
77077000
76076000
7E07E000
7C07C000
3C07C000
38078000
38078000
ENDCHAR
STARTCHAR 0175
ENCODING 373
SWIDTH 720 0
DWIDTH 20 0
BBX 19 20 2 0
BITMAP
007800
00F800
01DC00
018C00
000000
000000
E0E060
E0E0E0
E1E0C0
61E1C0
63F180
637380
677300
663700
663600
6C3600
6C3C00
783C00
783800
303800
ENDCHAR
STARTCHAR 0176
ENCODING 374
SWIDTH 684 0
DWIDTH 19 0
BBX 18 25 3 0
BITMAP
007000
00F000
019800
031800
000000
E001C0
700380
700780
380700
380E00
1C1C00
1C3C00
0E3800
0E7000
07E000
07E000
03C000
038000
038000
038000
030000
070000
070000
070000
070000
ENDCHAR
STARTCHAR 0177
ENCODING 375
SWIDTH 504 0
DWIDTH 14 0
BBX 15 26 0 -6
BITMAP
00F0
01F0
03B0
0718
0000
0000
1806
180E
181C
1C18
1C38
1C30
0C70
0C60
0CE0
0CC0
0F80
0F80
0700
0700
0600
0E00
1C00
F800
F800
E000
ENDCHAR
STARTCHAR 0178
ENCODING 376
SWIDTH 684 0
DWIDTH 19 0
BBX 18 24 3 0
BITMAP
039C00
039800
031800
000000
E001C0
700380
700780
380700
380E00
1C1C00
1C3C00
0E3800
0E7000
07E000
07E000
03C000
038000
038000
038000
030000
070000
070000
070000
070000
ENDCHAR
STARTCHAR 0179
ENCODING 377
SWIDTH 612 0
DWIDTH 17 0
BBX 17 25 1 0
BITMAP
003800
007000
00E000
00C000
000000
1FFF80
1FFF80
000700
000E00
001E00
003C00
003800
007000
00E000
01C000
038000
078000
070000
0E0000
1C0000
380000
700000
F00000
FFFE00
FFFE00
ENDCHAR
STARTCHAR 017A
ENCODING 378
SWIDTH 504 0
DWIDTH 14 0
BBX 13 20 1 0
BITMAP
00E0
01C0
0180
0300
0000
0000
3FF8
3FF8
0070
00E0
01C0
0380
0700
0E00
1C00
3800
7800
F000
FFE0
FFE0
ENDCHAR
STARTCHAR 017B
ENCODING 379
SWIDTH 612 0
DWIDTH 17 0
BBX 17 24 1 0
BITMAP
00F000
00E000
00E000
000000
1FFF80
1FFF80
000700
000E00
001E00
003C00
003800
007000
00E000
01C000
038000
078000
070000
0E0000
1C0000
380000
700000
F00000
FFFE00
FFFE00
ENDCHAR
STARTCHAR 017C
ENCODING 380
SWIDTH 504 0
DWIDTH 14 0
BBX 13 19 1 0
BITMAP
0380
0380
0380
0000
0000
3FF8
3FF8
0070
00E0
01C0
0380
0700
0E00
1C00
3800
7800
F000
FFE0
FFE0
ENDCHAR
STARTCHAR 017D
ENCODING 381
SWIDTH 612 0
DWIDTH 17 0
BBX 17 25 1 0
BITMAP
039C00
01B800
01F000
00E000
000000
1FFF80
1FFF80
000700
000E00
001E00
003C00
003800
007000
00E000
01C000
038000
078000
070000
0E0000
1C0000
380000
700000
F00000
FFFE00
FFFE00
ENDCHAR
STARTCHAR 017E
ENCODING 382
SWIDTH 504 0
DWIDTH 14 0
BBX 13 20 1 0
BITMAP
0630
0660
03C0
0380
0000
0000
3FF8
3FF8
0070
00E0
01C0
0380
0700
0E00
1C00
3800
7800
F000
FFE0
FFE0
ENDCHAR
STARTCHAR 017F
ENCODING 383
SWIDTH 216 0
DWIDTH 6 0
BBX 10 20 1 0
BITMAP
07C0
0FC0
1C00
1C00
1800
1800
1800
3800
3800
3000
3000
7000
7000
7000
6000
6000
E000
E000
E000
C000
ENDCHAR
STARTCHAR 018F
ENCODING 399
SWIDTH 792 0
DWIDTH 22 0
BBX 18 20 3 0
BITMAP
03FC00
07FE00
0E0F00
1C0780
380380
700180
0001C0
0001C0
0001C0
FFFFC0
FFFFC0
C00180
C00380
C00380
E00700
E00700
E00E00
783C00
3FF800
1FE000
ENDCHAR
STARTCHAR 0192
ENCODING 402
SWIDTH 540 0
DWIDTH 15 0
BBX 14 26 1 -6
BITMAP
00FC
00F8
01C0
01C0
0180
0180
0FF0
03F0
0380
0300
0300
0300
0700
0700
0700
0600
0600
0600
0E00
0E00
0E00
0C00
0C00
9C00
F800
F000
ENDCHAR
STARTCHAR 01A0
ENCODING 416
SWIDTH 828 0
DWIDTH 23 0
BBX 22 20 3 0
BITMAP
03FC1C
0FFE1C
1E0F18
3C0388
3801C8
7001D0
6000E0
E000C0
E000C0
C000C0
C000C0
C001C0
C001C0
C001C0
E00380
E00780
700F00
381E00
3FFC00
0FF000
ENDCHAR
STARTCHAR 01A1
ENCODING 417
SWIDTH 612 0
DWIDTH 17 0
BBX 18 15 1 0
BITMAP
03C000
0FF1C0
1E3980
381C80
301C80
700D00
600F00
601C00
E01C00
E01C00
E01800
603800
707000
3FE000
1FC000
ENDCHAR
STARTCHAR 01AF
ENCODING 431
SWIDTH 792 0
DWIDTH 22 0
BBX 23 20 3 0
BITMAP
3801CE
3801CC
38019C
300184
30038C
700398
7003F0
700300
600300
600700
E00700
E00700
E00600
C00E00
C00E00
C00C00
E01C00
F03800
7FF000
1FE000
ENDCHAR
STARTCHAR 01B0
ENCODING 432
SWIDTH 648 0
DWIDTH 18 0
BBX 18 14 2 0
BITMAP
3019C0
3019C0
703880
703880
603180
603700
E03800
E07000
E07000
C06000
C0E000
C1E000
FF6000
7CE000
ENDCHAR
STARTCHAR 01CD
ENCODING 461
SWIDTH 684 0
DWIDTH 19 0
BBX 17 25 0 0
BITMAP
003180
003300
003E00
001C00
000000
003C00
003C00
007C00
006C00
00EE00
00CE00
01CE00
018600
038600
070600
070700
0E0700
0FFF00
1FFF00
180300
380300
700380
700380
E00380
E00380
ENDCHAR
STARTCHAR 01CE
ENCODING 462
SWIDTH 540 0
DWIDTH 15 0
BBX 14 20 1 0
BITMAP
0318
0330
01E0
01C0
0000
01C0
0FF0
1C38
381C
301C
001C
01F8
3FF8
7C38
6038
E030
E070
E0F0
7FB0
3F30
ENDCHAR
STARTCHAR 01CF
ENCODING 463
SWIDTH 288 0
DWIDTH 8 0
BBX 10 25 2 0
BITMAP
39C0
1980
1B00
0E00
0000
0C00
1C00
1C00
1C00
1800
1800
3800
3800
3800
3000
3000
7000
7000
7000
6000
6000
E000
E000
E000
C000
ENDCHAR
STARTCHAR 01D0
ENCODING 464
SWIDTH 216 0
DWIDTH 6 0
BBX 9 20 1 0
BITMAP
3380
3300
3E00
1C00
0000
0000
1800
3800
3800
3000
3000
3000
7000
7000
6000
6000
6000
E000
E000
C000
ENDCHAR
STARTCHAR 01D1
ENCODING 465
SWIDTH 792 0
DWIDTH 22 0
BBX 18 25 3 0
BITMAP
01CE00
00CC00
00D800
007000
000000
03FC00
0FFE00
1E0F00
3C0380
3801C0
7001C0
E000C0
E000C0
E000C0
C000C0
C000C0
C001C0
C001C0
C001C0
E00380
E00700
700F00
781E00
3FFC00
0FF000
ENDCHAR
STARTCHAR 01D2
ENCODING 466
SWIDTH 540 0
DWIDTH 15 0
BBX 14 20 1 0
BITMAP
0318
0330
01E0
01C0
0000
03C0
0FF0
1E38
381C
301C
700C
600C
601C
E01C
E01C
E038
6038
7070
3FE0
1FC0
ENDCHAR
STARTCHAR 01D3
ENCODING 467
SWIDTH 720 0
DWIDTH 20 0
BBX 18 25 3 0
BITMAP
018E00
00DC00
00F800
007000
000000
3801C0
3801C0
380180
300180
300380
700380
700380
700300
600300
600700
E00700
E00700
E00600
C00E00
C00E00
C00C00
E01C00
F07800
7FF000
1FE000
ENDCHAR
STARTCHAR 01D4
ENCODING 468
SWIDTH 540 0
DWIDTH 15 0
BBX 13 20 2 0
BITMAP
0638
0370
03E0
01C0
0000
0000
3018
3018
7038
7038
6030
6030
E030
E070
E070
C060
C0E0
C1E0
FF60
7CE0
ENDCHAR
STARTCHAR 01D5
ENCODING 469
SWIDTH 720 0
DWIDTH 20 0
BBX 18 25 3 0
BITMAP
00FE00
00FE00
000000
018C00
018C00
3801C0
3801C0
380180
300180
300380
700380
700380
700300
600300
600700
E00700
E00700
E00600
C00E00
C00E00
C00C00
E01C00
F07800
7FF000
1FE000
ENDCHAR
STARTCHAR 01D6
ENCODING 470
SWIDTH 540 0
DWIDTH 15 0
BBX 13 24 2 0
BITMAP
07F8
07F8
0000
0000
0000
0630
0E70
0000
0000
0000
3018
3018
7038
7038
6030
6030
E030
E070
E070
C060
C0E0
C1E0
FF60
7CE0
ENDCHAR
STARTCHAR 01D7
ENCODING 471
SWIDTH 720 0
DWIDTH 20 0
BBX 18 25 3 0
BITMAP
001C00
003800
000000
018C00
018C00
3801C0
3801C0
380180
300180
300380
700380
700380
700300
600300
600700
E00700
E00700
E00600
C00E00
C00E00
C00C00
E01C00
F07800
7FF000
1FE000
ENDCHAR
STARTCHAR 01D8
ENCODING 472
SWIDTH 540 0
DWIDTH 15 0
BBX 13 25 2 0
BITMAP
0038
0070
00E0
00C0
0000
0000
0630
0E70
0000
0000
0000
3018
3018
7038
7038
6030
6030
E030
E070
E070
C060
C0E0
C1E0
FF60
7CE0
ENDCHAR
STARTCHAR 01D9
ENCODING 473
SWIDTH 720 0
DWIDTH 20 0
BBX 18 25 3 0
BITMAP
006C00
007800
000000
018C00
018C00
3801C0
3801C0
380180
300180
300380
700380
700380
700300
600300
600700
E00700
E00700
E00600
C00E00
C00E00
C00C00
E01C00
F07800
7FF000
1FE000
ENDCHAR
STARTCHAR 01DA
ENCODING 474
SWIDTH 540 0
DWIDTH 15 0
BBX 14 25 2 0
BITMAP
031C
01B8
01F0
01E0
0000
0000
0630
0E70
0000
0000
0000
3018
3018
7038
7038
6030
6030
E030
E070
E070
C060
C0E0
C1E0
FF60
7CE0
ENDCHAR
STARTCHAR 01DB
ENCODING 475
SWIDTH 720 0
DWIDTH 20 0
BBX 18 25 3 0
BITMAP
00E000
003000
000000
018C00
018C00
3801C0
3801C0
380180
300180
300380
700380
700380
700300
600300
600700
E00700
E00700
E00600
C00E00
C00E00
C00C00
E01C00
F07800
7FF000
1FE000
ENDCHAR
STARTCHAR 01DC
ENCODING 476
SWIDTH 540 0
DWIDTH 15 0
BBX 13 25 2 0
BITMAP
0380
0180
00C0
00C0
0000
0000
0630
0E70
0000
0000
0000
3018
3018
7038
7038
6030
6030
E030
E070
E070
C060
C0E0
C1E0
FF60
7CE0
ENDCHAR
STARTCHAR 01FA
ENCODING 506
SWIDTH 684 0
DWIDTH 19 0
BBX 17 28 0 0
BITMAP
000380
000700
000600
000C00
001C00
003200
002200
003200
003C00
003C00
007C00
006C00
00EE00
00CE00
01CE00
018600
038600
070600
070700
0E0700
0FFF00
1FFF00
180300
380300
700380
700380
E00380
E00380
ENDCHAR
STARTCHAR 01FB
ENCODING 507
SWIDTH 540 0
DWIDTH 15 0
BBX 14 25 1 0
BITMAP
0038
0070
00E0
0000
0000
01E0
0320
0220
01E0
0080
01C0
0FF0
1C38
381C
301C
001C
01F8
3FF8
7C38
6038
E030
E070
E0F0
7FB0
3F30
ENDCHAR
STARTCHAR 01FC
ENCODING 508
SWIDTH 1008 0
DWIDTH 28 0
BBX 30 25 -1 0
BITMAP
00001C00
00003800
00007000
0000E000
00000000
000FFFFC
001FFFFC
001CE000
0038E000
0070E000
0070E000
00E0C000
00C1C000
01C1C000
0381FFF0
0381FFF0
07018000
0FFF8000
0FFF8000
1C038000
1C030000
38030000
70070000
7007FFE0
E007FFE0
ENDCHAR
STARTCHAR 01FD
ENCODING 509
SWIDTH 900 0
DWIDTH 25 0
BBX 23 20 1 0
BITMAP
000380
000700
000E00
000C00
000000
0380E0
0FF3F8
1C7F1C
383E0E
301C06
001806
01F806
3FFFFE
7C3000
E03000
E0700C
E0781C
E0F838
7F9FF0
3F0FE0
ENDCHAR
STARTCHAR 01FE
ENCODING 510
SWIDTH 792 0
DWIDTH 22 0
BBX 18 26 3 -1
BITMAP
001C00
001800
003800
007000
000040
03FCC0
0FFF80
1F0F00
3C0780
3807C0
700DC0
E018C0
E030C0
E060C0
C0E0C0
C0C0C0
C181C0
C301C0
C601C0
EC0380
FC0780
780F00
781E00
7FFC00
CFF000
800000
ENDCHAR
STARTCHAR 01FF
ENCODING 511
SWIDTH 612 0
DWIDTH 17 0
BBX 14 21 2 -1
BITMAP
0070
0060
00C0
0180
0000
03CC
0FF8
1C78
3838
707C
70DC
619C
E31C
E31C
E618
EC38
7838
7070
3FE0
7F80
C000
ENDCHAR
STARTCHAR 0218
ENCODING 536
SWIDTH 684 0
DWIDTH 19 0
BBX 17 27 2 -7
BITMAP
03F800
0FFE00
1E0F00
180700
380380
380380
1C0000
1E0000
0F8000
07E000
01F800
007C00
001E00
600E00
E00600
E00600
E00E00
781C00
3FF800
1FF000
000000
000000
030000
070000
030000
020000
0C0000
ENDCHAR
STARTCHAR 0219
ENCODING 537
SWIDTH 504 0
DWIDTH 14 0
BBX 13 22 1 -7
BITMAP
0380
0FE0
1C70
3838
3838
3C00
1F00
0FC0
03E0
00F0
E070
E070
7070
7FE0
3FC0
0000
0000
0E00
0E00
0400
0C00
1800
ENDCHAR
STARTCHAR 021A
ENCODING 538
SWIDTH 612 0
DWIDTH 17 0
BBX 16 27 4 -8
BITMAP
FFFF
FFFE
0380
0300
0300
0700
0700
0700
0600
0E00
0E00
0E00
0E00
0C00
1C00
1C00
1C00
1800
1800
3800
0000
0000
3800
3000
1000
1000
6000
ENDCHAR
STARTCHAR 021B
ENCODING 539
SWIDTH 288 0
DWIDTH 8 0
BBX 8 27 1 -7
BITMAP
02
04
0C
1C
1C
1C
7F
1F
38
38
30
30
30
70
70
60
60
60
7C
78
00
00
70
70
20
20
C0
ENDCHAR
STARTCHAR 0259
ENCODING 601
SWIDTH 540 0
DWIDTH 15 0
BBX 13 15 2 0
BITMAP
0380
1FE0
3CF0
7030
6038
0038
0038
FFF8
FFF8
C030
C030
C070
E0E0
7FC0
3F80
ENDCHAR
STARTCHAR 02C6
ENCODING 710
SWIDTH 324 0
DWIDTH 9 0
BBX 8 4 3 16
BITMAP
1C
36
76
E7
ENDCHAR
STARTCHAR 02C7
ENCODING 711
SWIDTH 324 0
DWIDTH 9 0
BBX 7 4 4 16
BITMAP
C6
CC
78
70
ENDCHAR
STARTCHAR 02C9
ENCODING 713
SWIDTH 324 0
DWIDTH 9 0
BBX 9 2 3 17
BITMAP
FF80
FF00
ENDCHAR
STARTCHAR 02D8
ENCODING 728
SWIDTH 324 0
DWIDTH 9 0
BBX 8 3 3 16
BITMAP
C3
E6
7C
ENDCHAR
STARTCHAR 02D9
ENCODING 729
SWIDTH 324 0
DWIDTH 9 0
BBX 4 3 5 16
BITMAP
70
70
E0
ENDCHAR
STARTCHAR 02DA
ENCODING 730
SWIDTH 324 0
DWIDTH 9 0
BBX 5 5 4 15
BITMAP
78
48
C8
78
20
ENDCHAR
STARTCHAR 02DB
ENCODING 731
SWIDTH 324 0
DWIDTH 9 0
BBX 5 6 2 -6
BITMAP
C0
C0
80
C0
F8
70
ENDCHAR
STARTCHAR 02DC
ENCODING 732
SWIDTH 324 0
DWIDTH 9 0
BBX 9 3 3 17
BITMAP
2180
FF80
DF00
ENDCHAR
STARTCHAR 02DD
ENCODING 733
SWIDTH 324 0
DWIDTH 9 0
BBX 9 4 3 16
BITMAP
3B80
7300
E600
CC00
ENDCHAR
STARTCHAR 0300
ENCODING 768
SWIDTH 0 0
DWIDTH 0 0
BBX 5 4 -4 21
BITMAP
E0
70
30
18
ENDCHAR
STARTCHAR 0301
ENCODING 769
SWIDTH 0 0
DWIDTH 0 0
BBX 5 4 -2 21
BITMAP
38
70
60
C0
ENDCHAR
STARTCHAR 0303
ENCODING 771
SWIDTH 0 0
DWIDTH 0 0
BBX 9 3 -9 21
BITMAP
7980
FF80
C700
ENDCHAR
STARTCHAR 0309
ENCODING 777
SWIDTH 0 0
DWIDTH 0 0
BBX 6 4 -3 21
BITMAP
F0
1C
18
70
ENDCHAR
STARTCHAR 0323
ENCODING 803
SWIDTH 0 0
DWIDTH 0 0
BBX 3 2 -12 -4
BITMAP
E0
E0
ENDCHAR
STARTCHAR 037E
ENCODING 894
SWIDTH 288 0
DWIDTH 8 0
BBX 6 18 1 -4
BITMAP
1C
1C
00
00
00
00
00
00
00
00
00
70
70
60
20
20
40
80
ENDCHAR
STARTCHAR 0384
ENCODING 900
SWIDTH 324 0
DWIDTH 9 0
BBX 5 4 5 16
BITMAP
38
30
60
E0
ENDCHAR
STARTCHAR 0385
ENCODING 901
SWIDTH 324 0
DWIDTH 9 0
BBX 11 4 1 16
BITMAP
0300
6660
6660
EC60
ENDCHAR
STARTCHAR 0386
ENCODING 902
SWIDTH 684 0
DWIDTH 19 0
BBX 17 20 0 0
BITMAP
07BC00
0F3C00
0C7C00
006C00
00EE00
00CE00
01CE00
038E00
038600
070600
070700
0E0700
0FFF00
1FFF00
180300
380300
700380
700380
E00380
E00380
ENDCHAR
STARTCHAR 0387
ENCODING 903
SWIDTH 288 0
DWIDTH 8 0
BBX 3 2 4 12
BITMAP
E0
E0
ENDCHAR
STARTCHAR 0388
ENCODING 904
SWIDTH 792 0
DWIDTH 22 0
BBX 21 20 2 0
BITMAP
39FFF8
73FFF8
C38000
038000
030000
030000
070000
070000
070000
07FFE0
07FFE0
0E0000
0E0000
0E0000
0C0000
0C0000
1C0000
1C0000
1FFFC0
1FFFC0
ENDCHAR
STARTCHAR 0389
ENCODING 905
SWIDTH 864 0
DWIDTH 24 0
BBX 22 20 2 0
BITMAP
39800C
73801C
E3801C
03801C
03801C
030018
070038
070038
07FFF8
07FFF0
07FFF0
0E0070
0E0070
0E0070
0C0060
0C0060
1C00E0
1C00E0
1C00E0
1800C0
ENDCHAR
STARTCHAR 038A
ENCODING 906
SWIDTH 396 0
DWIDTH 11 0
BBX 9 20 2 0
BITMAP
3980
7380
C380
0380
0300
0300
0700
0700
0700
0600
0600
0E00
0E00
0E00
0C00
0C00
1C00
1C00
1C00
1800
ENDCHAR
STARTCHAR 038C
ENCODING 908
SWIDTH 792 0
DWIDTH 22 0
BBX 20 20 2 0
BITMAP
78FE00
73FF80
C783C0
0E01C0
1C00E0
380060
380070
700070
700070
700070
700070
600070
7000E0
7000E0
7001C0
3801C0
380380
1E0F00
0FFE00
07F800
ENDCHAR
STARTCHAR 038E
ENCODING 910
SWIDTH 864 0
DWIDTH 24 0
BBX 25 20 2 0
BITMAP
79C00780
71C00700
C0E00E00
00E01C00
00703C00
00707800
00387000
0038E000
001DE000
001DC000
000F8000
000F0000
00060000
00060000
000E0000
000E0000
000E0000
000C0000
000C0000
001C0000
ENDCHAR
STARTCHAR 038F
ENCODING 911
SWIDTH 792 0
DWIDTH 22 0
BBX 21 20 0 0
BITMAP
1E3F80
3CFFC0
31E1E0
038070
070030
0E0038
0E0038
1C0018
1C0018
1C0018
1C0018
1C0038
1C0038
1C0030
0C0070
0E00E0
0601C0
038380
7F8FF8
FF8FF8
ENDCHAR
STARTCHAR 0390
ENCODING 912
SWIDTH 216 0
DWIDTH 6 0
BBX 11 20 0 0
BITMAP
0700
E6E0
CCE0
D8C0
0000
0000
0C00
1C00
1C00
1800
1800
1800
3800
3800
3000
3000
3000
7000
7000
6000
ENDCHAR
STARTCHAR 0391
ENCODING 913
SWIDTH 684 0
DWIDTH 19 0
BBX 17 20 0 0
BITMAP
003C00
003C00
007C00
006C00
00EE00
00CE00
01CE00
018600
038600
070600
070700
0E0700
0FFF00
1FFF00
180300
380300
700380
700380
E00380
E00380
ENDCHAR
STARTCHAR 0392
ENCODING 914
SWIDTH 684 0
DWIDTH 19 0
BBX 17 20 1 0
BITMAP
0FFC00
0FFF00
0E0F80
0C0380
1C0180
1C0180
1C0380
180300
181F00
3FFC00
3FFE00
380700
300380
300380
700380
700300
700700
601E00
7FFC00
FFF800
ENDCHAR
STARTCHAR 0393
ENCODING 915
SWIDTH 576 0
DWIDTH 16 0
BBX 17 20 1 0
BITMAP
0FFF80
0FFF80
0C0000
0C0000
1C0000
1C0000
1C0000
180000
180000
380000
380000
380000
300000
300000
700000
700000
700000
600000
E00000
E00000
ENDCHAR
STARTCHAR 0394
ENCODING 916
SWIDTH 684 0
DWIDTH 19 0
BBX 17 20 0 0
BITMAP
001C00
003C00
003E00
007E00
006E00
00E600
01C600
01C600
038700
030700
070700
060700
0E0300
1C0300
1C0380
380380
380380
700380
7FFF80
FFFF80
ENDCHAR
STARTCHAR 0395
ENCODING 917
SWIDTH 684 0
DWIDTH 19 0
BBX 19 20 1 0
BITMAP
0FFFE0
0FFFC0
0E0000
0C0000
1C0000
1C0000
1C0000
1C0000
180000
3FFF00
3FFF00
380000
300000
300000
700000
700000
700000
600000
7FFF00
FFFF00
ENDCHAR
STARTCHAR 0396
ENCODING 918
SWIDTH 612 0
DWIDTH 17 0
BBX 17 20 1 0
BITMAP
1FFF80
1FFF80
000700
000E00
001E00
003C00
003800
007000
00E000
01C000
038000
078000
070000
0E0000
1C0000
380000
700000
F00000
FFFE00
FFFE00
ENDCHAR
STARTCHAR 0397
ENCODING 919
SWIDTH 720 0
DWIDTH 20 0
BBX 20 20 1 0
BITMAP
0E0070
0E0070
0C0060
0C0060
1C00E0
1C00E0
1C00E0
1800C0
1FFFC0
3FFFC0
3FFFC0
3801C0
300180
300380
700380
700380
700380
600300
E00700
E00700
ENDCHAR
STARTCHAR 0398
ENCODING 920
SWIDTH 792 0
DWIDTH 22 0
BBX 18 20 3 0
BITMAP
03FC00
0FFE00
1E0F00
3C0380
3801C0
7001C0
6000C0
E000C0
E000C0
C7F8C0
C7F8C0
C001C0
C001C0
C001C0
E00380
E00780
700F00
381E00
3FFC00
0FF000
ENDCHAR
STARTCHAR 0399
ENCODING 921
SWIDTH 288 0
DWIDTH 8 0
BBX 6 20 2 0
BITMAP
0C
1C
1C
1C
18
18
38
38
38
30
30
70
70
70
60
60
E0
E0
E0
C0
ENDCHAR
STARTCHAR 039A
ENCODING 922
SWIDTH 684 0
DWIDTH 19 0
BBX 19 20 1 0
BITMAP
0E01E0
0E03C0
0E0780
0C0F00
1C1E00
1C3800
1C7000
1CE000
1BE000
3FE000
3F7000
3E7000
383800
303800
701C00
700E00
700E00
600700
600700
E00380
ENDCHAR
STARTCHAR 039B
ENCODING 923
SWIDTH 684 0
DWIDTH 19 0
BBX 17 20 0 0
BITMAP
003C00
003C00
007C00
006C00
00EC00
00CE00
01CE00
018E00
038E00
070600
070600
0E0700
0E0700
1C0700
180300
380300
300380
700380
600380
E00180
ENDCHAR
STARTCHAR 039C
ENCODING 924
SWIDTH 828 0
DWIDTH 23 0
BBX 23 20 1 0
BITMAP
0F000E
0F001E
0F001E
0F003E
1F007C
1F006C
1F80FC
1980DC
1981D8
398198
398338
398738
31C638
31CE30
70CC30
70DC70
70D870
60F070
60F060
E0E060
ENDCHAR
STARTCHAR 039D
ENCODING 925
SWIDTH 720 0
DWIDTH 20 0
BBX 20 20 1 0
BITMAP
0E0070
0F0070
0F0070
0F8060
0D8060
1DC0E0
1DC0E0
1CC0C0
18E0C0
1861C0
3871C0
3831C0
383980
303980
701B80
701F80
700F80
600F00
600700
E00700
ENDCHAR
STARTCHAR 039E
ENCODING 926
SWIDTH 648 0
DWIDTH 18 0
BBX 19 20 0 0
BITMAP
07FFE0
07FFE0
000000
000000
000000
000000
000000
000000
000000
1FFF80
1FFF80
000000
000000
000000
000000
000000
000000
000000
FFFF00
FFFF00
ENDCHAR
STARTCHAR 039F
ENCODING 927
SWIDTH 792 0
DWIDTH 22 0
BBX 18 20 3 0
BITMAP
03FC00
0FFE00
1E0F00
3C0380
3801C0
7001C0
E000C0
E000C0
E000C0
C000C0
C000C0
C001C0
C001C0
C001C0
E00380
E00700
700F00
781E00
3FFC00
0FF000
ENDCHAR
STARTCHAR 03A0
ENCODING 928
SWIDTH 720 0
DWIDTH 20 0
BBX 20 20 1 0
BITMAP
0FFFF0
0FFFF0
0E0060
0C0060
1C00E0
1C00E0
1C00E0
1C00C0
1800C0
3801C0
3801C0
3801C0
300180
300180
700380
700380
700380
600300
E00700
E00700
ENDCHAR
STARTCHAR 03A1
ENCODING 929
SWIDTH 684 0
DWIDTH 19 0
BBX 18 20 1 0
BITMAP
0FFE00
0FFF80
0E03C0
0C01C0
1C00C0
1C00C0
1C00C0
1801C0
180380
380F80
3FFF00
3FF800
300000
300000
700000
700000
700000
600000
600000
E00000
ENDCHAR
STARTCHAR 03A3
ENCODING 931
SWIDTH 612 0
DWIDTH 17 0
BBX 17 20 1 0
BITMAP
0FFF80
1FFF80
1C0000
0E0000
070000
078000
038000
01C000
00E000
007000
00F000
01E000
038000
070000
1E0000
3C0000
780000
F00000
FFFC00
FFF800
ENDCHAR
STARTCHAR 03A4
ENCODING 932
SWIDTH 612 0
DWIDTH 17 0
BBX 16 20 4 0
BITMAP
FFFF
FFFE
0380
0300
0300
0700
0700
0700
0600
0E00
0E00
0E00
0E00
0C00
1C00
1C00
1C00
1800
1800
3800
ENDCHAR
STARTCHAR 03A5
ENCODING 933
SWIDTH 684 0
DWIDTH 19 0
BBX 18 20 3 0
BITMAP
E001C0
700380
700780
380700
380E00
1C1C00
1C3C00
0E3800
0E7000
07E000
07E000
03C000
038000
038000
038000
030000
070000
070000
070000
070000
ENDCHAR
STARTCHAR 03A6
ENCODING 934
SWIDTH 828 0
DWIDTH 23 0
BBX 21 21 2 -1
BITMAP
001C00
001C00
00FF00
07FFC0
1F9BE0
3C3870
383838
703838
603038
607038
E07038
E07030
606070
7060E0
38E3E0
3FFF80
0FFE00
00E000
01C000
01C000
01C000
ENDCHAR
STARTCHAR 03A7
ENCODING 935
SWIDTH 684 0
DWIDTH 19 0
BBX 21 20 0 0
BITMAP
1C0038
0E0070
0E00E0
0701C0
070380
038700
01CE00
01DC00
00FC00
00F800
00F000
01F000
03F800
079C00
0F1C00
1E0E00
3C0E00
780700
700700
E00380
ENDCHAR
STARTCHAR 03A8
ENCODING 936
SWIDTH 828 0
DWIDTH 23 0
BBX 22 20 3 0
BITMAP
30381C
703818
703838
703038
707038
607030
607030
E06070
E06070
60E0E0
70E1E0
3EEFC0
1FFF00
07F800
01C000
01C000
01C000
018000
038000
038000
ENDCHAR
STARTCHAR 03A9
ENCODING 937
SWIDTH 756 0
DWIDTH 21 0
BBX 21 20 0 0
BITMAP
007F00
00FFC0
03C1E0
078070
070070
0E0038
0C0038
1C0038
1C0038
180038
180038
180038
180030
180070
1C0060
0C00E0
0E01C0
070780
FF8FF0
FF8FF0
ENDCHAR
STARTCHAR 03AA
ENCODING 938
SWIDTH 288 0
DWIDTH 8 0
BBX 10 24 2 0
BITMAP
39C0
39C0
3180
0000
0C00
1C00
1C00
1C00
1800
1800
3800
3800
3800
3000
3000
7000
7000
7000
6000
6000
E000
E000
E000
C000
ENDCHAR
STARTCHAR 03AB
ENCODING 939
SWIDTH 684 0
DWIDTH 19 0
BBX 18 24 3 0
BITMAP
039C00
031800
031800
000000
E001C0
700380
700780
380700
380E00
1C1C00
1C3C00
0E3800
0E7000
07E000
07E000
03C000
038000
038000
038000
030000
070000
070000
070000
070000
ENDCHAR
STARTCHAR 03AC
ENCODING 940
SWIDTH 576 0
DWIDTH 16 0
BBX 15 20 1 0
BITMAP
0070
00E0
00C0
0180
0000
0380
0FE6
1E6E
383C
303C
7018
6018
6010
E030
E030
E030
6070
70F0
7FB8
3F38
ENDCHAR
STARTCHAR 03AD
ENCODING 941
SWIDTH 432 0
DWIDTH 12 0
BBX 11 20 1 0
BITMAP
01C0
0180
0300
0600
0000
0380
1FE0
3CE0
3800
3000
3800
1C00
1E00
7E00
6000
E000
C000
E0C0
7FC0
3F00
ENDCHAR
STARTCHAR 03AE
ENCODING 942
SWIDTH 540 0
DWIDTH 15 0
BBX 14 26 1 -6
BITMAP
0070
00E0
00C0
0180
0000
0060
19F8
1F3C
3C1C
381C
3818
3018
7018
7038
7038
6030
6030
E030
E070
E070
0060
0060
0060
00E0
00E0
00C0
ENDCHAR
STARTCHAR 03AF
ENCODING 943
SWIDTH 216 0
DWIDTH 6 0
BBX 7 20 1 0
BITMAP
0E
0C
18
30
00
00
18
38
38
30
30
30
70
70
60
60
60
E0
E0
C0
ENDCHAR
STARTCHAR 03B0
ENCODING 944
SWIDTH 540 0
DWIDTH 15 0
BBX 13 20 2 0
BITMAP
00C0
19D8
1998
3B18
0000
0000
3018
7018
7038
7038
6030
6030
E030
E070
C070
C060
C0E0
E1C0
7FC0
3F00
ENDCHAR
STARTCHAR 03B1
ENCODING 945
SWIDTH 576 0
DWIDTH 16 0
BBX 15 15 1 0
BITMAP
0380
0FE6
1E6E
383C
303C
7018
6018
6010
E030
E030
E030
6070
70F0
7FB8
3F38
ENDCHAR
STARTCHAR 03B2
ENCODING 946
SWIDTH 576 0
DWIDTH 16 0
BBX 15 26 0 -6
BITMAP
00F8
03FE
078E
0706
0E06
0E06
0C06
0C1C
1CF8
1CF0
183C
180C
380E
3806
3806
380E
380C
7C1C
7F78
67F0
6000
6000
E000
E000
C000
C000
ENDCHAR
STARTCHAR 03B3
ENCODING 947
SWIDTH 504 0
DWIDTH 14 0
BBX 13 20 2 -6
BITMAP
E038
E030
6070
6060
60E0
60C0
7180
7380
3300
3700
3600
3E00
3C00
1800
1800
3800
3800
3000
3000
7000
ENDCHAR
STARTCHAR 03B4
ENCODING 948
SWIDTH 540 0
DWIDTH 15 0
BBX 15 20 1 0
BITMAP
0FFE
0FFE
0600
0700
0380
01C0
07E0
1FF0
3838
301C
701C
601C
601C
E01C
E01C
E038
6038
7070
3FE0
1FC0
ENDCHAR
STARTCHAR 03B5
ENCODING 949
SWIDTH 432 0
DWIDTH 12 0
BBX 11 15 1 0
BITMAP
0380
1FE0
3CE0
3800
3000
3800
1C00
1E00
7E00
6000
E000
C000
E0C0
7FC0
3F00
ENDCHAR
STARTCHAR 03B6
ENCODING 950
SWIDTH 468 0
DWIDTH 13 0
BBX 15 26 1 -6
BITMAP
07FE
07FC
0038
00E0
01C0
0380
0700
0E00
1C00
3800
3000
7000
6000
6000
E000
E000
E000
7000
7F00
1F80
01C0
00C0
01C0
0380
0F00
0C00
ENDCHAR
STARTCHAR 03B7
ENCODING 951
SWIDTH 540 0
DWIDTH 15 0
BBX 14 21 1 -6
BITMAP
0060
19F8
1F3C
3C1C
381C
3818
3018
7018
7038
7038
6030
6030
E030
E070
E070
0060
0060
0060
00E0
00E0
00C0
ENDCHAR
STARTCHAR 03B8
ENCODING 952
SWIDTH 540 0
DWIDTH 15 0
BBX 14 20 2 0
BITMAP
07E0
0FF0
1C38
1818
3818
7018
701C
6018
E018
FFF8
FFF8
C038
C038
C030
C070
C060
E0E0
61C0
7F80
3F00
ENDCHAR
STARTCHAR 03B9
ENCODING 953
SWIDTH 216 0
DWIDTH 6 0
BBX 5 14 1 0
BITMAP
18
38
38
30
30
30
70
70
60
60
60
E0
E0
C0
ENDCHAR
STARTCHAR 03BA
ENCODING 954
SWIDTH 504 0
DWIDTH 14 0
BBX 14 14 1 0
BITMAP
183C
1870
38E0
39C0
3300
3600
7F00
7B00
7380
6180
61C0
E0E0
E0E0
C070
ENDCHAR
STARTCHAR 03BB
ENCODING 955
SWIDTH 504 0
DWIDTH 14 0
BBX 12 20 0 0
BITMAP
0180
01C0
01C0
01C0
00C0
00C0
01C0
01E0
03E0
07E0
0660
0E60
0C60
1860
1870
3070
7070
6030
E030
C030
ENDCHAR
STARTCHAR 03BC
ENCODING 956
SWIDTH 540 0
DWIDTH 15 0
BBX 15 20 0 -6
BITMAP
0C06
1C06
1C0E
180E
180C
180C
380C
381C
301C
3018
3038
7878
7FF8
6FB0
6000
6000
E000
E000
C000
C000
ENDCHAR
STARTCHAR 03BD
ENCODING 957
SWIDTH 504 0
DWIDTH 14 0
BBX 13 14 2 0
BITMAP
E038
E030
6070
6060
60E0
70C0
71C0
7180
3300
3700
3600
3E00
3C00
3C00
ENDCHAR
STARTCHAR 03BE
ENCODING 958
SWIDTH 432 0
DWIDTH 12 0
BBX 12 26 2 -6
BITMAP
07F0
0FF0
1C00
1800
1800
1800
1E00
0FC0
0FC0
3C00
7000
6000
E000
C000
C000
C000
E000
F000
7E00
3F00
0380
0180
0180
0700
1E00
1000
ENDCHAR
STARTCHAR 03BF
ENCODING 959
SWIDTH 540 0
DWIDTH 15 0
BBX 14 15 1 0
BITMAP
03C0
0FF0
1E38
381C
301C
700C
600C
601C
E01C
E01C
E038
6038
7070
3FE0
1FC0
ENDCHAR
STARTCHAR 03C0
ENCODING 960
SWIDTH 684 0
DWIDTH 19 0
BBX 18 14 2 0
BITMAP
7FFFC0
FFFF80
1C0C00
1C1C00
181C00
181800
381800
381800
303800
303800
303000
703000
707000
607000
ENDCHAR
STARTCHAR 03C1
ENCODING 961
SWIDTH 576 0
DWIDTH 16 0
BBX 16 21 0 -6
BITMAP
00E0
03FC
079C
0E0E
0C06
1C06
1807
3806
3806
380E
380E
381C
7C38
7FF8
67E0
6000
E000
E000
E000
C000
C000
ENDCHAR
STARTCHAR 03C2
ENCODING 962
SWIDTH 504 0
DWIDTH 14 0
BBX 13 21 2 -6
BITMAP
01E0
0FF8
1E10
3800
7000
E000
C000
C000
C000
C000
C000
E000
7800
3C00
0F00
0700
0380
0380
0700
7F00
7800
ENDCHAR
STARTCHAR 03C3
ENCODING 963
SWIDTH 612 0
DWIDTH 17 0
BBX 17 15 1 0
BITMAP
038000
0FFF80
1E3F80
381800
301C00
701C00
601C00
601C00
E01C00
E01800
E03800
603800
707000
3FE000
1FC000
ENDCHAR
STARTCHAR 03C4
ENCODING 964
SWIDTH 360 0
DWIDTH 10 0
BBX 9 14 2 0
BITMAP
7F80
FF80
1C00
1C00
1800
1800
1800
3800
3800
3000
3000
7000
7000
6000
ENDCHAR
STARTCHAR 03C5
ENCODING 965
SWIDTH 540 0
DWIDTH 15 0
BBX 13 14 2 0
BITMAP
3018
7018
7038
7038
6030
6030
E030
E070
C070
C060
C0E0
E1C0
7FC0
3F00
ENDCHAR
STARTCHAR 03C6
ENCODING 966
SWIDTH 648 0
DWIDTH 18 0
BBX 16 21 2 -6
BITMAP
0630
1C7C
3CEE
70C6
61C7
E187
C187
C187
C386
C386
C30E
E31C
7338
7FF0
3FE0
0600
0600
0E00
0E00
0C00
0C00
ENDCHAR
STARTCHAR 03C7
ENCODING 967
SWIDTH 540 0
DWIDTH 15 0
BBX 18 20 -2 -6
BITMAP
0701C0
070380
030700
030600
038E00
019C00
01B800
01F000
00F000
01E000
01E000
03F000
073000
0E3000
0E3800
1C3800
381800
301C00
701C00
E00C00
ENDCHAR
STARTCHAR 03C8
ENCODING 968
SWIDTH 720 0
DWIDTH 20 0
BBX 18 20 2 -6
BITMAP
3060C0
70E0C0
70E1C0
70E1C0
60C180
60C180
E1C380
E1C380
E18300
C18300
E18700
638E00
7FFC00
3FF800
030000
030000
070000
070000
060000
060000
ENDCHAR
STARTCHAR 03C9
ENCODING 969
SWIDTH 792 0
DWIDTH 22 0
BBX 20 14 1 0
BITMAP
0C0070
1C0070
380030
303030
703030
707030
607030
606070
E06070
E0E060
E0E0E0
61B1C0
7FBF80
3E1F00
ENDCHAR
STARTCHAR 03CA
ENCODING 970
SWIDTH 216 0
DWIDTH 6 0
BBX 9 19 1 0
BITMAP
7380
6300
0000
0000
0000
1800
3800
3800
3000
3000
3000
7000
7000
6000
6000
6000
E000
E000
C000
ENDCHAR
STARTCHAR 03CB
ENCODING 971
SWIDTH 540 0
DWIDTH 15 0
BBX 13 19 2 0
BITMAP
0630
0E70
0000
0000
0000
3018
7018
7038
7038
6030
6030
E030
E070
C070
C060
C0E0
E1C0
7FC0
3F00
ENDCHAR
STARTCHAR 03CC
ENCODING 972
SWIDTH 540 0
DWIDTH 15 0
BBX 14 20 1 0
BITMAP
0070
00E0
00C0
0180
0000
03C0
0FF0
1E38
381C
301C
700C
600C
601C
E01C
E01C
E038
6038
7070
3FE0
1FC0
ENDCHAR
STARTCHAR 03CD
ENCODING 973
SWIDTH 540 0
DWIDTH 15 0
BBX 13 20 2 0
BITMAP
00E0
01C0
0180
0300
0000
0000
3018
7018
7038
7038
6030
6030
E030
E070
C070
C060
C0E0
E1C0
7FC0
3F00
ENDCHAR
STARTCHAR 03CE
ENCODING 974
SWIDTH 792 0
DWIDTH 22 0
BBX 20 20 1 0
BITMAP
000E00
001C00
001800
003000
000000
000000
0C0070
1C0070
380030
303030
703030
707030
607030
606070
E06070
E0E060
E0E0E0
61B1C0
7FBF80
3E1F00
ENDCHAR
STARTCHAR 0401
ENCODING 1025
SWIDTH 684 0
DWIDTH 19 0
BBX 19 24 1 0
BITMAP
00E700
00E700
00E700
000000
0FFFE0
0FFFC0
0E0000
0C0000
1C0000
1C0000
1C0000
1C0000
180000
3FFF00
3FFF00
380000
300000
300000
700000
700000
700000
600000
7FFF00
FFFF00
ENDCHAR
STARTCHAR 0402
ENCODING 1026
SWIDTH 828 0
DWIDTH 23 0
BBX 20 20 3 0
BITMAP
7FFF00
FFFF00
018000
038000
038000
038000
030000
030E00
07FFC0
07F3E0
0700E0
060070
0E0070
0E0070
0E0070
0C0060
0C00E0
1C01C0
1C7F80
1C7F00
ENDCHAR
STARTCHAR 0403
ENCODING 1027
SWIDTH 540 0
DWIDTH 15 0
BBX 17 25 1 0
BITMAP
003800
003000
006000
00C000
000000
0FFF80
0FFF80
0C0000
0C0000
1C0000
1C0000
1C0000
180000
180000
380000
380000
380000
300000
300000
700000
700000
700000
600000
E00000
E00000
ENDCHAR
STARTCHAR 0404
ENCODING 1028
SWIDTH 720 0
DWIDTH 20 0
BBX 17 20 3 0
BITMAP
03FC00
0FFE00
1E0F00
3C0380
380380
700180
600000
E00000
E00000
FFC000
FF8000
C00000
C00000
C00300
E00700
E00600
F00E00
781C00
3FF800
0FE000
ENDCHAR
STARTCHAR 0405
ENCODING 1029
SWIDTH 684 0
DWIDTH 19 0
BBX 17 20 2 0
BITMAP
03F800
0FFE00
1E0F00
180700
380380
380380
1C0000
1E0000
0F8000
07E000
01F800
007C00
001E00
600E00
E00600
E00600
E00E00
781C00
3FF800
1FF000
ENDCHAR
STARTCHAR 0406
ENCODING 1030
SWIDTH 288 0
DWIDTH 8 0
BBX 6 20 2 0
BITMAP
0C
1C
1C
1C
18
18
38
38
38
30
30
70
70
70
60
60
E0
E0
E0
C0
ENDCHAR
STARTCHAR 0407
ENCODING 1031
SWIDTH 288 0
DWIDTH 8 0
BBX 10 24 2 0
BITMAP
39C0
3180
3180
0000
0C00
1C00
1C00
1C00
1800
1800
3800
3800
3800
3000
3000
7000
7000
7000
6000
6000
E000
E000
E000
C000
ENDCHAR
STARTCHAR 0408
ENCODING 1032
SWIDTH 504 0
DWIDTH 14 0
BBX 14 20 1 0
BITMAP
001C
001C
0018
0018
0038
0038
0038
0030
0070
0070
0070
0070
0060
00E0
E0E0
C0E0
E0C0
E1C0
7F80
3F00
ENDCHAR
STARTCHAR 0409
ENCODING 1033
SWIDTH 1080 0
DWIDTH 30 0
BBX 29 20 0 0
BITMAP
01FFF000
01FFE000
0380E000
0380E000
0380E000
0300C000
0300C000
0701C000
0701C000
0701FFE0
0601FFF0
06038078
0E038038
0E038038
0E038038
0C030038
1C070070
1C0707E0
F807FFC0
F007FF00
ENDCHAR
STARTCHAR 040A
ENCODING 1034
SWIDTH 972 0
DWIDTH 27 0
BBX 26 20 1 0
BITMAP
0E070000
0E070000
0C070000
0C060000
1C060000
1C0E0000
1C0E0000
180E0000
180C0000
3FFFFF00
3FFFFF80
381C0380
301C01C0
301801C0
701801C0
70380380
70380380
60383F00
E03FFE00
E07FF800
ENDCHAR
STARTCHAR 040B
ENCODING 1035
SWIDTH 828 0
DWIDTH 23 0
BBX 19 20 3 0
BITMAP
7FFF00
FFFF00
018000
038000
038000
038000
030000
071F00
07FFC0
07F3E0
0700E0
060060
0E0060
0E0060
0E0060
0C00E0
0C00E0
1C00C0
1C00C0
1C01C0
ENDCHAR
STARTCHAR 040C
ENCODING 1036
SWIDTH 576 0
DWIDTH 16 0
BBX 18 25 1 0
BITMAP
003800
003000
006000
00C000
000000
0E03C0
0E0780
0E0E00
0C1C00
1C1800
1C3800
1C7000
1C7000
19E000
3F8000
3FC000
39C000
30E000
307000
707000
707000
703800
603800
E01C00
E01C00
ENDCHAR
STARTCHAR 040D
ENCODING 1037
SWIDTH 720 0
DWIDTH 20 0
BBX 20 25 1 0
BITMAP
007000
007000
003000
001800
000000
0E0070
0E00F0
0C01E0
0C03E0
0C07E0
1C07E0
1C0EE0
181CC0
1838C0
3871C0
38E1C0
39C180
338180
378380
770380
7E0380
7C0300
780300
F00700
E00700
ENDCHAR
STARTCHAR 040E
ENCODING 1038
SWIDTH 648 0
DWIDTH 18 0
BBX 18 25 3 0
BITMAP
061800
061800
03F000
01E000
000000
E001C0
600380
700300
700700
300E00
380E00
381C00
1C1800
1C3800
0C7000
0E6000
0EE000
06C000
07C000
078000
030000
070000
0E0000
7C0000
F80000
ENDCHAR
STARTCHAR 040F
ENCODING 1039
SWIDTH 720 0
DWIDTH 20 0
BBX 20 26 1 -6
BITMAP
0E0070
0E0070
0E0070
0C0060
0C0060
1C00E0
1C00E0
1C00E0
1800C0
3801C0
3801C0
3801C0
300180
300180
700380
700380
700380
600300
FFFF00
FFFF00
018000
018000
038000
030000
030000
030000
ENDCHAR
STARTCHAR 0410
ENCODING 1040
SWIDTH 684 0
DWIDTH 19 0
BBX 17 20 0 0
BITMAP
003C00
003C00
007C00
006C00
00EE00
00CE00
01CE00
018600
038600
070600
070700
0E0700
0FFF00
1FFF00
180300
380300
700380
700380
E00380
E00380
ENDCHAR
STARTCHAR 0411
ENCODING 1041
SWIDTH 648 0
DWIDTH 18 0
BBX 17 20 1 0
BITMAP
0FFF80
0FFF80
0E0000
0C0000
1C0000
1C0000
1C0000
180000
180000
3FFC00
3FFF00
380700
300300
300300
700300
700700
700F00
607E00
FFFC00
FFF000
ENDCHAR
STARTCHAR 0412
ENCODING 1042
SWIDTH 684 0
DWIDTH 19 0
BBX 17 20 1 0
BITMAP
0FFC00
0FFF00
0E0F80
0C0380
1C0180
1C0180
1C0380
180300
181F00
3FFC00
3FFE00
380700
300380
300380
700380
700300
700700
601E00
7FFC00
FFF800
ENDCHAR
STARTCHAR 0413
ENCODING 1043
SWIDTH 540 0
DWIDTH 15 0
BBX 17 20 1 0
BITMAP
0FFF80
0FFF80
0C0000
0C0000
1C0000
1C0000
1C0000
180000
180000
380000
380000
380000
300000
300000
700000
700000
700000
600000
E00000
E00000
ENDCHAR
STARTCHAR 0414
ENCODING 1044
SWIDTH 720 0
DWIDTH 20 0
BBX 22 24 -2 -4
BITMAP
007FFC
007FFC
00601C
00601C
00E018
00E018
00E038
00C038
01C038
01C030
018030
038070
038070
030060
070060
0600E0
0E00E0
1C00E0
7FFFF0
7FFFF0
600070
600070
600060
E00060
ENDCHAR
STARTCHAR 0415
ENCODING 1045
SWIDTH 684 0
DWIDTH 19 0
BBX 19 20 1 0
BITMAP
0FFFE0
0FFFC0
0E0000
0C0000
1C0000
1C0000
1C0000
1C0000
180000
3FFF00
3FFF00
380000
300000
300000
700000
700000
700000
600000
7FFF00
FFFF00
ENDCHAR
STARTCHAR 0416
ENCODING 1046
SWIDTH 900 0
DWIDTH 25 0
BBX 29 20 -1 0
BITMAP
0700C078
0781C0F8
03C1C1C0
01C18380
01C18380
00C38700
00C38600
00E38E00
00F33C00
007FF000
007FF800
01E73C00
03871C00
07060E00
07060E00
0E0E0700
1C0E0700
380E0700
700C0380
E01C0380
ENDCHAR
STARTCHAR 0417
ENCODING 1047
SWIDTH 612 0
DWIDTH 17 0
BBX 16 20 1 0
BITMAP
01F8
07FE
0F0E
0E07
1C07
1807
0007
000E
01FC
01F8
03F8
001C
000E
000E
E00E
600E
701C
383C
3FF8
0FE0
ENDCHAR
STARTCHAR 0418
ENCODING 1048
SWIDTH 720 0
DWIDTH 20 0
BBX 20 20 1 0
BITMAP
0E0070
0E00F0
0C01E0
0C03E0
0C07E0
1C07E0
1C0EE0
181CC0
1838C0
3871C0
38E1C0
39C180
338180
378380
770380
7E0380
7C0300
780300
F00700
E00700
ENDCHAR
STARTCHAR 0419
ENCODING 1049
SWIDTH 720 0
DWIDTH 20 0
BBX 20 25 1 0
BITMAP
004180
006300
007F00
003C00
000000
0E0070
0E00F0
0C01E0
0C03E0
0C07E0
1C07E0
1C0EE0
181CC0
1838C0
3871C0
38E1C0
39C180
338180
378380
770380
7E0380
7C0300
780300
F00700
E00700
ENDCHAR
STARTCHAR 041A
ENCODING 1050
SWIDTH 576 0
DWIDTH 16 0
BBX 18 20 1 0
BITMAP
0E03C0
0E0780
0E0E00
0C1C00
1C1800
1C3800
1C7000
1C7000
19E000
3F8000
3FC000
39C000
30E000
307000
707000
707000
703800
603800
E01C00
E01C00
ENDCHAR
STARTCHAR 041B
ENCODING 1051
SWIDTH 684 0
DWIDTH 19 0
BBX 20 20 0 0
BITMAP
01FFF0
01FFF0
018070
038060
0380E0
0300E0
0300E0
0700C0
0700C0
0701C0
0601C0
0601C0
0E0180
0E0180
0E0380
0C0380
1C0380
1C0300
F80700
F00700
ENDCHAR
STARTCHAR 041C
ENCODING 1052
SWIDTH 828 0
DWIDTH 23 0
BBX 23 20 1 0
BITMAP
0F000E
0F001E
0F001E
0F003E
1F007C
1F006C
1F80FC
1980DC
1981D8
398198
398338
398738
31C638
31CE30
70CC30
70DC70
70D870
60F070
60F060
E0E060
ENDCHAR
STARTCHAR 041D
ENCODING 1053
SWIDTH 720 0
DWIDTH 20 0
BBX 20 20 1 0
BITMAP
0E0070
0E0070
0C0060
0C0060
1C00E0
1C00E0
1C00E0
1800C0
1FFFC0
3FFFC0
3FFFC0
3801C0
300180
300380
700380
700380
700380
600300
E00700
E00700
ENDCHAR
STARTCHAR 041E
ENCODING 1054
SWIDTH 792 0
DWIDTH 22 0
BBX 18 20 3 0
BITMAP
03FC00
0FFE00
1E0F00
3C0380
3801C0
7001C0
E000C0
E000C0
E000C0
C000C0
C000C0
C001C0
C001C0
C001C0
E00380
E00700
700F00
781E00
3FFC00
0FF000
ENDCHAR
STARTCHAR 041F
ENCODING 1055
SWIDTH 720 0
DWIDTH 20 0
BBX 20 20 1 0
BITMAP
0FFFF0
0FFFF0
0E0060
0C0060
1C00E0
1C00E0
1C00E0
1C00C0
1800C0
3801C0
3801C0
3801C0
300180
300180
700380
700380
700380
600300
E00700
E00700
ENDCHAR
STARTCHAR 0420
ENCODING 1056
SWIDTH 684 0
DWIDTH 19 0
BBX 18 20 1 0
BITMAP
0FFE00
0FFF80
0E03C0
0C01C0
1C00C0
1C00C0
1C00C0
1801C0
180380
380F80
3FFF00
3FF800
300000
300000
700000
700000
700000
600000
600000
E00000
ENDCHAR
STARTCHAR 0421
ENCODING 1057
SWIDTH 720 0
DWIDTH 20 0
BBX 17 20 3 0
BITMAP
03FC00
0FFE00
1E0F00
3C0380
380380
700180
600000
E00000
E00000
C00000
C00000
C00000
C00000
C00300
E00700
E00600
F00E00
783C00
3FF800
1FE000
ENDCHAR
STARTCHAR 0422
ENCODING 1058
SWIDTH 612 0
DWIDTH 17 0
BBX 16 20 4 0
BITMAP
FFFF
FFFE
0380
0300
0300
0700
0700
0700
0600
0E00
0E00
0E00
0E00
0C00
1C00
1C00
1C00
1800
1800
3800
ENDCHAR
STARTCHAR 0423
ENCODING 1059
SWIDTH 648 0
DWIDTH 18 0
BBX 18 20 3 0
BITMAP
E001C0
600380
700300
700700
300E00
380E00
381C00
1C1800
1C3800
0C7000
0E6000
0EE000
06C000
07C000
078000
030000
070000
0E0000
7C0000
F80000
ENDCHAR
STARTCHAR 0424
ENCODING 1060
SWIDTH 792 0
DWIDTH 22 0
BBX 20 20 2 0
BITMAP
001800
001800
01FF00
0FFFC0
1F31E0
3C30E0
387070
707070
707070
E06070
E06070
E0E060
E0E0E0
60E1E0
70C3C0
3FDF80
1FFE00
07F000
018000
018000
ENDCHAR
STARTCHAR 0425
ENCODING 1061
SWIDTH 684 0
DWIDTH 19 0
BBX 21 20 0 0
BITMAP
1C0038
0E0070
0E00E0
0701C0
070380
038700
01CE00
01DC00
00FC00
00F800
00F000
01F000
03F800
079C00
0F1C00
1E0E00
3C0E00
780700
700700
E00380
ENDCHAR
STARTCHAR 0426
ENCODING 1062
SWIDTH 720 0
DWIDTH 20 0
BBX 20 24 1 -4
BITMAP
0E0070
0E0070
0E0070
0C0060
1C00E0
1C00E0
1C00E0
1800E0
1800C0
3801C0
3801C0
3801C0
300180
300180
700380
700380
700380
600300
FFFFC0
FFFFC0
0001C0
000180
000180
000180
ENDCHAR
STARTCHAR 0427
ENCODING 1063
SWIDTH 684 0
DWIDTH 19 0
BBX 17 20 3 0
BITMAP
700380
700300
700300
600700
600700
E00700
E00600
E00600
E00E00
E00E00
F03C00
7FFC00
3FDC00
001C00
001C00
001800
001800
003800
003800
003800
ENDCHAR
STARTCHAR 0428
ENCODING 1064
SWIDTH 936 0
DWIDTH 26 0
BBX 25 20 1 0
BITMAP
0E030180
0E070180
0E070380
0C070380
0C060380
1C060300
1C0E0300
1C0E0700
180E0700
380C0700
381C0600
381C0E00
301C0E00
30180E00
70180C00
70380C00
70381C00
60381C00
FFFFFC00
FFFFF800
ENDCHAR
STARTCHAR 0429
ENCODING 1065
SWIDTH 936 0
DWIDTH 26 0
BBX 25 24 1 -4
BITMAP
0E030180
0E070180
0E070380
0C070380
0C060380
1C060300
1C0E0300
1C0E0700
180E0700
380C0700
381C0600
381C0E00
301C0E00
30180E00
70180C00
70380C00
70381C00
60381C00
FFFFFE00
FFFFFE00
00000600
00000E00
00000E00
00000C00
ENDCHAR
STARTCHAR 042A
ENCODING 1066
SWIDTH 792 0
DWIDTH 22 0
BBX 19 20 3 0
BITMAP
7F8000
FF8000
038000
038000
030000
030000
070000
070000
070000
07FF80
07FFC0
0E01C0
0E00E0
0C00E0
0C00E0
1C01C0
1C01C0
1C1F80
1FFF00
1FFC00
ENDCHAR
STARTCHAR 042B
ENCODING 1067
SWIDTH 900 0
DWIDTH 25 0
BBX 25 20 1 0
BITMAP
0E000380
0E000300
0E000700
0C000700
1C000700
1C000600
1C000600
18000E00
18000E00
3FFC0E00
3FFF0C00
38070C00
30031C00
30031C00
70031C00
70071800
700F3800
607E3800
FFFC3800
FFF03000
ENDCHAR
STARTCHAR 042C
ENCODING 1068
SWIDTH 648 0
DWIDTH 18 0
BBX 16 20 1 0
BITMAP
0E00
0E00
0E00
0C00
1C00
1C00
1C00
1800
1800
3FFC
3FFF
3807
3003
3003
7003
7007
700F
607E
FFFC
FFF0
ENDCHAR
STARTCHAR 042D
ENCODING 1069
SWIDTH 684 0
DWIDTH 19 0
BBX 18 20 1 0
BITMAP
01FC00
07FE00
0F0F00
1C0380
3801C0
3801C0
0001C0
0001C0
0001C0
00FFC0
00FFC0
0001C0
000180
600380
E00380
600700
700E00
381E00
3FF800
0FF000
ENDCHAR
STARTCHAR 042E
ENCODING 1070
SWIDTH 1008 0
DWIDTH 28 0
BBX 27 20 1 0
BITMAP
0E00FE00
0E03FF00
0E0F8780
0C0E01C0
1C1C00C0
1C3800E0
1C3800E0
187000E0
187000E0
3FF000E0
3FF000E0
386000E0
307000E0
307001C0
707001C0
70300380
70380780
601E0F00
E00FFE00
E007F800
ENDCHAR
STARTCHAR 042F
ENCODING 1071
SWIDTH 684 0
DWIDTH 19 0
BBX 20 20 0 0
BITMAP
00FFF0
03FFF0
07F060
0E0060
0C00E0
1C00E0
1C00E0
1C00C0
0E00C0
07FFC0
03FFC0
01E1C0
038180
070180
0F0380
1E0380
3C0300
780300
700700
E00700
ENDCHAR
STARTCHAR 0430
ENCODING 1072
SWIDTH 540 0
DWIDTH 15 0
BBX 14 15 1 0
BITMAP
01C0
0FF0
1C38
381C
301C
001C
01F8
3FF8
7C38
6038
E030
E070
E0F0
7FB0
3F30
ENDCHAR
STARTCHAR 0431
ENCODING 1073
SWIDTH 576 0
DWIDTH 16 0
BBX 14 20 2 0
BITMAP
00FC
0FFC
1FF0
1800
3000
3000
7FE0
7FF0
7838
F038
E018
E018
C018
C038
C038
C030
E070
E0E0
7FC0
3F80
ENDCHAR
STARTCHAR 0432
ENCODING 1074
SWIDTH 540 0
DWIDTH 15 0
BBX 13 15 1 0
BITMAP
01C0
0FF0
1E38
3818
3018
7038
73F0
7FC0
E3E0
E070
E030
6030
7070
3FE0
1FC0
ENDCHAR
STARTCHAR 0433
ENCODING 1075
SWIDTH 504 0
DWIDTH 14 0
BBX 12 15 1 0
BITMAP
0780
1FE0
3CF0
3030
0030
0070
01E0
1FC0
7E00
7000
E000
E070
E060
7FC0
3F80
ENDCHAR
STARTCHAR 0434
ENCODING 1076
SWIDTH 540 0
DWIDTH 15 0
BBX 14 20 1 0
BITMAP
07E0
07F0
0038
001C
000C
03CC
0FEC
1E3C
381C
301C
701C
600C
601C
E01C
E018
E038
6030
7070
3FE0
1F80
ENDCHAR
STARTCHAR 0435
ENCODING 1077
SWIDTH 540 0
DWIDTH 15 0
BBX 14 15 1 0
BITMAP
0180
0FF0
1E38
3818
301C
701C
601C
7FFC
E000
E000
6038
6030
7070
3FE0
1F80
ENDCHAR
STARTCHAR 0436
ENCODING 1078
SWIDTH 684 0
DWIDTH 19 0
BBX 20 14 0 0
BITMAP
1C3870
0C30C0
063180
063380
067300
077600
03FC00
076E00
0CE700
1CE300
38C300
70C380
E0C180
E1C1C0
ENDCHAR
STARTCHAR 0437
ENCODING 1079
SWIDTH 468 0
DWIDTH 13 0
BBX 12 15 1 0
BITMAP
0780
1FE0
38E0
3070
0070
0060
01E0
0780
0FC0
00E0
00E0
C0E0
E0C0
FFC0
3F80
ENDCHAR
STARTCHAR 0438
ENCODING 1080
SWIDTH 540 0
DWIDTH 15 0
BBX 13 14 2 0
BITMAP
3018
3018
7038
7038
6030
6030
E030
E070
E070
C060
C0E0
C1E0
FF60
7CE0
ENDCHAR
STARTCHAR 0439
ENCODING 1081
SWIDTH 540 0
DWIDTH 15 0
BBX 13 20 2 0
BITMAP
0C10
0670
07E0
0000
0000
0000
3018
3018
7038
7038
6030
6030
E030
E070
E070
C060
C0E0
C1E0
FF60
7CE0
ENDCHAR
STARTCHAR 043A
ENCODING 1082
SWIDTH 468 0
DWIDTH 13 0
BBX 13 14 1 0
BITMAP
1838
1878
38E0
38C0
3180
3380
7E00
7700
6380
6180
61C0
E1C0
E0C0
C0E0
ENDCHAR
STARTCHAR 043B
ENCODING 1083
SWIDTH 576 0
DWIDTH 16 0
BBX 16 14 0 0
BITMAP
07FF
07FE
0E06
0E06
0C0E
0C0E
1C0C
1C0C
180C
181C
181C
3818
F018
F038
ENDCHAR
STARTCHAR 043C
ENCODING 1084
SWIDTH 684 0
DWIDTH 19 0
BBX 18 14 1 0
BITMAP
1E03C0
1E03C0
3E07C0
3E0F80
360D80
361980
761B80
773380
637300
636300
63C700
E3C700
E38600
C38600
ENDCHAR
STARTCHAR 043D
ENCODING 1085
SWIDTH 540 0
DWIDTH 15 0
BBX 14 14 1 0
BITMAP
180C
180C
381C
381C
3018
3018
7FF8
7FF8
6038
6030
6030
E070
E070
C060
ENDCHAR
STARTCHAR 043E
ENCODING 1086
SWIDTH 540 0
DWIDTH 15 0
BBX 14 15 1 0
BITMAP
03C0
0FF0
1E38
381C
301C
700C
600C
601C
E01C
E01C
E038
6038
7070
3FE0
1FC0
ENDCHAR
STARTCHAR 043F
ENCODING 1087
SWIDTH 540 0
DWIDTH 15 0
BBX 14 14 1 0
BITMAP
1FFC
1FFC
381C
381C
3018
3018
7018
7038
6038
6030
6030
E070
E070
C060
ENDCHAR
STARTCHAR 0440
ENCODING 1088
SWIDTH 540 0
DWIDTH 15 0
BBX 15 21 0 -6
BITMAP
0060
0DF8
1F3C
1E0E
1C0E
180E
180E
380E
380E
380C
381C
3818
7C38
7FF0
67E0
6000
6000
E000
E000
C000
C000
ENDCHAR
STARTCHAR 0441
ENCODING 1089
SWIDTH 504 0
DWIDTH 14 0
BBX 12 15 2 0
BITMAP
0380
1FE0
3CF0
7070
6030
E000
E000
C000
C000
C000
C060
C0E0
E1C0
7F80
3F00
ENDCHAR
STARTCHAR 0442
ENCODING 1090
SWIDTH 828 0
DWIDTH 23 0
BBX 22 15 1 0
BITMAP
00E070
1BF1F8
1F3B38
3C1C1C
381C18
383818
303818
703038
703038
703030
607030
607030
E06070
E06070
C0E060
ENDCHAR
STARTCHAR 0443
ENCODING 1091
SWIDTH 504 0
DWIDTH 14 0
BBX 15 20 0 -6
BITMAP
1806
180E
181C
1C18
1C38
1C30
0C70
0C60
0CE0
0CC0
0F80
0F80
0700
0700
0600
0E00
1C00
F800
F800
E000
ENDCHAR
STARTCHAR 0444
ENCODING 1092
SWIDTH 828 0
DWIDTH 23 0
BBX 22 26 1 -6
BITMAP
000E00
000E00
000C00
000C00
000C00
039CC0
0FDFF0
1CFF38
383C1C
30381C
70381C
60381C
60301C
E0301C
E07018
E07038
E07030
70F870
7FEFE0
3FEFC0
00E000
00C000
00C000
00C000
01C000
01C000
ENDCHAR
STARTCHAR 0445
ENCODING 1093
SWIDTH 504 0
DWIDTH 14 0
BBX 14 14 0 0
BITMAP
1C1C
0C38
0E38
0670
07E0
03C0
0380
0380
07C0
0EC0
1CE0
3860
7070
E030
ENDCHAR
STARTCHAR 0446
ENCODING 1094
SWIDTH 576 0
DWIDTH 16 0
BBX 13 18 2 -4
BITMAP
3018
3018
7038
7038
6030
6030
E070
E070
C070
C060
C0E0
C1E0
FF78
7C78
0018
0018
0030
0030
ENDCHAR
STARTCHAR 0447
ENCODING 1095
SWIDTH 504 0
DWIDTH 14 0
BBX 12 14 2 0
BITMAP
6030
6030
6070
E070
E060
E060
E060
7FE0
3FE0
00C0
00C0
00C0
01C0
01C0
ENDCHAR
STARTCHAR 0448
ENCODING 1096
SWIDTH 828 0
DWIDTH 23 0
BBX 21 14 2 0
BITMAP
303818
303038
703038
703030
607030
607070
E06070
E06060
C0E060
C0E0E0
C1E0E0
C3E3E0
FEFEC0
7C7CC0
ENDCHAR
STARTCHAR 0449
ENCODING 1097
SWIDTH 864 0
DWIDTH 24 0
BBX 21 18 2 -4
BITMAP
303818
303038
703038
703030
607030
607070
E06070
E06060
C0E060
C0E0E0
C1E0E0
C3E3E0
FEFFF8
7C7E78
000018
000038
000030
000030
ENDCHAR
STARTCHAR 044A
ENCODING 1098
SWIDTH 612 0
DWIDTH 17 0
BBX 14 14 2 0
BITMAP
FE00
FE00
0C00
0C00
0C00
1FF0
1FF8
181C
180C
380C
380C
301C
3FF8
3FF0
ENDCHAR
STARTCHAR 044B
ENCODING 1099
SWIDTH 720 0
DWIDTH 20 0
BBX 19 14 1 0
BITMAP
180060
180060
380060
3800E0
3000E0
3FC0C0
7FF0C0
7071C0
6039C0
603980
603180
E07180
FFE380
FFC380
ENDCHAR
STARTCHAR 044C
ENCODING 1100
SWIDTH 540 0
DWIDTH 15 0
BBX 13 14 1 0
BITMAP
1800
1800
3800
3800
3000
3FC0
7FF0
7070
6038
6038
6030
E070
FFE0
FFC0
ENDCHAR
STARTCHAR 044D
ENCODING 1101
SWIDTH 504 0
DWIDTH 14 0
BBX 12 15 1 0
BITMAP
0300
1FE0
3CE0
3070
7030
0030
0030
07F0
07F0
0070
0060
C0E0
E1C0
7FC0
3F00
ENDCHAR
STARTCHAR 044E
ENCODING 1102
SWIDTH 756 0
DWIDTH 21 0
BBX 19 15 1 0
BITMAP
000F00
183FC0
1879E0
38E0E0
38C060
31C060
31C060
7F8060
7F8060
6180E0
6180E0
6181C0
E1C180
E0FF80
C07E00
ENDCHAR
STARTCHAR 044F
ENCODING 1103
SWIDTH 540 0
DWIDTH 15 0
BBX 15 14 0 0
BITMAP
0FFE
1FFE
180C
380C
380C
181C
1FFC
0FF8
0E18
1C38
3838
3030
7030
E030
ENDCHAR
STARTCHAR 0451
ENCODING 1105
SWIDTH 540 0
DWIDTH 15 0
BBX 14 19 1 0
BITMAP
0738
0738
0000
0000
0180
0FF0
1E38
3818
301C
701C
601C
7FFC
E000
E000
6038
6030
7070
3FE0
1F80
ENDCHAR
STARTCHAR 0452
ENCODING 1106
SWIDTH 540 0
DWIDTH 15 0
BBX 14 26 1 -6
BITMAP
0C00
0C00
3FE0
3FE0
1C00
1860
19F8
1F3C
3C1C
381C
3818
3018
7018
7038
7038
6030
6030
E030
E070
E070
0060
0060
00E0
05E0
07C0
0780
ENDCHAR
STARTCHAR 0453
ENCODING 1107
SWIDTH 396 0
DWIDTH 11 0
BBX 11 20 1 0
BITMAP
01C0
0380
0300
0600
0000
0000
1FE0
1FE0
3800
3800
3000
3000
7000
7000
6000
6000
6000
E000
E000
C000
ENDCHAR
STARTCHAR 0454
ENCODING 1108
SWIDTH 504 0
DWIDTH 14 0
BBX 13 15 1 0
BITMAP
0380
0FF0
1C70
3838
7038
7000
6000
7E00
FE00
E000
E070
6060
70E0
7FC0
1F80
ENDCHAR
STARTCHAR 0455
ENCODING 1109
SWIDTH 504 0
DWIDTH 14 0
BBX 13 15 1 0
BITMAP
0380
0FE0
1C70
3838
3838
3C00
1F00
0FC0
03E0
00F0
E070
E070
7070
7FE0
3FC0
ENDCHAR
STARTCHAR 0456
ENCODING 1110
SWIDTH 216 0
DWIDTH 6 0
BBX 6 20 1 0
BITMAP
0C
0C
1C
00
00
00
18
38
38
30
30
30
70
70
60
60
60
E0
E0
C0
ENDCHAR
STARTCHAR 0457
ENCODING 1111
SWIDTH 216 0
DWIDTH 6 0
BBX 8 19 1 0
BITMAP
63
63
00
00
00
18
38
38
30
30
30
70
70
60
60
60
E0
E0
C0
ENDCHAR
STARTCHAR 0458
ENCODING 1112
SWIDTH 216 0
DWIDTH 6 0
BBX 10 26 -3 -6
BITMAP
00C0
00C0
01C0
0000
0000
0000
0180
0380
0380
0300
0300
0300
0700
0700
0600
0600
0600
0E00
0E00
0C00
0C00
1C00
1C00
B800
F800
E000
ENDCHAR
STARTCHAR 0459
ENCODING 1113
SWIDTH 900 0
DWIDTH 25 0
BBX 24 14 0 0
BITMAP
07FF80
07FF80
060300
060300
0E0300
0E07FC
0C07FE
0C0607
0C0603
1C0E03
1C0E03
180C07
F80FFE
F00FFC
ENDCHAR
STARTCHAR 045A
ENCODING 1114
SWIDTH 828 0
DWIDTH 23 0
BBX 21 14 1 0
BITMAP
181C00
181800
381800
381800
303800
3FFFC0
7FFFF0
703038
607038
607018
606038
E06070
E07FF0
C0FFC0
ENDCHAR
STARTCHAR 045B
ENCODING 1115
SWIDTH 540 0
DWIDTH 15 0
BBX 14 20 1 0
BITMAP
0C00
0C00
3FE0
3FE0
1C00
1860
19F8
1F3C
3C1C
381C
3818
3018
7018
7038
7038
6030
6030
E030
E070
E070
ENDCHAR
STARTCHAR 045C
ENCODING 1116
SWIDTH 468 0
DWIDTH 13 0
BBX 13 20 1 0
BITMAP
0070
0060
00C0
01C0
0000
0000
1838
1878
38E0
38C0
3180
3380
7E00
7700
6380
6180
61C0
E1C0
E0C0
C0E0
ENDCHAR
STARTCHAR 045D
ENCODING 1117
SWIDTH 540 0
DWIDTH 15 0
BBX 13 20 2 0
BITMAP
0700
0300
0380
0180
0000
0000
3018
3018
7038
7038
6030
6030
E030
E070
E070
C060
C0E0
C1E0
FF60
7CE0
ENDCHAR
STARTCHAR 045E
ENCODING 1118
SWIDTH 504 0
DWIDTH 14 0
BBX 15 26 0 -6
BITMAP
0608
0318
03F0
0000
0000
0000
1806
180E
181C
1C18
1C38
1C30
0C70
0C60
0CE0
0CC0
0F80
0F80
0700
0700
0600
0E00
1C00
F800
F800
E000
ENDCHAR
STARTCHAR 045F
ENCODING 1119
SWIDTH 540 0
DWIDTH 15 0
BBX 13 20 2 -6
BITMAP
3018
7018
7038
7038
6030
6030
E030
E070
C070
C060
C0E0
C1E0
FFE0
7CE0
3000
3000
3000
3000
6000
6000
ENDCHAR
STARTCHAR 0490
ENCODING 1168
SWIDTH 504 0
DWIDTH 14 0
BBX 17 24 1 0
BITMAP
000380
000300
000300
000300
0FFF00
0FFF00
0C0000
0C0000
1C0000
1C0000
1C0000
180000
180000
380000
380000
380000
300000
300000
700000
700000
700000
600000
E00000
E00000
ENDCHAR
STARTCHAR 0491
ENCODING 1169
SWIDTH 324 0
DWIDTH 9 0
BBX 11 18 1 0
BITMAP
0060
0060
0060
00C0
1FC0
1FC0
3800
3800
3000
3000
7000
7000
6000
6000
6000
E000
E000
C000
ENDCHAR
STARTCHAR 0492
ENCODING 1170
SWIDTH 540 0
DWIDTH 15 0
BBX 17 20 1 0
BITMAP
0FFF80
0FFF80
0C0000
0C0000
1C0000
1C0000
1C0000
180000
180000
FFC000
FFC000
380000
300000
300000
700000
700000
700000
600000
E00000
E00000
ENDCHAR
STARTCHAR 0493
ENCODING 1171
SWIDTH 396 0
DWIDTH 11 0
BBX 11 14 1 0
BITMAP
1FE0
1FE0
3800
3800
3000
FE00
FE00
7000
7000
6000
6000
6000
E000
E000
ENDCHAR
STARTCHAR 0496
ENCODING 1174
SWIDTH 900 0
DWIDTH 25 0
BBX 29 26 -1 -6
BITMAP
0780C078
0781C0F8
03C1C1C0
01C18380
01C18380
00C38700
00C38600
00E38E00
00733C00
007FF000
007FF800
01E73C00
03871C00
07060E00
07060E00
0E0E0600
1C0E0700
380E0700
700C03C0
E01C0380
00000180
00000180
00000380
00000380
00000300
00000300
ENDCHAR
STARTCHAR 0497
ENCODING 1175
SWIDTH 684 0
DWIDTH 19 0
BBX 20 18 0 -4
BITMAP
1C3870
0C30C0
063180
063380
067300
077600
03FC00
076E00
0CE700
1CE300
38C300
70C380
E0C1C0
E1C1C0
0000C0
000180
000180
000180
ENDCHAR
STARTCHAR 049A
ENCODING 1178
SWIDTH 576 0
DWIDTH 16 0
BBX 18 26 1 -6
BITMAP
0E03C0
0E0780
0E0E00
0C1C00
1C1800
1C3800
1C7000
1C7000
19E000
3F8000
3FC000
39C000
30E000
307000
707000
707000
703800
603800
E01C00
E01C00
000C00
001C00
001C00
001800
001800
001800
ENDCHAR
STARTCHAR 049B
ENCODING 1179
SWIDTH 468 0
DWIDTH 13 0
BBX 13 18 1 -4
BITMAP
1838
1878
38E0
38C0
3180
3300
7E00
7700
6380
6180
61C0
E1C0
E0E0
C0E0
0060
0060
00C0
00C0
ENDCHAR
STARTCHAR 049C
ENCODING 1180
SWIDTH 576 0
DWIDTH 16 0
BBX 18 20 1 0
BITMAP
0E03C0
0E0780
0E0E00
0CDC00
1C9800
1CB800
1DF000
1DF000
19E000
3F8000
3FC000
3BC000
33E000
327000
727000
767000
763800
603800
E01C00
E01C00
ENDCHAR
STARTCHAR 049D
ENCODING 1181
SWIDTH 468 0
DWIDTH 13 0
BBX 13 14 1 0
BITMAP
1838
1878
3AE0
3AC0
3380
3700
7E00
7700
6780
6580
6DC0
E1C0
E0C0
C0E0
ENDCHAR
STARTCHAR 04A2
ENCODING 1186
SWIDTH 720 0
DWIDTH 20 0
BBX 20 26 1 -6
BITMAP
0E0070
0E0070
0E0060
0C0060
1C00E0
1C00E0
1C00E0
1800C0
1FFFC0
3FFFC0
3FFFC0
3801C0
300180
300180
700380
700380
700380
600300
E007C0
E007C0
000180
000180
000180
000380
000380
000300
ENDCHAR
STARTCHAR 04A3
ENCODING 1187
SWIDTH 540 0
DWIDTH 15 0
BBX 14 18 1 -4
BITMAP
180C
180C
380C
381C
301C
3018
7FF8
7FF8
6038
6030
6030
E030
E078
C078
0018
0018
0018
0030
ENDCHAR
STARTCHAR 04AE
ENCODING 1198
SWIDTH 540 0
DWIDTH 15 0
BBX 15 20 3 0
BITMAP
E00E
601C
701C
7038
3070
3870
38E0
19C0
1D80
0F80
0F00
0E00
0E00
0C00
0C00
0C00
1C00
1C00
1800
1800
ENDCHAR
STARTCHAR 04AF
ENCODING 1199
SWIDTH 504 0
DWIDTH 14 0
BBX 13 20 2 -6
BITMAP
E038
E030
6070
6060
70E0
70C0
7180
7380
3300
3700
3600
3E00
3C00
1800
3800
3800
3000
3000
3000
7000
ENDCHAR
STARTCHAR 04B0
ENCODING 1200
SWIDTH 540 0
DWIDTH 15 0
BBX 16 20 2 0
BITMAP
7007
300E
380E
381C
1838
1C30
0C70
0CE0
0EC0
0780
FFFC
FFF8
0700
0600
0600
0600
0E00
0E00
0C00
0C00
ENDCHAR
STARTCHAR 04B1
ENCODING 1201
SWIDTH 504 0
DWIDTH 14 0
BBX 15 20 0 -6
BITMAP
380E
380C
181C
1818
1C38
1C30
1C60
1CE0
0CC0
0DC0
0D80
0F80
0F00
0600
FFE0
FFE0
0C00
0C00
0C00
1C00
ENDCHAR
STARTCHAR 04B2
ENCODING 1202
SWIDTH 684 0
DWIDTH 19 0
BBX 21 26 0 -6
BITMAP
1C0038
0E0070
0E00E0
0701C0
070380
038700
01CE00
01DC00
00FC00
00F800
00F000
01F000
03F800
079C00
0F1C00
1E0E00
3C0E00
780700
7007C0
E00380
000180
000180
000380
000300
000300
000300
ENDCHAR
STARTCHAR 04B3
ENCODING 1203
SWIDTH 504 0
DWIDTH 14 0
BBX 14 18 0 -4
BITMAP
1C1C
0C38
0E38
0670
07E0
03C0
0380
0380
07C0
0EC0
1CE0
3860
7078
E038
0030
0030
0030
0030
ENDCHAR
STARTCHAR 04B8
ENCODING 1208
SWIDTH 684 0
DWIDTH 19 0
BBX 17 20 3 0
BITMAP
700380
700300
700700
600700
E00700
E18600
E18600
E10E00
E30E00
E30E00
F33C00
7FFC00
3FDC00
061C00
061C00
061800
043800
003800
003800
003000
ENDCHAR
STARTCHAR 04B9
ENCODING 1209
SWIDTH 504 0
DWIDTH 14 0
BBX 12 14 2 0
BITMAP
6030
E030
E070
E470
C470
E460
EDE0
7FE0
3EE0
08C0
08C0
18C0
01C0
01C0
ENDCHAR
STARTCHAR 04BA
ENCODING 1210
SWIDTH 684 0
DWIDTH 19 0
BBX 16 20 2 0
BITMAP
0C00
0C00
1C00
1C00
1C00
1800
3800
39FC
3FFF
3E0F
3007
7003
7003
7007
6007
6007
E006
E006
E00E
C00E
ENDCHAR
STARTCHAR 04BB
ENCODING 1211
SWIDTH 540 0
DWIDTH 15 0
BBX 14 20 1 0
BITMAP
0C00
0C00
0C00
1C00
1C00
1860
1BF8
1F3C
3C1C
381C
3818
3018
7018
7038
7038
6030
6030
E030
E070
C070
ENDCHAR
STARTCHAR 04D8
ENCODING 1240
SWIDTH 792 0
DWIDTH 22 0
BBX 18 20 3 0
BITMAP
03FC00
07FE00
0E0F00
1C0780
380380
700180
0001C0
0001C0
0001C0
FFFFC0
FFFFC0
C00180
C00380
C00380
E00700
E00700
E00E00
783C00
3FF800
1FE000
ENDCHAR
STARTCHAR 04D9
ENCODING 1241
SWIDTH 540 0
DWIDTH 15 0
BBX 13 15 2 0
BITMAP
0380
1FE0
3CF0
7030
6038
0038
0038
FFF8
FFF8
C030
C030
C070
E0E0
7FC0
3F80
ENDCHAR
STARTCHAR 04E8
ENCODING 1256
SWIDTH 792 0
DWIDTH 22 0
BBX 18 20 3 0
BITMAP
03FC00
0FFE00
1E0F00
3C0380
3801C0
7001C0
6000C0
E000C0
E000C0
FFFFC0
FFFFC0
C001C0
C001C0
C001C0
E00380
E00780
700F00
781E00
3FFC00
0FF000
ENDCHAR
STARTCHAR 04E9
ENCODING 1257
SWIDTH 540 0
DWIDTH 15 0
BBX 14 15 1 0
BITMAP
03C0
0FF0
1E38
381C
301C
700C
7FFC
7FFC
E01C
E01C
E038
6038
7070
3FE0
1FC0
ENDCHAR
STARTCHAR 05B0
ENCODING 1456
SWIDTH 324 0
DWIDTH 9 0
BBX 3 5 2 -9
BITMAP
60
60
00
40
C0
ENDCHAR
STARTCHAR 05B1
ENCODING 1457
SWIDTH 324 0
DWIDTH 9 0
BBX 8 5 0 -9
BITMAP
DB
DB
00
42
E6
ENDCHAR
STARTCHAR 05B2
ENCODING 1458
SWIDTH 324 0
DWIDTH 9 0
BBX 8 5 0 -9
BITMAP
F3
02
00
06
06
ENDCHAR
STARTCHAR 05B3
ENCODING 1459
SWIDTH 324 0
DWIDTH 9 0
BBX 8 5 0 -9
BITMAP
F3
62
60
06
06
ENDCHAR
STARTCHAR 05B4
ENCODING 1460
SWIDTH 324 0
DWIDTH 9 0
BBX 2 2 3 -5
BITMAP
C0
C0
ENDCHAR
STARTCHAR 05B5
ENCODING 1461
SWIDTH 324 0
DWIDTH 9 0
BBX 6 2 1 -5
BITMAP
CC
D8
ENDCHAR
STARTCHAR 05B6
ENCODING 1462
SWIDTH 324 0
DWIDTH 9 0
BBX 6 5 1 -9
BITMAP
CC
D8
00
20
60
ENDCHAR
STARTCHAR 05B7
ENCODING 1463
SWIDTH 324 0
DWIDTH 9 0
BBX 6 1 1 -4
BITMAP
FC
ENDCHAR
STARTCHAR 05B8
ENCODING 1464
SWIDTH 324 0
DWIDTH 9 0
BBX 6 4 1 -7
BITMAP
FC
20
20
60
ENDCHAR
STARTCHAR 05B9
ENCODING 1465
SWIDTH 324 0
DWIDTH 9 0
BBX 2 2 7 16
BITMAP
C0
C0
ENDCHAR
STARTCHAR 05BA
ENCODING 1466
SWIDTH 324 0
DWIDTH 9 0
BBX 2 2 7 16
BITMAP
C0
C0
ENDCHAR
STARTCHAR 05BB
ENCODING 1467
SWIDTH 324 0
DWIDTH 9 0
BBX 8 5 -1 -9
BITMAP
60
C0
1C
19
03
ENDCHAR
STARTCHAR 05BC
ENCODING 1468
SWIDTH 324 0
DWIDTH 9 0
BBX 2 2 5 7
BITMAP
40
C0
ENDCHAR
STARTCHAR 05BD
ENCODING 1469
SWIDTH 324 0
DWIDTH 9 0
BBX 3 5 2 -8
BITMAP
60
40
40
40
C0
ENDCHAR
STARTCHAR 05BE
ENCODING 1470
SWIDTH 396 0
DWIDTH 11 0
BBX 8 2 4 12
BITMAP
7F
FF
ENDCHAR
STARTCHAR 05BF
ENCODING 1471
SWIDTH 324 0
DWIDTH 9 0
BBX 5 1 6 17
BITMAP
F8
ENDCHAR
STARTCHAR 05C0
ENCODING 1472
SWIDTH 288 0
DWIDTH 8 0
BBX 5 17 3 0
BITMAP
18
18
18
18
30
30
30
30
30
60
60
60
60
60
C0
C0
C0
ENDCHAR
STARTCHAR 05C1
ENCODING 1473
SWIDTH 324 0
DWIDTH 9 0
BBX 3 2 14 16
BITMAP
E0
C0
ENDCHAR
STARTCHAR 05C2
ENCODING 1474
SWIDTH 324 0
DWIDTH 9 0
BBX 3 2 0 16
BITMAP
E0
C0
ENDCHAR
STARTCHAR 05C3
ENCODING 1475
SWIDTH 288 0
DWIDTH 8 0
BBX 5 14 3 0
BITMAP
38
38
00
00
00
00
00
00
00
00
00
E0
E0
C0
ENDCHAR
STARTCHAR 05D0
ENCODING 1488
SWIDTH 576 0
DWIDTH 16 0
BBX 15 14 2 0
BITMAP
1C0E
1E0C
0E1C
0F1C
0718
1FB8
3BF0
33E0
71C0
71E0
60E0
E0F0
E070
C078
ENDCHAR
STARTCHAR 05D1
ENCODING 1489
SWIDTH 540 0
DWIDTH 15 0
BBX 14 15 1 0
BITMAP
0200
1FE0
1FF0
0078
0038
0038
0038
0038
0038
0030
0030
0070
0070
FFFC
FFFC
ENDCHAR
STARTCHAR 05D2
ENCODING 1490
SWIDTH 396 0
DWIDTH 11 0
BBX 10 15 1 0
BITMAP
0200
0F80
0FC0
01C0
01C0
01C0
01C0
0180
0180
0380
1F80
3F80
7380
E380
C380
ENDCHAR
STARTCHAR 05D3
ENCODING 1491
SWIDTH 504 0
DWIDTH 14 0
BBX 13 14 3 0
BITMAP
FFF8
FFF8
00E0
00C0
01C0
01C0
01C0
0180
0180
0380
0380
0380
0300
0300
ENDCHAR
STARTCHAR 05D4
ENCODING 1492
SWIDTH 612 0
DWIDTH 17 0
BBX 15 15 2 0
BITMAP
0100
1FF8
1FFC
001E
000E
000E
000E
300C
300C
701C
701C
7018
6018
6038
E038
ENDCHAR
STARTCHAR 05D5
ENCODING 1493
SWIDTH 252 0
DWIDTH 7 0
BBX 6 14 2 0
BITMAP
1C
18
18
38
38
38
30
70
70
70
60
60
E0
E0
ENDCHAR
STARTCHAR 05D6
ENCODING 1494
SWIDTH 396 0
DWIDTH 11 0
BBX 9 14 4 0
BITMAP
FF80
FF00
1800
3000
7000
6000
6000
6000
E000
E000
E000
E000
C000
C000
ENDCHAR
STARTCHAR 05D7
ENCODING 1495
SWIDTH 612 0
DWIDTH 17 0
BBX 15 15 2 0
BITMAP
0080
1FF8
1FFC
181E
380E
380E
380C
300C
701C
701C
701C
6018
6018
E038
E038
ENDCHAR
STARTCHAR 05D8
ENCODING 1496
SWIDTH 576 0
DWIDTH 16 0
BBX 14 15 3 0
BITMAP
0030
30F8
31FC
711C
701C
701C
601C
E018
E018
E038
E030
E070
F0E0
7FC0
3F80
ENDCHAR
STARTCHAR 05D9
ENCODING 1497
SWIDTH 252 0
DWIDTH 7 0
BBX 4 7 4 7
BITMAP
70
60
60
E0
E0
E0
C0
ENDCHAR
STARTCHAR 05DA
ENCODING 1498
SWIDTH 504 0
DWIDTH 14 0
BBX 11 21 3 -6
BITMAP
0800
FFC0
FFE0
01E0
00E0
00E0
00E0
00E0
00E0
00C0
00C0
01C0
01C0
01C0
0180
0380
0380
0380
0300
0300
0700
ENDCHAR
STARTCHAR 05DB
ENCODING 1499
SWIDTH 468 0
DWIDTH 13 0
BBX 12 15 1 0
BITMAP
0700
1FC0
1FE0
00F0
0070
0070
0070
0070
0070
0070
00E0
01E0
03C0
7F00
FE00
ENDCHAR
STARTCHAR 05DC
ENCODING 1500
SWIDTH 468 0
DWIDTH 13 0
BBX 11 20 3 0
BITMAP
3800
3000
3000
7000
7000
6000
7FE0
FFE0
00E0
00E0
00C0
01C0
0180
0380
0700
0E00
0C00
1C00
1C00
1800
ENDCHAR
STARTCHAR 05DD
ENCODING 1501
SWIDTH 612 0
DWIDTH 17 0
BBX 15 15 2 0
BITMAP
0080
1FF8
1FFC
181E
380E
380E
300C
300C
701C
701C
701C
6018
6018
FFF8
FFF8
ENDCHAR
STARTCHAR 05DE
ENCODING 1502
SWIDTH 612 0
DWIDTH 17 0
BBX 15 15 2 0
BITMAP
0020
39FC
3BFC
1F0E
1E0E
1C0E
1C0C
180C
380C
301C
701C
7018
6018
E3F8
C7F8
ENDCHAR
STARTCHAR 05DF
ENCODING 1503
SWIDTH 252 0
DWIDTH 7 0
BBX 7 20 1 -6
BITMAP
0E
0C
0C
1C
1C
1C
18
38
38
38
30
30
70
70
70
60
60
E0
E0
E0
ENDCHAR
STARTCHAR 05E0
ENCODING 1504
SWIDTH 360 0
DWIDTH 10 0
BBX 9 15 1 0
BITMAP
0400
1F00
1F80
0380
0380
0380
0380
0300
0300
0700
0700
0600
0600
FE00
FE00
ENDCHAR
STARTCHAR 05E1
ENCODING 1505
SWIDTH 576 0
DWIDTH 16 0
BBX 14 15 3 0
BITMAP
03C0
0FF0
1E78
3838
7018
601C
E018
E018
C038
C038
C030
E070
E0E0
FFC0
3F80
ENDCHAR
STARTCHAR 05E2
ENCODING 1506
SWIDTH 540 0
DWIDTH 15 0
BBX 16 15 0 -1
BITMAP
0707
0706
0606
060E
060E
060C
060C
061C
0618
0638
0670
07E0
0FC0
FF00
F800
ENDCHAR
STARTCHAR 05E3
ENCODING 1507
SWIDTH 576 0
DWIDTH 16 0
BBX 13 21 3 -6
BITMAP
0200
7FE0
7FF0
6078
6038
6038
E038
E030
F830
7870
0070
0070
0060
0060
00E0
00E0
00C0
00C0
01C0
01C0
01C0
ENDCHAR
STARTCHAR 05E4
ENCODING 1508
SWIDTH 540 0
DWIDTH 15 0
BBX 14 15 2 0
BITMAP
0300
1FF0
3FF8
3838
301C
301C
301C
3E1C
3E18
0038
0030
00F0
41E0
FFC0
FF00
ENDCHAR
STARTCHAR 05E5
ENCODING 1509
SWIDTH 468 0
DWIDTH 13 0
BBX 12 20 3 -6
BITMAP
6070
70E0
70E0
70E0
31C0
39C0
3B80
1F00
1C00
1800
3800
3800
3800
3000
3000
7000
7000
6000
6000
E000
ENDCHAR
STARTCHAR 05E6
ENCODING 1510
SWIDTH 468 0
DWIDTH 13 0
BBX 14 14 1 0
BITMAP
1C1C
1C18
1C38
0E38
0E70
07F0
07C0
0380
0380
0380
01C0
01C0
FFE0
FFC0
ENDCHAR
STARTCHAR 05E7
ENCODING 1511
SWIDTH 540 0
DWIDTH 15 0
BBX 16 20 1 -6
BITMAP
0FFF
0FFE
0006
000E
000E
000C
181C
1838
3870
38E0
30E0
30C0
31C0
71C0
7000
6000
6000
6000
E000
E000
ENDCHAR
STARTCHAR 05E8
ENCODING 1512
SWIDTH 504 0
DWIDTH 14 0
BBX 11 15 3 0
BITMAP
0800
FFC0
FFC0
01E0
00E0
00E0
00E0
00E0
00E0
00C0
00C0
01C0
01C0
0180
0180
ENDCHAR
STARTCHAR 05E9
ENCODING 1513
SWIDTH 684 0
DWIDTH 19 0
BBX 18 14 3 0
BITMAP
70E1C0
70E180
70C380
61C380
61C380
E38300
E78700
FF0600
F80E00
E00E00
601C00
703800
7FF000
3FC000
ENDCHAR
STARTCHAR 05EA
ENCODING 1514
SWIDTH 648 0
DWIDTH 18 0
BBX 17 15 1 0
BITMAP
006000
1FFE00
1FFF00
030780
070380
070380
070380
060300
060300
0E0700
0E0700
0C0700
1C0600
FC0600
F80E00
ENDCHAR
STARTCHAR 05F0
ENCODING 1520
SWIDTH 504 0
DWIDTH 14 0
BBX 12 14 2 0
BITMAP
1C30
1830
1870
3870
3870
3860
3060
70E0
70E0
70E0
60C0
61C0
E1C0
E1C0
ENDCHAR
STARTCHAR 05F1
ENCODING 1521
SWIDTH 504 0
DWIDTH 14 0
BBX 10 14 4 0
BITMAP
70C0
60C0
61C0
E1C0
E1C0
E180
C180
0380
0380
0380
0300
0700
0700
0700
ENDCHAR
STARTCHAR 05F2
ENCODING 1522
SWIDTH 504 0
DWIDTH 14 0
BBX 10 7 4 7
BITMAP
70C0
60C0
61C0
E1C0
E1C0
E180
C180
ENDCHAR
STARTCHAR 05F3
ENCODING 1523
SWIDTH 252 0
DWIDTH 7 0
BBX 5 5 3 9
BITMAP
38
30
60
60
C0
ENDCHAR
STARTCHAR 05F4
ENCODING 1524
SWIDTH 432 0
DWIDTH 12 0
BBX 10 5 3 9
BITMAP
39C0
3180
6300
6300
C600
ENDCHAR
STARTCHAR 1E80
ENCODING 7808
SWIDTH 936 0
DWIDTH 26 0
BBX 26 25 3 0
BITMAP
001C0000
000C0000
000E0000
00060000
00000000
E00E00C0
601E01C0
601E0180
603E0380
603E0300
60760700
60760600
70E60E00
70E60C00
71C61C00
71871800
73873800
73073000
77077000
76076000
7E07E000
7C07C000
3C07C000
38078000
38078000
ENDCHAR
STARTCHAR 1E81
ENCODING 7809
SWIDTH 720 0
DWIDTH 20 0
BBX 19 20 2 0
BITMAP
00E000
00E000
006000
003000
000000
000000
E0E060
E0E0E0
E1E0C0
61E1C0
63F180
637380
677300
663700
663600
6C3600
6C3C00
783C00
783800
303800
ENDCHAR
STARTCHAR 1E82
ENCODING 7810
SWIDTH 936 0
DWIDTH 26 0
BBX 26 25 3 0
BITMAP
00038000
00070000
000E0000
000C0000
00000000
E00E00C0
601E01C0
601E0180
603E0380
603E0300
60760700
60760600
70E60E00
70E60C00
71C61C00
71871800
73873800
73073000
77077000
76076000
7E07E000
7C07C000
3C07C000
38078000
38078000
ENDCHAR
STARTCHAR 1E83
ENCODING 7811
SWIDTH 720 0
DWIDTH 20 0
BBX 19 20 2 0
BITMAP
003800
003000
006000
00C000
000000
000000
E0E060
E0E0E0
E1E0C0
61E1C0
63F180
637380
677300
663700
663600
6C3600
6C3C00
783C00
783800
303800
ENDCHAR
STARTCHAR 1E84
ENCODING 7812
SWIDTH 936 0
DWIDTH 26 0
BBX 26 24 3 0
BITMAP
0039C000
0039C000
0039C000
00000000
E00E00C0
601E01C0
601E0180
603E0380
603E0300
60760700
60760600
70E60E00
70E60C00
71C61C00
71871800
73873800
73073000
77077000
76076000
7E07E000
7C07C000
3C07C000
38078000
38078000
ENDCHAR
STARTCHAR 1E85
ENCODING 7813
SWIDTH 720 0
DWIDTH 20 0
BBX 19 19 2 0
BITMAP
01CE00
018C00
000000
000000
000000
E0E060
E0E0E0
E1E0C0
61E1C0
63F180
637380
677300
663700
663600
6C3600
6C3C00
783C00
783800
303800
ENDCHAR
STARTCHAR 1EA0
ENCODING 7840
SWIDTH 684 0
DWIDTH 19 0
BBX 17 24 0 -4
BITMAP
003C00
003C00
007C00
006C00
00EE00
00CE00
01CE00
018600
038600
070600
070700
0E0700
0FFF00
1FFF00
180300
380300
700380
700380
E00380
E00380
000000
000000
018000
038000
ENDCHAR
STARTCHAR 1EA1
ENCODING 7841
SWIDTH 540 0
DWIDTH 15 0
BBX 14 19 1 -4
BITMAP
01C0
0FF0
1C38
381C
301C
001C
01F8
3FF8
7C38
6038
E030
E070
E0F0
7FB0
3F30
0000
0000
0E00
0E00
ENDCHAR
STARTCHAR 1EA2
ENCODING 7842
SWIDTH 684 0
DWIDTH 19 0
BBX 17 25 0 0
BITMAP
001E00
000700
000300
000C00
000000
003C00
003C00
007C00
006C00
00EE00
00CE00
01CE00
018600
038600
070600
070700
0E0700
0FFF00
1FFF00
180300
380300
700380
700380
E00380
E00380
ENDCHAR
STARTCHAR 1EA3
ENCODING 7843
SWIDTH 540 0
DWIDTH 15 0
BBX 14 21 1 0
BITMAP
01E0
01F0
0030
00F0
00C0
0000
01C0
0FF0
1C38
381C
301C
001C
01F8
3FF8
7C38
6038
E030
E070
E0F0
7FB0
3F30
ENDCHAR
STARTCHAR 1EA4
ENCODING 7844
SWIDTH 684 0
DWIDTH 19 0
BBX 17 25 0 0
BITMAP
000700
000C00
000000
003E00
004100
003C00
003C00
007C00
006C00
00EE00
00CE00
01CE00
018600
038600
070600
070700
0E0700
0FFF00
1FFF00
180300
380300
700380
700380
E00380
E00380
ENDCHAR
STARTCHAR 1EA5
ENCODING 7845
SWIDTH 540 0
DWIDTH 15 0
BBX 14 25 1 0
BITMAP
001C
0038
0070
00E0
0000
00E0
01F0
03B0
0718
0000
01C0
0FF0
1C38
381C
301C
001C
01F8
3FF8
7C38
6038
E030
E070
E0F0
7FB0
3F30
ENDCHAR
STARTCHAR 1EA6
ENCODING 7846
SWIDTH 684 0
DWIDTH 19 0
BBX 17 25 0 0
BITMAP
003800
000C00
000000
003E00
004100
003C00
003C00
007C00
006C00
00EE00
00CE00
01CE00
018600
038600
070600
070700
0E0700
0FFF00
1FFF00
180300
380300
700380
700380
E00380
E00380
ENDCHAR
STARTCHAR 1EA7
ENCODING 7847
SWIDTH 540 0
DWIDTH 15 0
BBX 14 25 1 0
BITMAP
00E0
00E0
0060
0030
0000
00E0
01F0
03B0
0718
0000
01C0
0FF0
1C38
381C
301C
001C
01F8
3FF8
7C38
6038
E030
E070
E0F0
7FB0
3F30
ENDCHAR
STARTCHAR 1EA8
ENCODING 7848
SWIDTH 684 0
DWIDTH 19 0
BBX 17 25 0 0
BITMAP
003E00
000700
000800
003E00
004100
003C00
003C00
007C00
006C00
00EE00
00CE00
01CE00
018600
038600
070600
070700
0E0700
0FFF00
1FFF00
180300
380300
700380
700380
E00380
E00380
ENDCHAR
STARTCHAR 1EA9
ENCODING 7849
SWIDTH 540 0
DWIDTH 15 0
BBX 14 25 1 0
BITMAP
00F0
001C
0018
0060
0000
00E0
01F0
03B0
0718
0000
01C0
0FF0
1C38
381C
301C
001C
01F8
3FF8
7C38
6038
E030
E070
E0F0
7FB0
3F30
ENDCHAR
STARTCHAR 1EAA
ENCODING 7850
SWIDTH 684 0
DWIDTH 19 0
BBX 17 25 0 0
BITMAP
003980
00CF00
000000
003E00
004100
003C00
003C00
007C00
006C00
00EE00
00CE00
01CE00
018600
038600
070600
070700
0E0700
0FFF00
1FFF00
180300
380300
700380
700380
E00380
E00380
ENDCHAR
STARTCHAR 1EAB
ENCODING 7851
SWIDTH 540 0
DWIDTH 15 0
BBX 14 24 1 0
BITMAP
03C4
03FC
0638
0000
00E0
01F0
03B0
0718
0000
01C0
0FF0
1C38
381C
301C
001C
01F8
3FF8
7C38
6038
E030
E070
E0F0
7FB0
3F30
ENDCHAR
STARTCHAR 1EAC
ENCODING 7852
SWIDTH 684 0
DWIDTH 19 0
BBX 17 26 0 -4
BITMAP
003E00
004100
003C00
003C00
007C00
006C00
00EE00
00CE00
01CE00
018600
038600
070600
070700
0E0700
0FFF00
1FFF00
180300
380300
700380
700380
E00380
E00380
000000
000000
018000
038000
ENDCHAR
STARTCHAR 1EAD
ENCODING 7853
SWIDTH 540 0
DWIDTH 15 0
BBX 14 24 1 -4
BITMAP
00E0
01F0
03B0
0718
0000
01C0
0FF0
1C38
381C
301C
001C
01F8
3FF8
7C38
6038
E030
E070
E0F0
7FB0
3F30
0000
0000
0E00
0E00
ENDCHAR
STARTCHAR 1EAE
ENCODING 7854
SWIDTH 684 0
DWIDTH 19 0
BBX 17 25 0 0
BITMAP
000700
000C00
000000
006100
001E00
003C00
003C00
007C00
006C00
00EE00
00CE00
01CE00
018600
038600
070600
070700
0E0700
0FFF00
1FFF00
180300
380300
700380
700380
E00380
E00380
ENDCHAR
STARTCHAR 1EAF
ENCODING 7855
SWIDTH 540 0
DWIDTH 15 0
BBX 14 25 1 0
BITMAP
001C
0038
0070
00E0
0000
0000
0618
03B0
01E0
0000
01C0
0FF0
1C38
381C
301C
001C
01F8
3FF8
7C38
6038
E030
E070
E0F0
7FB0
3F30
ENDCHAR
STARTCHAR 1EB0
ENCODING 7856
SWIDTH 684 0
DWIDTH 19 0
BBX 17 25 0 0
BITMAP
003800
000C00
000000
006100
001E00
003C00
003C00
007C00
006C00
00EE00
00CE00
01CE00
018600
038600
070600
070700
0E0700
0FFF00
1FFF00
180300
380300
700380
700380
E00380
E00380
ENDCHAR
STARTCHAR 1EB1
ENCODING 7857
SWIDTH 540 0
DWIDTH 15 0
BBX 14 25 1 0
BITMAP
01C0
00E0
0060
0070
0000
0000
0618
03B0
01E0
0000
01C0
0FF0
1C38
381C
301C
001C
01F8
3FF8
7C38
6038
E030
E070
E0F0
7FB0
3F30
ENDCHAR
STARTCHAR 1EB2
ENCODING 7858
SWIDTH 684 0
DWIDTH 19 0
BBX 17 25 0 0
BITMAP
001E00
000300
000400
006100
001E00
003C00
003C00
007C00
006C00
00EE00
00CE00
01CE00
018600
038600
070600
070700
0E0700
0FFF00
1FFF00
180300
380300
700380
700380
E00380
E00380
ENDCHAR
STARTCHAR 1EB3
ENCODING 7859
SWIDTH 540 0
DWIDTH 15 0
BBX 14 25 1 0
BITMAP
00F0
0018
0018
0060
0000
0000
0618
03B0
01E0
0000
01C0
0FF0
1C38
381C
301C
001C
01F8
3FF8
7C38
6038
E030
E070
E0F0
7FB0
3F30
ENDCHAR
STARTCHAR 1EB4
ENCODING 7860
SWIDTH 684 0
DWIDTH 19 0
BBX 18 25 0 0
BITMAP
0038C0
006F80
000000
006100
001E00
003C00
003C00
007C00
006C00
00EE00
00CE00
01CE00
018600
038600
070600
070700
0E0700
0FFF00
1FFF00
180300
380300
700380
700380
E00380
E00380
ENDCHAR
STARTCHAR 1EB5
ENCODING 7861
SWIDTH 540 0
DWIDTH 15 0
BBX 14 24 1 0
BITMAP
03C4
03FC
0638
0000
0000
0618
03B0
01E0
0000
01C0
0FF0
1C38
381C
301C
001C
01F8
3FF8
7C38
6038
E030
E070
E0F0
7FB0
3F30
ENDCHAR
STARTCHAR 1EB6
ENCODING 7862
SWIDTH 684 0
DWIDTH 19 0
BBX 17 26 0 -4
BITMAP
004180
003E00
003C00
003C00
007C00
006C00
00EE00
00CE00
01CE00
018600
038600
070600
070700
0E0700
0FFF00
1FFF00
180300
380300
700380
700380
E00380
E00380
000000
000000
018000
038000
ENDCHAR
STARTCHAR 1EB7
ENCODING 7863
SWIDTH 540 0
DWIDTH 15 0
BBX 14 23 1 -4
BITMAP
0618
03B0
01E0
0000
01C0
0FF0
1C38
381C
301C
001C
01F8
3FF8
7C38
6038
E030
E070
E0F0
7FB0
3F30
0000
0000
0E00
0E00
ENDCHAR
STARTCHAR 1EB8
ENCODING 7864
SWIDTH 684 0
DWIDTH 19 0
BBX 19 24 1 -4
BITMAP
0FFFE0
0FFFC0
0E0000
0C0000
1C0000
1C0000
1C0000
1C0000
180000
3FFF00
3FFF00
380000
300000
300000
700000
700000
700000
600000
7FFF00
FFFF00
000000
000000
038000
038000
ENDCHAR
STARTCHAR 1EB9
ENCODING 7865
SWIDTH 540 0
DWIDTH 15 0
BBX 14 19 1 -4
BITMAP
0180
0FF0
1E38
3818
301C
701C
601C
7FFC
E000
E000
6038
6030
7070
3FE0
1F80
0000
0000
0E00
0E00
ENDCHAR
STARTCHAR 1EBA
ENCODING 7866
SWIDTH 684 0
DWIDTH 19 0
BBX 19 25 1 0
BITMAP
003C00
000600
000600
001800
000000
0FFFE0
0FFFC0
0E0000
0C0000
1C0000
1C0000
1C0000
1C0000
180000
3FFF00
3FFF00
380000
300000
300000
700000
700000
700000
600000
7FFF00
FFFF00
ENDCHAR
STARTCHAR 1EBB
ENCODING 7867
SWIDTH 540 0
DWIDTH 15 0
BBX 14 21 1 0
BITMAP
01E0
02F0
0030
00E0
0080
0000
0180
0FF0
1E38
3818
301C
701C
601C
7FFC
E000
E000
6038
6030
7070
3FE0
1F80
ENDCHAR
STARTCHAR 1EBC
ENCODING 7868
SWIDTH 684 0
DWIDTH 19 0
BBX 19 24 1 0
BITMAP
00F100
00FF00
018E00
000000
0FFFE0
0FFFC0
0E0000
0C0000
1C0000
1C0000
1C0000
1C0000
180000
3FFF00
3FFF00
380000
300000
300000
700000
700000
700000
600000
7FFF00
FFFF00
ENDCHAR
STARTCHAR 1EBD
ENCODING 7869
SWIDTH 540 0
DWIDTH 15 0
BBX 14 20 1 0
BITMAP
0308
07F8
0CF0
0000
0000
0180
0FF0
1E38
3818
301C
701C
601C
7FFC
E000
E000
6038
6030
7070
3FE0
1F80
ENDCHAR
STARTCHAR 1EBE
ENCODING 7870
SWIDTH 684 0
DWIDTH 19 0
BBX 19 25 1 0
BITMAP
000E00
001C00
000000
007C00
008200
0FFFE0
0FFFC0
0E0000
0C0000
1C0000
1C0000
1C0000
1C0000
180000
3FFF00
3FFF00
380000
300000
300000
700000
700000
700000
600000
7FFF00
FFFF00
ENDCHAR
STARTCHAR 1EBF
ENCODING 7871
SWIDTH 540 0
DWIDTH 15 0
BBX 14 25 1 0
BITMAP
001C
0038
0070
0060
0000
00F0
01F0
03B0
0718
0000
0180
0FF0
1E38
3818
301C
701C
601C
7FFC
E000
E000
6038
6030
7070
3FE0
1F80
ENDCHAR
STARTCHAR 1EC0
ENCODING 7872
SWIDTH 684 0
DWIDTH 19 0
BBX 19 25 1 0
BITMAP
003000
001800
000000
007C00
008200
0FFFE0
0FFFC0
0E0000
0C0000
1C0000
1C0000
1C0000
1C0000
180000
3FFF00
3FFF00
380000
300000
300000
700000
700000
700000
600000
7FFF00
FFFF00
ENDCHAR
STARTCHAR 1EC1
ENCODING 7873
SWIDTH 540 0
DWIDTH 15 0
BBX 14 25 1 0
BITMAP
00E0
0060
0070
0030
0000
00F0
01F0
03B0
0718
0000
0180
0FF0
1E38
3818
301C
701C
601C
7FFC
E000
E000
6038
6030
7070
3FE0
1F80
ENDCHAR
STARTCHAR 1EC2
ENCODING 7874
SWIDTH 684 0
DWIDTH 19 0
BBX 19 25 1 0
BITMAP
003E00
000600
000800
007C00
008200
0FFFE0
0FFFC0
0E0000
0C0000
1C0000
1C0000
1C0000
1C0000
180000
3FFF00
3FFF00
380000
300000
300000
700000
700000
700000
600000
7FFF00
FFFF00
ENDCHAR
STARTCHAR 1EC3
ENCODING 7875
SWIDTH 540 0
DWIDTH 15 0
BBX 14 25 1 0
BITMAP
00F0
001C
001C
0030
0000
00F0
01F0
03B0
0718
0000
0180
0FF0
1E38
3818
301C
701C
601C
7FFC
E000
E000
6038
6030
7070
3FE0
1F80
ENDCHAR
STARTCHAR 1EC4
ENCODING 7876
SWIDTH 684 0
DWIDTH 19 0
BBX 19 25 1 0
BITMAP
007100
00DF00
000000
007C00
008200
0FFFE0
0FFFC0
0E0000
0C0000
1C0000
1C0000
1C0000
1C0000
180000
3FFF00
3FFF00
380000
300000
300000
700000
700000
700000
600000
7FFF00
FFFF00
ENDCHAR
STARTCHAR 1EC5
ENCODING 7877
SWIDTH 540 0
DWIDTH 15 0
BBX 14 24 1 0
BITMAP
03C4
03FC
0638
0000
00F0
01F0
03B0
0718
0000
0180
0FF0
1E38
3818
301C
701C
601C
7FFC
E000
E000
6038
6030
7070
3FE0
1F80
ENDCHAR
STARTCHAR 1EC6
ENCODING 7878
SWIDTH 684 0
DWIDTH 19 0
BBX 19 26 1 -4
BITMAP
007C00
008200
0FFFE0
0FFFC0
0E0000
0C0000
1C0000
1C0000
1C0000
1C0000
180000
3FFF00
3FFF00
380000
300000
300000
700000
700000
700000
600000
7FFF00
FFFF00
000000
000000
038000
038000
ENDCHAR
STARTCHAR 1EC7
ENCODING 7879
SWIDTH 540 0
DWIDTH 15 0
BBX 14 24 1 -4
BITMAP
00F0
01F0
03B0
0718
0000
0180
0FF0
1E38
3818
301C
701C
601C
7FFC
E000
E000
6038
6030
7070
3FE0
1F80
0000
0000
0E00
0E00
ENDCHAR
STARTCHAR 1EC8
ENCODING 7880
SWIDTH 288 0
DWIDTH 8 0
BBX 9 25 2 0
BITMAP
1E00
0380
0380
0600
0000
0C00
1C00
1C00
1C00
1800
1800
3800
3800
3800
3000
3000
7000
7000
7000
6000
6000
E000
E000
E000
C000
ENDCHAR
STARTCHAR 1EC9
ENCODING 7881
SWIDTH 216 0
DWIDTH 6 0
BBX 8 21 1 0
BITMAP
3E
2F
03
0E
08
00
00
18
38
38
30
30
30
70
70
60
60
60
E0
E0
C0
ENDCHAR
STARTCHAR 1ECA
ENCODING 7882
SWIDTH 288 0
DWIDTH 8 0
BBX 7 24 1 -4
BITMAP
06
0E
0E
0E
0C
0C
1C
1C
1C
18
18
38
38
38
30
30
70
70
70
60
00
00
E0
E0
ENDCHAR
STARTCHAR 1ECB
ENCODING 7883
SWIDTH 216 0
DWIDTH 6 0
BBX 7 24 0 -4
BITMAP
06
06
0E
00
00
00
0C
1C
1C
18
18
18
38
38
30
30
30
70
70
60
00
00
E0
E0
ENDCHAR
STARTCHAR 1ECC
ENCODING 7884
SWIDTH 792 0
DWIDTH 22 0
BBX 18 24 3 -4
BITMAP
03FC00
0FFE00
1E0F00
3C0380
3801C0
7001C0
E000C0
E000C0
E000C0
C000C0
C000C0
C001C0
C001C0
C001C0
E00380
E00700
700F00
781E00
3FFC00
0FF000
000000
000000
038000
038000
ENDCHAR
STARTCHAR 1ECD
ENCODING 7885
SWIDTH 540 0
DWIDTH 15 0
BBX 14 19 1 -4
BITMAP
03C0
0FF0
1E38
381C
301C
700C
600C
601C
E01C
E01C
E038
6038
7070
3FE0
1FC0
0000
0000
0E00
0E00
ENDCHAR
STARTCHAR 1ECE
ENCODING 7886
SWIDTH 792 0
DWIDTH 22 0
BBX 18 25 3 0
BITMAP
00F000
001C00
001C00
007000
000000
03FC00
0FFE00
1E0F00
3C0380
3801C0
7001C0
E000C0
E000C0
E000C0
C000C0
C000C0
C001C0
C001C0
C001C0
E00380
E00700
700F00
781E00
3FFC00
0FF000
ENDCHAR
STARTCHAR 1ECF
ENCODING 7887
SWIDTH 540 0
DWIDTH 15 0
BBX 14 21 1 0
BITMAP
01E0
01F0
0030
00F0
00C0
0000
03C0
0FF0
1E38
381C
301C
700C
600C
601C
E01C
E01C
E038
6038
7070
3FE0
1FC0
ENDCHAR
STARTCHAR 1ED0
ENCODING 7888
SWIDTH 792 0
DWIDTH 22 0
BBX 18 25 3 0
BITMAP
001C00
003000
000000
00F800
010400
03FC00
0FFE00
1E0F00
3C0380
3801C0
7001C0
E000C0
E000C0
E000C0
C000C0
C000C0
C001C0
C001C0
C001C0
E00380
E00700
700F00
781E00
3FFC00
0FF000
ENDCHAR
STARTCHAR 1ED1
ENCODING 7889
SWIDTH 540 0
DWIDTH 15 0
BBX 14 25 1 0
BITMAP
0038
0030
0060
00C0
0000
00E0
01F0
0330
0630
0000
03C0
0FF0
1E38
381C
301C
700C
600C
601C
E01C
E01C
E038
6038
7070
3FE0
1FC0
ENDCHAR
STARTCHAR 1ED2
ENCODING 7890
SWIDTH 792 0
DWIDTH 22 0
BBX 18 25 3 0
BITMAP
00E000
003000
000000
00F800
010400
03FC00
0FFE00
1E0F00
3C0380
3801C0
7001C0
E000C0
E000C0
E000C0
C000C0
C000C0
C001C0
C001C0
C001C0
E00380
E00700
700F00
781E00
3FFC00
0FF000
ENDCHAR
STARTCHAR 1ED3
ENCODING 7891
SWIDTH 540 0
DWIDTH 15 0
BBX 14 25 1 0
BITMAP
01C0
00E0
0060
0030
0000
00E0
01F0
0330
0630
0000
03C0
0FF0
1E38
381C
301C
700C
600C
601C
E01C
E01C
E038
6038
7070
3FE0
1FC0
ENDCHAR
STARTCHAR 1ED4
ENCODING 7892
SWIDTH 792 0
DWIDTH 22 0
BBX 18 25 3 0
BITMAP
007800
000C00
001000
00F800
010400
03FC00
0FFE00
1E0F00
3C0380
3801C0
7001C0
E000C0
E000C0
E000C0
C000C0
C000C0
C001C0
C001C0
C001C0
E00380
E00700
700F00
781E00
3FFC00
0FF000
ENDCHAR
STARTCHAR 1ED5
ENCODING 7893
SWIDTH 540 0
DWIDTH 15 0
BBX 14 25 1 0
BITMAP
00F0
0018
0018
0060
0000
00E0
01F0
0330
0630
0000
03C0
0FF0
1E38
381C
301C
700C
600C
601C
E01C
E01C
E038
6038
7070
3FE0
1FC0
ENDCHAR
STARTCHAR 1ED6
ENCODING 7894
SWIDTH 792 0
DWIDTH 22 0
BBX 18 25 3 0
BITMAP
00E200
013E00
000000
00F800
010400
03FC00
0FFE00
1E0F00
3C0380
3801C0
7001C0
E000C0
E000C0
E000C0
C000C0
C000C0
C001C0
C001C0
C001C0
E00380
E00700
700F00
781E00
3FFC00
0FF000
ENDCHAR
STARTCHAR 1ED7
ENCODING 7895
SWIDTH 540 0
DWIDTH 15 0
BBX 14 24 1 0
BITMAP
03C4
03FC
0638
0000
00E0
01F0
0330
0630
0000
03C0
0FF0
1E38
381C
301C
700C
600C
601C
E01C
E01C
E038
6038
7070
3FE0
1FC0
ENDCHAR
STARTCHAR 1ED8
ENCODING 7896
SWIDTH 792 0
DWIDTH 22 0
BBX 18 27 3 -4
BITMAP
007800
01CC00
000000
03FC00
0FFE00
1E0F00
3C0380
3801C0
7001C0
E000C0
E000C0
E000C0
C000C0
C000C0
C001C0
C001C0
C001C0
E00380
E00700
700F00
781E00
3FFC00
0FF000
000000
000000
038000
038000
ENDCHAR
STARTCHAR 1ED9
ENCODING 7897
SWIDTH 540 0
DWIDTH 15 0
BBX 14 24 1 -4
BITMAP
00E0
01F0
0330
0630
0000
03C0
0FF0
1E38
381C
301C
700C
600C
601C
E01C
E01C
E038
6038
7070
3FE0
1FC0
0000
0000
0E00
0E00
ENDCHAR
STARTCHAR 1EDA
ENCODING 7898
SWIDTH 828 0
DWIDTH 23 0
BBX 22 25 3 0
BITMAP
003800
003000
007000
00E000
000000
03FC1C
0FFE1C
1E0F18
3C0388
3801C8
7001D0
6000E0
E000C0
E000C0
C000C0
C000C0
C001C0
C001C0
C001C0
E00380
E00780
700F00
381E00
3FFC00
0FF000
ENDCHAR
STARTCHAR 1EDB
ENCODING 7899
SWIDTH 612 0
DWIDTH 17 0
BBX 18 20 1 0
BITMAP
007000
00E000
00C000
018000
000000
03C000
0FF1C0
1E3980
381C80
301C80
700D00
600F00
601C00
E01C00
E01C00
E01800
603800
707000
3FE000
1FC000
ENDCHAR
STARTCHAR 1EDC
ENCODING 7900
SWIDTH 828 0
DWIDTH 23 0
BBX 22 25 3 0
BITMAP
007000
007000
003800
001800
000000
03FC1C
0FFE1C
1E0F18
3C0388
3801C8
7001D0
6000E0
E000C0
E000C0
C000C0
C000C0
C001C0
C001C0
C001C0
E00380
E00780
700F00
381E00
3FFC00
0FF000
ENDCHAR
STARTCHAR 1EDD
ENCODING 7901
SWIDTH 612 0
DWIDTH 17 0
BBX 18 20 1 0
BITMAP
01C000
00C000
00E000
006000
000000
03C000
0FF1C0
1E3980
381C80
301C80
700D00
600F00
601C00
E01C00
E01C00
E01800
603800
707000
3FE000
1FC000
ENDCHAR
STARTCHAR 1EDE
ENCODING 7902
SWIDTH 828 0
DWIDTH 23 0
BBX 22 25 3 0
BITMAP
00F800
000C00
003800
006000
000000
03FC1C
0FFE1C
1E0F18
3C0388
3801C8
7001D0
6000E0
E000C0
E000C0
C000C0
C000C0
C001C0
C001C0
C001C0
E00380
E00780
700F00
381E00
3FFC00
0FF000
ENDCHAR
STARTCHAR 1EDF
ENCODING 7903
SWIDTH 612 0
DWIDTH 17 0
BBX 18 21 1 0
BITMAP
01E000
01F000
003000
00F000
00C000
000000
03C000
0FF1C0
1E3980
381C80
301C80
700D00
600F00
601C00
E01C00
E01C00
E01800
603800
707000
3FE000
1FC000
ENDCHAR
STARTCHAR 1EE0
ENCODING 7904
SWIDTH 828 0
DWIDTH 23 0
BBX 22 24 3 0
BITMAP
01E600
03FE00
031C00
000000
03FC1C
0FFE1C
1E0F18
3C0388
3801C8
7001D0
6000E0
E000C0
E000C0
C000C0
C000C0
C001C0
C001C0
C001C0
E00380
E00780
700F00
381E00
3FFC00
0FF000
ENDCHAR
STARTCHAR 1EE1
ENCODING 7905
SWIDTH 612 0
DWIDTH 17 0
BBX 18 20 1 0
BITMAP
030800
07F800
0CF000
000000
000000
03C000
0FF1C0
1E3980
381C80
301C80
700D00
600F00
601C00
E01C00
E01C00
E01800
603800
707000
3FE000
1FC000
ENDCHAR
STARTCHAR 1EE2
ENCODING 7906
SWIDTH 828 0
DWIDTH 23 0
BBX 22 24 3 -4
BITMAP
03FC1C
0FFE1C
1E0F18
3C0388
3801C8
7001D0
6000E0
E000C0
E000C0
C000C0
C000C0
C001C0
C001C0
C001C0
E00380
E00780
700F00
381E00
3FFC00
0FF000
000000
000000
038000
038000
ENDCHAR
STARTCHAR 1EE3
ENCODING 7907
SWIDTH 612 0
DWIDTH 17 0
BBX 18 19 1 -4
BITMAP
03C000
0FF1C0
1E3980
381C80
301C80
700D00
600F00
601C00
E01C00
E01C00
E01800
603800
707000
3FE000
1FC000
000000
000000
0E0000
0E0000
ENDCHAR
STARTCHAR 1EE4
ENCODING 7908
SWIDTH 720 0
DWIDTH 20 0
BBX 18 24 3 -4
BITMAP
3801C0
3801C0
380180
300180
300380
700380
700380
700300
600300
600700
E00700
E00700
E00600
C00E00
C00E00
C00C00
E01C00
F07800
7FF000
1FE000
000000
000000
0E0000
0E0000
ENDCHAR
STARTCHAR 1EE5
ENCODING 7909
SWIDTH 540 0
DWIDTH 15 0
BBX 13 18 2 -4
BITMAP
3018
3018
7038
7038
6030
6030
E030
E070
E070
C060
C0E0
C1E0
FF60
7CE0
0000
0000
3800
3800
ENDCHAR
STARTCHAR 1EE6
ENCODING 7910
SWIDTH 720 0
DWIDTH 20 0
BBX 18 25 3 0
BITMAP
00F000
001C00
001C00
007000
000000
3801C0
3801C0
380180
300180
300380
700380
700380
700300
600300
600700
E00700
E00700
E00600
C00E00
C00E00
C00C00
E01C00
F07800
7FF000
1FE000
ENDCHAR
STARTCHAR 1EE7
ENCODING 7911
SWIDTH 540 0
DWIDTH 15 0
BBX 13 21 2 0
BITMAP
03C0
03E0
0060
01E0
0180
0000
0000
3018
3018
7038
7038
6030
6030
E030
E070
E070
C060
C0E0
C1E0
FF60
7CE0
ENDCHAR
STARTCHAR 1EE8
ENCODING 7912
SWIDTH 792 0
DWIDTH 22 0
BBX 23 25 3 0
BITMAP
001C00
003800
007000
006000
000000
3801CE
3801CC
38019C
300184
30038C
700398
7003F0
700300
600300
600700
E00700
E00700
E00600
C00E00
C00E00
C00C00
E01C00
F03800
7FF000
1FE000
ENDCHAR
STARTCHAR 1EE9
ENCODING 7913
SWIDTH 648 0
DWIDTH 18 0
BBX 18 20 2 0
BITMAP
00E000
00C000
018000
030000
000000
000000
3019C0
3019C0
703880
703880
603180
603700
E03800
E07000
E07000
C06000
C0E000
C1E000
FF6000
7CE000
ENDCHAR
STARTCHAR 1EEA
ENCODING 7914
SWIDTH 792 0
DWIDTH 22 0
BBX 23 25 3 0
BITMAP
00E000
006000
007000
003000
000000
3801CE
3801CC
38019C
300184
30038C
700398
7003F0
700300
600300
600700
E00700
E00700
E00600
C00E00
C00E00
C00C00
E01C00
F03800
7FF000
1FE000
ENDCHAR
STARTCHAR 1EEB
ENCODING 7915
SWIDTH 648 0
DWIDTH 18 0
BBX 18 20 2 0
BITMAP
070000
038000
018000
018000
000000
000000
3019C0
3019C0
703880
703880
603180
603700
E03800
E07000
E07000
C06000
C0E000
C1E000
FF6000
7CE000
ENDCHAR
STARTCHAR 1EEC
ENCODING 7916
SWIDTH 792 0
DWIDTH 22 0
BBX 23 25 3 0
BITMAP
00F000
001C00
001C00
007000
000000
3801CE
3801CC
38019C
300184
30038C
700398
7003F0
700300
600300
600700
E00700
E00700
E00600
C00E00
C00E00
C00C00
E01C00
F03800
7FF000
1FE000
ENDCHAR
STARTCHAR 1EED
ENCODING 7917
SWIDTH 648 0
DWIDTH 18 0
BBX 18 21 2 0
BITMAP
03C000
03E000
006000
01E000
018000
000000
000000
3019C0
3019C0
703880
703880
603180
603700
E03800
E07000
E07000
C06000
C0E000
C1E000
FF6000
7CE000
ENDCHAR
STARTCHAR 1EEE
ENCODING 7918
SWIDTH 792 0
DWIDTH 22 0
BBX 23 24 3 0
BITMAP
01E600
01FE00
031C00
000000
3801CE
3801CC
38019C
300184
30038C
700398
7003F0
700300
600300
600700
E00700
E00700
E00600
C00E00
C00E00
C00C00
E01C00
F03800
7FF000
1FE000
ENDCHAR
STARTCHAR 1EEF
ENCODING 7919
SWIDTH 648 0
DWIDTH 18 0
BBX 18 20 2 0
BITMAP
031800
07F800
0CF000
000000
000000
000000
3019C0
3019C0
703880
703880
603180
603700
E03800
E07000
E07000
C06000
C0E000
C1E000
FF6000
7CE000
ENDCHAR
STARTCHAR 1EF0
ENCODING 7920
SWIDTH 792 0
DWIDTH 22 0
BBX 23 24 3 -4
BITMAP
3801CE
3801CC
38019C
300184
30038C
700398
7003F0
700300
600300
600700
E00700
E00700
E00600
C00E00
C00E00
C00C00
E01C00
F03800
7FF000
1FE000
000000
000000
0E0000
0E0000
ENDCHAR
STARTCHAR 1EF1
ENCODING 7921
SWIDTH 648 0
DWIDTH 18 0
BBX 18 18 2 -4
BITMAP
3019C0
3019C0
703880
703880
603180
603700
E03800
E07000
E07000
C06000
C0E000
C1E000
FF6000
7CE000
000000
000000
380000
380000
ENDCHAR
STARTCHAR 1EF2
ENCODING 7922
SWIDTH 684 0
DWIDTH 19 0
BBX 18 25 3 0
BITMAP
01C000
00C000
006000
006000
000000
E001C0
700380
700780
380700
380E00
1C1C00
1C3C00
0E3800
0E7000
07E000
07E000
03C000
038000
038000
038000
030000
070000
070000
070000
070000
ENDCHAR
STARTCHAR 1EF3
ENCODING 7923
SWIDTH 504 0
DWIDTH 14 0
BBX 15 26 0 -6
BITMAP
01C0
01C0
00C0
0060
0000
0000
1806
180E
181C
1C18
1C38
1C30
0C70
0C60
0CE0
0CC0
0F80
0F80
0700
0700
0600
0E00
1C00
F800
F800
E000
ENDCHAR
STARTCHAR 1EF4
ENCODING 7924
SWIDTH 684 0
DWIDTH 19 0
BBX 18 24 3 -4
BITMAP
E001C0
700380
700780
380700
380E00
1C1C00
1C3C00
0E3800
0E7000
07E000
07E000
03C000
038000
038000
038000
030000
070000
070000
070000
070000
000000
000000
0E0000
0E0000
ENDCHAR
STARTCHAR 1EF5
ENCODING 7925
SWIDTH 504 0
DWIDTH 14 0
BBX 15 20 0 -6
BITMAP
1806
180E
181C
1C18
1C38
1C30
0C70
0C60
0CE0
0CC0
0F80
0F80
0700
0700
0600
0E00
1CE0
F8E0
F800
E000
ENDCHAR
STARTCHAR 1EF6
ENCODING 7926
SWIDTH 684 0
DWIDTH 19 0
BBX 18 25 3 0
BITMAP
01E000
003800
003800
006000
000000
E001C0
700380
700780
380700
380E00
1C1C00
1C3C00
0E3800
0E7000
07E000
07E000
03C000
038000
038000
038000
030000
070000
070000
070000
070000
ENDCHAR
STARTCHAR 1EF7
ENCODING 7927
SWIDTH 504 0
DWIDTH 14 0
BBX 15 27 0 -6
BITMAP
00F0
0078
0018
0070
0040
0000
0000
1806
180E
181C
1C18
1C38
1C30
0C70
0C60
0CE0
0CC0
0F80
0F80
0700
0700
0600
0E00
1C00
F800
F800
E000
ENDCHAR
STARTCHAR 1EF8
ENCODING 7928
SWIDTH 684 0
DWIDTH 19 0
BBX 18 24 3 0
BITMAP
01C600
03FC00
023800
000000
E001C0
700380
700780
380700
380E00
1C1C00
1C3C00
0E3800
0E7000
07E000
07E000
03C000
038000
038000
038000
030000
070000
070000
070000
070000
ENDCHAR
STARTCHAR 1EF9
ENCODING 7929
SWIDTH 504 0
DWIDTH 14 0
BBX 15 26 0 -6
BITMAP
0184
03FC
0678
0000
0000
0000
1806
180E
181C
1C18
1C38
1C30
0C70
0C60
0CE0
0CC0
0F80
0F80
0700
0700
0600
0E00
1C00
F800
F800
E000
ENDCHAR
STARTCHAR 200C
ENCODING 8204
SWIDTH 0 0
DWIDTH 0 0
BBX 1 21 -1 -4
BITMAP
80
80
80
80
80
80
80
80
80
80
80
80
80
80
80
80
80
80
80
80
80
ENDCHAR
STARTCHAR 200D
ENCODING 8205
SWIDTH 0 0
DWIDTH 0 0
BBX 6 23 -3 -4
BITMAP
84
48
30
30
68
A4
20
20
20
20
20
20
20
20
20
20
20
20
20
20
20
20
20
ENDCHAR
STARTCHAR 200E
ENCODING 8206
SWIDTH 0 0
DWIDTH 0 0
BBX 6 5 0 -4
BITMAP
30
18
FC
08
10
ENDCHAR
STARTCHAR 200F
ENCODING 8207
SWIDTH 0 0
DWIDTH 0 0
BBX 6 23 -6 -4
BITMAP
30
60
FC
44
24
04
04
04
04
04
04
04
04
04
04
04
04
04
04
04
04
04
04
ENDCHAR
STARTCHAR 2013
ENCODING 8211
SWIDTH 540 0
DWIDTH 15 0
BBX 15 2 0 6
BITMAP
FFFE
FFFE
ENDCHAR
STARTCHAR 2014
ENCODING 8212
SWIDTH 1008 0
DWIDTH 28 0
BBX 28 2 0 6
BITMAP
FFFFFFF0
FFFFFFF0
ENDCHAR
STARTCHAR 2015
ENCODING 8213
SWIDTH 1008 0
DWIDTH 28 0
BBX 26 2 1 6
BITMAP
FFFFFFC0
FFFFFFC0
ENDCHAR
STARTCHAR 2017
ENCODING 8215
SWIDTH 540 0
DWIDTH 15 0
BBX 16 5 -2 -9
BITMAP
FFFF
FFFF
0000
FFFF
FFFF
ENDCHAR
STARTCHAR 2018
ENCODING 8216
SWIDTH 216 0
DWIDTH 6 0
BBX 4 7 4 13
BITMAP
30
60
40
C0
E0
E0
C0
ENDCHAR
STARTCHAR 2019
ENCODING 8217
SWIDTH 216 0
DWIDTH 6 0
BBX 4 7 4 13
BITMAP
70
60
E0
20
60
40
80
ENDCHAR
STARTCHAR 201A
ENCODING 8218
SWIDTH 216 0
DWIDTH 6 0
BBX 4 7 0 -4
BITMAP
70
70
70
20
20
40
80
ENDCHAR
STARTCHAR 201B
ENCODING 8219
SWIDTH 216 0
DWIDTH 6 0
BBX 4 7 4 13
BITMAP
70
60
E0
80
80
C0
40
ENDCHAR
STARTCHAR 201C
ENCODING 8220
SWIDTH 324 0
DWIDTH 9 0
BBX 8 7 3 13
BITMAP
31
62
46
44
E6
EE
EE
ENDCHAR
STARTCHAR 201D
ENCODING 8221
SWIDTH 324 0
DWIDTH 9 0
BBX 9 7 3 13
BITMAP
7380
7300
7700
2100
2300
4600
8C00
ENDCHAR
STARTCHAR 201E
ENCODING 8222
SWIDTH 324 0
DWIDTH 9 0
BBX 8 7 0 -4
BITMAP
77
67
E7
22
62
44
88
ENDCHAR
STARTCHAR 2020
ENCODING 8224
SWIDTH 540 0
DWIDTH 15 0
BBX 13 25 3 -5
BITMAP
0180
0380
0380
0300
0300
0300
FFF8
FFF8
0600
0600
0E00
0E00
0C00
0C00
0C00
1C00
1C00
1800
1800
1800
3800
3800
3000
3000
3000
ENDCHAR
STARTCHAR 2021
ENCODING 8225
SWIDTH 540 0
DWIDTH 15 0
BBX 16 25 0 -5
BITMAP
0030
0070
0070
0060
0060
1FE0
1FFF
1FFF
00C0
00C0
01C0
01C0
01C0
0180
0180
0380
0380
0300
FFFC
FFF8
0700
0700
0600
0600
0600
ENDCHAR
STARTCHAR 2022
ENCODING 8226
SWIDTH 360 0
DWIDTH 10 0
BBX 7 7 1 6
BITMAP
3C
7E
7E
FE
7E
7E
18
ENDCHAR
STARTCHAR 2026
ENCODING 8230
SWIDTH 1008 0
DWIDTH 28 0
BBX 22 3 4 0
BITMAP
E0381C
E0301C
E07018
ENDCHAR
STARTCHAR 202A
ENCODING 8234
SWIDTH 0 0
DWIDTH 0 0
BBX 6 1 0 -4
BITMAP
FC
ENDCHAR
STARTCHAR 202B
ENCODING 8235
SWIDTH 0 0
DWIDTH 0 0
BBX 6 21 -6 -4
BITMAP
FC
04
04
04
04
04
04
04
04
04
04
04
04
04
04
04
04
04
04
04
04
ENDCHAR
STARTCHAR 202C
ENCODING 8236
SWIDTH 0 0
DWIDTH 0 0
BBX 6 23 -3 -4
BITMAP
FC
FC
FC
FC
FC
FC
20
20
20
20
20
20
20
20
20
20
20
20
20
20
20
20
20
ENDCHAR
STARTCHAR 202D
ENCODING 8237
SWIDTH 0 0
DWIDTH 0 0
BBX 6 23 -3 -4
BITMAP
FC
80
80
80
80
FC
20
20
20
20
20
20
20
20
20
20
20
20
20
20
20
20
20
ENDCHAR
STARTCHAR 202E
ENCODING 8238
SWIDTH 0 0
DWIDTH 0 0
BBX 6 23 -3 -4
BITMAP
FC
04
04
04
04
FC
20
20
20
20
20
20
20
20
20
20
20
20
20
20
20
20
20
ENDCHAR
STARTCHAR 2030
ENCODING 8240
SWIDTH 1008 0
DWIDTH 28 0
BBX 26 21 2 -1
BITMAP
3E060000
77060000
630C0000
C3180000
C3180000
C3300000
C7700000
C6600000
EEC00000
7CC00000
018E0700
033F0F80
037318C0
0661B0C0
0661B0C0
0CC330C0
18C33180
18C33180
30E63380
707E3F00
60380C00
ENDCHAR
STARTCHAR 2032
ENCODING 8242
SWIDTH 180 0
DWIDTH 5 0
BBX 3 7 4 13
BITMAP
E0
E0
E0
C0
C0
C0
80
ENDCHAR
STARTCHAR 2033
ENCODING 8243
SWIDTH 360 0
DWIDTH 10 0
BBX 8 7 4 13
BITMAP
67
E7
E6
EE
CE
CC
CC
ENDCHAR
STARTCHAR 2039
ENCODING 8249
SWIDTH 324 0
DWIDTH 9 0
BBX 7 12 1 1
BITMAP
06
0C
18
38
70
E0
60
60
30
30
30
18
ENDCHAR
STARTCHAR 203A
ENCODING 8250
SWIDTH 324 0
DWIDTH 9 0
BBX 7 12 1 1
BITMAP
18
18
18
0C
0C
0E
0E
1C
38
70
60
C0
ENDCHAR
STARTCHAR 203C
ENCODING 8252
SWIDTH 504 0
DWIDTH 14 0
BBX 12 20 2 0
BITMAP
1C70
1C70
1C70
1C70
1C70
3860
38E0
38E0
30C0
30C0
30C0
30C0
6080
6180
6180
0000
0000
E380
E380
C380
ENDCHAR
STARTCHAR 203E
ENCODING 8254
SWIDTH 324 0
DWIDTH 9 0
BBX 11 2 2 17
BITMAP
FFE0
FFC0
ENDCHAR
STARTCHAR 2044
ENCODING 8260
SWIDTH 180 0
DWIDTH 5 0
BBX 21 21 -7 -1
BITMAP
000038
000060
0000E0
0001C0
000380
000300
000600
000C00
001800
003000
006000
00C000
018000
038000
070000
060000
0C0000
180000
300000
600000
C00000
ENDCHAR
STARTCHAR 206A
ENCODING 8298
SWIDTH 0 0
DWIDTH 0 0
BBX 6 23 -3 -4
BITMAP
FC
20
20
20
20
FC
20
20
20
20
20
20
20
20
20
20
20
20
20
20
20
20
20
ENDCHAR
STARTCHAR 206B
ENCODING 8299
SWIDTH 0 0
DWIDTH 0 0
BBX 6 23 -3 -4
BITMAP
FC
84
84
84
84
FC
20
20
20
20
20
20
20
20
20
20
20
20
20
20
20
20
20
ENDCHAR
STARTCHAR 206C
ENCODING 8300
SWIDTH 0 0
DWIDTH 0 0
BBX 6 23 -3 -4
BITMAP
FC
78
78
30
30
20
20
20
20
20
20
20
20
20
20
20
20
20
20
20
20
20
20
ENDCHAR
STARTCHAR 206D
ENCODING 8301
SWIDTH 0 0
DWIDTH 0 0
BBX 6 23 -3 -4
BITMAP
20
30
30
78
FC
FC
20
20
20
20
20
20
20
20
20
20
20
20
20
20
20
20
20
ENDCHAR
STARTCHAR 206E
ENCODING 8302
SWIDTH 0 0
DWIDTH 0 0
BBX 6 23 -3 -4
BITMAP
30
78
84
48
30
20
20
20
20
20
20
20
20
20
20
20
20
20
20
20
20
20
20
ENDCHAR
STARTCHAR 206F
ENCODING 8303
SWIDTH 0 0
DWIDTH 0 0
BBX 6 23 -3 -4
BITMAP
E0
20
20
20
20
FC
20
20
20
20
20
20
20
20
20
20
20
20
20
20
20
20
20
ENDCHAR
STARTCHAR 207F
ENCODING 8319
SWIDTH 360 0
DWIDTH 10 0
BBX 9 9 2 7
BITMAP
2F00
7B80
6180
6180
6100
C300
C300
C300
C300
ENDCHAR
STARTCHAR 20A3
ENCODING 8355
SWIDTH 540 0
DWIDTH 15 0
BBX 17 20 0 0
BITMAP
07FF80
07FF00
070000
060000
060000
0E0000
0E0000
0E0000
0C0000
1FFE00
1FFE00
1C0000
180000
180000
FFC000
FF8000
FF8000
300000
300000
700000
ENDCHAR
STARTCHAR 20A4
ENCODING 8356
SWIDTH 540 0
DWIDTH 15 0
BBX 16 20 1 0
BITMAP
01F8
03FC
070E
0E07
0C07
0C00
0C00
3FE0
3FC0
0C00
0C00
7FC0
7FC0
0C00
1C00
1800
3000
7F08
FFF8
C1F8
ENDCHAR
STARTCHAR 20A7
ENCODING 8359
SWIDTH 1080 0
DWIDTH 30 0
BBX 30 20 0 0
BITMAP
07F00000
0FFC7000
0E3E7000
0E0E6000
0C066000
1C0761E0
1C07FFF8
1C0EE638
180ECE1C
187CCE0C
3FF8CF00
3FF1C7C0
3801C3E0
300180F0
30018078
7003B038
7003B838
7003B830
6003FFF0
E001EFE0
ENDCHAR
STARTCHAR 20AA
ENCODING 8362
SWIDTH 828 0
DWIDTH 23 0
BBX 21 14 2 0
BITMAP
1FFE18
1FFE18
180718
380618
31C638
31C630
318E30
718E30
718C70
638070
638060
6300E0
E3FFC0
C3FF80
ENDCHAR
STARTCHAR 20AB
ENCODING 8363
SWIDTH 504 0
DWIDTH 14 0
BBX 14 17 1 3
BITMAP
0018
00FC
0010
0030
07B0
0C70
1870
1060
3060
3060
3060
30E0
19C0
0FC0
0000
0000
FFE0
ENDCHAR
STARTCHAR 20AC
ENCODING 8364
SWIDTH 540 0
DWIDTH 15 0
BBX 17 20 1 0
BITMAP
00FF00
03FF80
078300
0F0000
0E0000
1C0000
180000
FFF800
FFF800
300000
300000
FFF800
FFF000
300000
380000
380000
3C0000
1E0800
0FF800
07F800
ENDCHAR
STARTCHAR 2105
ENCODING 8453
SWIDTH 900 0
DWIDTH 25 0
BBX 22 21 2 -1
BITMAP
0F0070
3B8060
6180C0
600180
600300
400700
C00600
410C00
631800
3E3800
0030F8
00639C
00C20C
01860C
03860C
03040C
06040C
0C0618
1C0638
3803E0
300000
ENDCHAR
STARTCHAR 2113
ENCODING 8467
SWIDTH 324 0
DWIDTH 9 0
BBX 11 20 1 0
BITMAP
03C0
07E0
0660
0E60
0CC0
0D80
1F80
1F00
1E00
3800
7000
F000
F000
7000
6000
E000
E000
C400
FC00
F800
ENDCHAR
STARTCHAR 2116
ENCODING 8470
SWIDTH 1080 0
DWIDTH 30 0
BBX 29 20 1 0
BITMAP
0E006000
0F006000
0F00E000
0F00E000
0F80C1E0
1D80C7F0
1DC1CE38
19C1CC18
18C1DC18
18E19C18
38619838
38739830
30339C70
30330FE0
703B07C0
701B0000
701F3FE0
600F3FE0
600E0000
E00E0000
ENDCHAR
STARTCHAR 2122
ENCODING 8482
SWIDTH 1008 0
DWIDTH 28 0
BBX 21 11 4 9
BITMAP
FFB838
FFB838
183C38
183C78
183458
183458
1836D8
1832D8
183298
183398
183398
ENDCHAR
STARTCHAR 2126
ENCODING 8486
SWIDTH 756 0
DWIDTH 21 0
BBX 18 20 3 0
BITMAP
07F800
1FFC00
3C1E00
780700
700780
E00380
E00380
E00180
E001C0
E001C0
E001C0
E00180
E00380
700380
700700
380700
1C0E00
0E3800
FE3FC0
FE3FC0
ENDCHAR
STARTCHAR 212E
ENCODING 8494
SWIDTH 612 0
DWIDTH 17 0
BBX 15 15 1 0
BITMAP
0780
1870
3018
601C
601C
601C
E01C
FFFE
E000
E000
6000
6000
2008
3010
0FE0
ENDCHAR
STARTCHAR 2153
ENCODING 8531
SWIDTH 828 0
DWIDTH 23 0
BBX 21 21 2 -1
BITMAP
030030
0F0060
3E00C0
3601C0
060380
060700
0C0600
0C0C00
0C1800
0C3000
0060E0
00C3F0
018618
038018
070070
0E00E0
0C0030
180030
300E30
6007F0
C001C0
ENDCHAR
STARTCHAR 2154
ENCODING 8532
SWIDTH 828 0
DWIDTH 23 0
BBX 21 21 2 -1
BITMAP
3F0030
7F8060
6180C0
0181C0
070380
0E0700
3C0600
700C00
7F1800
FF3000
0060E0
00C3F0
018618
038018
070070
0E00E0
0C0030
180030
300E30
6007F0
C001C0
ENDCHAR
STARTCHAR 215B
ENCODING 8539
SWIDTH 828 0
DWIDTH 23 0
BBX 21 21 2 -1
BITMAP
030030
0F0060
3E00C0
3601C0
060380
060700
0C0600
0C0C00
0C1800
0C3000
0060E0
00C3F0
018618
038618
0703F0
0E03E0
0C0630
180C30
300C30
6007E0
C003C0
ENDCHAR
STARTCHAR 215C
ENCODING 8540
SWIDTH 828 0
DWIDTH 23 0
BBX 21 21 2 -1
BITMAP
1F0038
3B8070
2180E0
0180C0
0F0180
0F0300
038600
C38C00
771800
3E3000
0070E0
00E3F0
01C618
018618
0303F0
0603E0
0C0630
180C30
300C30
6007F0
E003C0
ENDCHAR
STARTCHAR 215D
ENCODING 8541
SWIDTH 828 0
DWIDTH 23 0
BBX 21 21 2 -1
BITMAP
3F8038
3F8070
2000E0
6E00C0
7F0180
018300
018600
E18C00
771800
3E3000
0071E0
00E3F0
01C618
018618
0303F0
0603E0
0C0630
180C30
300C30
6007E0
C003C0
ENDCHAR
STARTCHAR 215E
ENCODING 8542
SWIDTH 828 0
DWIDTH 23 0
BBX 21 21 2 -1
BITMAP
7F8030
7F8060
0300C0
060180
060300
0C0600
180E00
181C00
383800
303000
0060E0
00C3F0
018618
030618
0603F0
0C03E0
180630
380C30
700C30
6007E0
C003C0
ENDCHAR
STARTCHAR 2190
ENCODING 8592
SWIDTH 1008 0
DWIDTH 28 0
BBX 26 10 1 2
BITMAP
06000000
0C000000
18000000
38000000
FFFFFFC0
7FFFFFC0
38000000
1C000000
0C000000
06000000
ENDCHAR
STARTCHAR 2191
ENCODING 8593
SWIDTH 504 0
DWIDTH 14 0
BBX 10 24 2 -6
BITMAP
0C00
0C00
1E00
3F00
6F80
CCC0
0C00
0C00
0C00
0C00
0C00
0C00
0C00
0C00
0C00
0C00
0C00
0C00
0C00
0C00
0C00
0C00
0C00
0C00
ENDCHAR
STARTCHAR 2192
ENCODING 8594
SWIDTH 1008 0
DWIDTH 28 0
BBX 25 10 1 2
BITMAP
00001000
00000800
00000E00
00000700
FFFFFF80
FFFFFF80
00000700
00000C00
00000800
00001000
ENDCHAR
STARTCHAR 2193
ENCODING 8595
SWIDTH 504 0
DWIDTH 14 0
BBX 10 24 2 -6
BITMAP
0C00
0C00
0C00
0C00
0C00
0C00
0C00
0C00
0C00
0C00
0C00
0C00
0C00
0C00
0C00
0C00
0C00
8C40
CDC0
7F00
3E00
1E00
0C00
0800
ENDCHAR
STARTCHAR 2194
ENCODING 8596
SWIDTH 1008 0
DWIDTH 28 0
BBX 25 10 1 2
BITMAP
06001800
0C000C00
18000E00
38000700
FFFFFF80
FFFFFF80
38000700
18000C00
0C000800
06001800
ENDCHAR
STARTCHAR 2195
ENCODING 8597
SWIDTH 504 0
DWIDTH 14 0
BBX 10 26 2 -6
BITMAP
0800
0C00
1E00
3F00
7F80
CDC0
8C40
0C00
0C00
0C00
0C00
0C00
0C00
0C00
0C00
0C00
0C00
0C00
0C00
8C40
EDC0
7F00
3E00
1E00
0C00
0800
ENDCHAR
STARTCHAR 21A8
ENCODING 8616
SWIDTH 504 0
DWIDTH 14 0
BBX 10 28 2 -8
BITMAP
0800
0C00
1E00
3F00
7F80
CDC0
8C40
0C00
0C00
0C00
0C00
0C00
0C00
0C00
0C00
0C00
0C00
0C00
0C00
8C40
EDC0
7F00
3E00
1E00
0C00
0800
0000
FFC0
ENDCHAR
STARTCHAR 2202
ENCODING 8706
SWIDTH 504 0
DWIDTH 14 0
BBX 12 20 1 0
BITMAP
03C0
0FE0
0C20
1830
0030
0010
0010
0030
07F0
1F10
3830
7030
E030
E020
C060
C060
C0C0
E180
FF00
7E00
ENDCHAR
STARTCHAR 2206
ENCODING 8710
SWIDTH 612 0
DWIDTH 17 0
BBX 15 18 1 1
BITMAP
0100
0180
0380
03C0
07C0
04C0
04E0
0860
0870
1070
1038
2038
2018
601C
401C
C00E
800E
FFFE
ENDCHAR
STARTCHAR 220F
ENCODING 8719
SWIDTH 828 0
DWIDTH 23 0
BBX 19 26 3 -6
BITMAP
FFFFE0
FFFFE0
E000E0
E000E0
E000E0
E000E0
E000E0
E000E0
E000E0
E000E0
E000E0
E000E0
E000E0
E000E0
E000E0
E000E0
E000E0
E000E0
E000E0
E000E0
E000E0
E000E0
E000E0
E000E0
E000E0
E000E0
ENDCHAR
STARTCHAR 2211
ENCODING 8721
SWIDTH 720 0
DWIDTH 20 0
BBX 17 26 2 -6
BITMAP
FFFF80
FFFF80
F00000
700000
380000
3C0000
1E0000
0F0000
070000
038000
03C000
01E000
00E000
01E000
01C000
038000
070000
0F0000
1E0000
1C0000
380000
700000
F00000
E00000
FFFF80
FFFF80
ENDCHAR
STARTCHAR 2212
ENCODING 8722
SWIDTH 576 0
DWIDTH 16 0
BBX 14 2 2 9
BITMAP
FFFC
FFFC
ENDCHAR
STARTCHAR 2215
ENCODING 8725
SWIDTH 180 0
DWIDTH 5 0
BBX 21 21 -7 -1
BITMAP
000038
000060
0000E0
0001C0
000380
000300
000600
000C00
001800
003000
006000
00C000
018000
038000
070000
060000
0C0000
180000
300000
600000
C00000
ENDCHAR
STARTCHAR 2219
ENCODING 8729
SWIDTH 288 0
DWIDTH 8 0
BBX 2 3 3 8
BITMAP
C0
C0
C0
ENDCHAR
STARTCHAR 221A
ENCODING 8730
SWIDTH 540 0
DWIDTH 15 0
BBX 14 25 1 -1
BITMAP
0004
0004
0004
0004
0008
0008
0008
0008
0008
0008
0010
3810
F810
0C10
0C10
0610
0610
0320
0320
01A0
01A0
00E0
00E0
0040
0040
ENDCHAR
STARTCHAR 221E
ENCODING 8734
SWIDTH 720 0
DWIDTH 20 0
BBX 16 9 2 5
BITMAP
003C
7C6E
46C3
C383
C303
C783
7EC2
387E
0018
ENDCHAR
STARTCHAR 221F
ENCODING 8735
SWIDTH 972 0
DWIDTH 27 0
BBX 17 17 5 0
BITMAP
800000
800000
800000
800000
800000
800000
800000
800000
800000
800000
800000
800000
800000
800000
800000
800000
FFFF80
ENDCHAR
STARTCHAR 2229
ENCODING 8745
SWIDTH 720 0
DWIDTH 20 0
BBX 16 20 3 0
BITMAP
07E0
1FF8
381C
700E
6006
4003
C003
C003
C003
C003
C003
C003
C003
C003
C003
C003
C003
C003
C003
C003
ENDCHAR
STARTCHAR 222B
ENCODING 8747
SWIDTH 288 0
DWIDTH 8 0
BBX 8 28 0 -3
BITMAP
0E
0F
12
10
10
10
18
18
18
18
18
18
18
18
18
18
18
18
18
18
18
18
18
18
10
D0
F0
E0
ENDCHAR
STARTCHAR 2248
ENCODING 8776
SWIDTH 540 0
DWIDTH 15 0
BBX 14 9 2 5
BITMAP
FE0C
FFFC
C7F8
81F0
0000
FE0C
FFFC
87F8
00F0
ENDCHAR
STARTCHAR 2260
ENCODING 8800
SWIDTH 540 0
DWIDTH 15 0
BBX 13 20 2 0
BITMAP
0020
0060
0060
00C0
00C0
0180
FFF8
FFF8
0300
0200
0600
0600
FFF8
FFF8
1800
1800
1000
3000
3000
6000
ENDCHAR
STARTCHAR 2261
ENCODING 8801
SWIDTH 576 0
DWIDTH 16 0
BBX 14 14 2 3
BITMAP
FFFC
FFFC
0000
0000
0000
0000
FFFC
FFFC
0000
0000
0000
0000
FFFC
FFFC
ENDCHAR
STARTCHAR 2264
ENCODING 8804
SWIDTH 540 0
DWIDTH 15 0
BBX 13 17 2 1
BITMAP
0018
0078
01F0
0FC0
3E00
F800
E000
F800
3E00
0FC0
03F0
0078
0018
0000
FFF8
FFF8
FFF8
ENDCHAR
STARTCHAR 2265
ENCODING 8805
SWIDTH 540 0
DWIDTH 15 0
BBX 13 17 2 1
BITMAP
8000
F000
FC00
1F00
07E0
00F8
0038
00F8
07E0
1F80
7C00
F000
C000
0000
FFF8
FFF8
FFF8
ENDCHAR
STARTCHAR 2302
ENCODING 8962
SWIDTH 612 0
DWIDTH 17 0
BBX 13 15 2 1
BITMAP
0600
0D00
0880
1040
2060
4030
C018
8008
8008
8008
8008
8008
8008
8008
FFF8
ENDCHAR
STARTCHAR 2310
ENCODING 8976
SWIDTH 576 0
DWIDTH 16 0
BBX 13 8 2 6
BITMAP
FFF8
FFF8
C000
C000
C000
C000
C000
C000
ENDCHAR
STARTCHAR 2320
ENCODING 8992
SWIDTH 612 0
DWIDTH 17 0
BBX 6 31 7 -7
BITMAP
08
3C
4C
40
40
C0
C0
C0
C0
C0
C0
C0
C0
C0
C0
C0
C0
C0
C0
C0
C0
C0
C0
C0
C0
C0
C0
C0
C0
C0
C0
ENDCHAR
STARTCHAR 2321
ENCODING 8993
SWIDTH 612 0
DWIDTH 17 0
BBX 5 31 4 -7
BITMAP
18
18
18
18
18
18
18
18
18
18
18
18
18
18
18
18
18
18
18
18
18
18
18
18
18
18
18
18
D8
F0
E0
ENDCHAR
STARTCHAR 2500
ENCODING 9472
SWIDTH 720 0
DWIDTH 20 0
BBX 20 3 0 7
BITMAP
FFFFF0
FFFFF0
FFFFF0
ENDCHAR
STARTCHAR 2502
ENCODING 9474
SWIDTH 612 0
DWIDTH 17 0
BBX 3 33 6 -8
BITMAP
E0
E0
E0
E0
E0
E0
E0
E0
E0
E0
E0
E0
E0
E0
E0
E0
E0
E0
E0
E0
E0
E0
E0
E0
E0
E0
E0
E0
E0
E0
E0
E0
E0
ENDCHAR
STARTCHAR 250C
ENCODING 9484
SWIDTH 720 0
DWIDTH 20 0
BBX 11 18 9 -8
BITMAP
FFE0
FFE0
FFE0
C000
C000
C000
C000
C000
C000
C000
C000
C000
C000
C000
C000
C000
C000
C000
ENDCHAR
STARTCHAR 2510
ENCODING 9488
SWIDTH 720 0
DWIDTH 20 0
BBX 11 18 0 -8
BITMAP
FFE0
FFE0
FFE0
0060
0060
0060
0060
0060
0060
0060
0060
0060
0060
0060
0060
0060
0060
0060
ENDCHAR
STARTCHAR 2514
ENCODING 9492
SWIDTH 720 0
DWIDTH 20 0
BBX 11 18 9 7
BITMAP
C000
C000
C000
C000
C000
C000
C000
C000
C000
C000
C000
C000
C000
C000
C000
FFE0
FFE0
FFE0
ENDCHAR
STARTCHAR 2518
ENCODING 9496
SWIDTH 720 0
DWIDTH 20 0
BBX 11 18 0 7
BITMAP
0060
0060
0060
0060
0060
0060
0060
0060
0060
0060
0060
0060
0060
0060
0060
FFE0
FFE0
FFE0
ENDCHAR
STARTCHAR 251C
ENCODING 9500
SWIDTH 720 0
DWIDTH 20 0
BBX 11 33 9 -8
BITMAP
C000
C000
C000
C000
C000
C000
C000
C000
C000
C000
C000
C000
C000
C000
C000
FFE0
FFE0
FFE0
C000
C000
C000
C000
C000
C000
C000
C000
C000
C000
C000
C000
C000
C000
C000
ENDCHAR
STARTCHAR 2524
ENCODING 9508
SWIDTH 720 0
DWIDTH 20 0
BBX 11 33 0 -8
BITMAP
0060
0060
0060
0060
0060
0060
0060
0060
0060
0060
0060
0060
0060
0060
0060
FFE0
FFE0
FFE0
0060
0060
0060
0060
0060
0060
0060
0060
0060
0060
0060
0060
0060
0060
0060
ENDCHAR
STARTCHAR 252C
ENCODING 9516
SWIDTH 720 0
DWIDTH 20 0
BBX 20 18 0 -8
BITMAP
FFFFF0
FFFFF0
FFFFF0
006000
006000
006000
006000
006000
006000
006000
006000
006000
006000
006000
006000
006000
006000
006000
ENDCHAR
STARTCHAR 2534
ENCODING 9524
SWIDTH 720 0
DWIDTH 20 0
BBX 20 18 0 7
BITMAP
006000
006000
006000
006000
006000
006000
006000
006000
006000
006000
006000
006000
006000
006000
006000
FFFFF0
FFFFF0
FFFFF0
ENDCHAR
STARTCHAR 253C
ENCODING 9532
SWIDTH 720 0
DWIDTH 20 0
BBX 20 33 0 -8
BITMAP
006000
006000
006000
006000
006000
006000
006000
006000
006000
006000
006000
006000
006000
006000
006000
FFFFF0
FFFFF0
FFFFF0
006000
006000
006000
006000
006000
006000
006000
006000
006000
006000
006000
006000
006000
006000
006000
ENDCHAR
STARTCHAR 2550
ENCODING 9552
SWIDTH 720 0
DWIDTH 20 0
BBX 20 7 0 5
BITMAP
FFFFF0
FFFFF0
000000
000000
000000
FFFFF0
FFFFF0
ENDCHAR
STARTCHAR 2551
ENCODING 9553
SWIDTH 720 0
DWIDTH 20 0
BBX 8 33 6 -8
BITMAP
C7
C7
C7
C7
C7
C7
C7
C7
C7
C7
C7
C7
C7
C7
C7
C7
C7
C7
C7
C7
C7
C7
C7
C7
C7
C7
C7
C7
C7
C7
C7
C7
C7
ENDCHAR
STARTCHAR 2552
ENCODING 9554
SWIDTH 720 0
DWIDTH 20 0
BBX 11 20 9 -8
BITMAP
FFE0
FFE0
C000
C000
C000
FFE0
FFE0
C000
C000
C000
C000
C000
C000
C000
C000
C000
C000
C000
C000
C000
ENDCHAR
STARTCHAR 2553
ENCODING 9555
SWIDTH 720 0
DWIDTH 20 0
BBX 14 18 6 -8
BITMAP
FFFC
FFFC
FFFC
C700
C700
C700
C700
C700
C700
C700
C700
C700
C700
C700
C700
C700
C700
C700
ENDCHAR
STARTCHAR 2554
ENCODING 9556
SWIDTH 720 0
DWIDTH 20 0
BBX 14 20 6 -8
BITMAP
FFFC
FFFC
C000
C000
C000
C7FC
C7FC
C700
C700
C700
C700
C700
C700
C700
C700
C700
C700
C700
C700
C700
ENDCHAR
STARTCHAR 2555
ENCODING 9557
SWIDTH 720 0
DWIDTH 20 0
BBX 11 20 0 -8
BITMAP
FFE0
FFE0
0060
0060
0060
FFE0
FFE0
0060
0060
0060
0060
0060
0060
0060
0060
0060
0060
0060
0060
0060
ENDCHAR
STARTCHAR 2556
ENCODING 9558
SWIDTH 720 0
DWIDTH 20 0
BBX 14 18 0 -8
BITMAP
FFFC
FFFC
FFFC
031C
031C
031C
031C
031C
031C
031C
031C
031C
031C
031C
031C
031C
031C
031C
ENDCHAR
STARTCHAR 2557
ENCODING 9559
SWIDTH 720 0
DWIDTH 20 0
BBX 14 20 0 -8
BITMAP
FFFC
FFFC
001C
001C
001C
FF1C
FF1C
031C
031C
031C
031C
031C
031C
031C
031C
031C
031C
031C
031C
031C
ENDCHAR
STARTCHAR 2558
ENCODING 9560
SWIDTH 720 0
DWIDTH 20 0
BBX 11 20 9 5
BITMAP
C000
C000
C000
C000
C000
C000
C000
C000
C000
C000
C000
C000
C000
FFE0
FFE0
C000
C000
C000
FFE0
FFE0
ENDCHAR
STARTCHAR 2559
ENCODING 9561
SWIDTH 720 0
DWIDTH 20 0
BBX 14 18 6 7
BITMAP
C700
C700
C700
C700
C700
C700
C700
C700
C700
C700
C700
C700
C700
C700
C700
FFFC
FFFC
FFFC
ENDCHAR
STARTCHAR 255A
ENCODING 9562
SWIDTH 720 0
DWIDTH 20 0
BBX 14 20 6 5
BITMAP
C700
C700
C700
C700
C700
C700
C700
C700
C700
C700
C700
C700
C700
C7FC
C7FC
C000
C000
C000
FFFC
FFFC
ENDCHAR
STARTCHAR 255B
ENCODING 9563
SWIDTH 720 0
DWIDTH 20 0
BBX 11 20 0 5
BITMAP
0060
0060
0060
0060
0060
0060
0060
0060
0060
0060
0060
0060
0060
FFE0
FFE0
0060
0060
0060
FFE0
FFE0
ENDCHAR
STARTCHAR 255C
ENCODING 9564
SWIDTH 720 0
DWIDTH 20 0
BBX 14 18 0 7
BITMAP
031C
031C
031C
031C
031C
031C
031C
031C
031C
031C
031C
031C
031C
031C
031C
FFFC
FFFC
FFFC
ENDCHAR
STARTCHAR 255D
ENCODING 9565
SWIDTH 720 0
DWIDTH 20 0
BBX 14 20 0 5
BITMAP
031C
031C
031C
031C
031C
031C
031C
031C
031C
031C
031C
031C
031C
FF1C
FF1C
001C
001C
001C
FFFC
FFFC
ENDCHAR
STARTCHAR 255E
ENCODING 9566
SWIDTH 720 0
DWIDTH 20 0
BBX 11 33 9 -8
BITMAP
C000
C000
C000
C000
C000
C000
C000
C000
C000
C000
C000
C000
C000
FFE0
FFE0
C000
C000
C000
FFE0
FFE0
C000
C000
C000
C000
C000
C000
C000
C000
C000
C000
C000
C000
C000
ENDCHAR
STARTCHAR 255F
ENCODING 9567
SWIDTH 720 0
DWIDTH 20 0
BBX 14 33 6 -8
BITMAP
C700
C700
C700
C700
C700
C700
C700
C700
C700
C700
C700
C700
C700
C700
C700
C7FC
C7FC
C7FC
C700
C700
C700
C700
C700
C700
C700
C700
C700
C700
C700
C700
C700
C700
C700
ENDCHAR
STARTCHAR 2560
ENCODING 9568
SWIDTH 720 0
DWIDTH 20 0
BBX 14 33 6 -8
BITMAP
C700
C700
C700
C700
C700
C700
C700
C700
C700
C700
C700
C700
C700
C7FC
C7FC
C000
C000
C000
C7FC
C7FC
C700
C700
C700
C700
C700
C700
C700
C700
C700
C700
C700
C700
C700
ENDCHAR
STARTCHAR 2561
ENCODING 9569
SWIDTH 720 0
DWIDTH 20 0
BBX 11 33 0 -8
BITMAP
0060
0060
0060
0060
0060
0060
0060
0060
0060
0060
0060
0060
0060
FFE0
FFE0
0060
0060
0060
FFE0
FFE0
0060
0060
0060
0060
0060
0060
0060
0060
0060
0060
0060
0060
0060
ENDCHAR
STARTCHAR 2562
ENCODING 9570
SWIDTH 720 0
DWIDTH 20 0
BBX 14 33 0 -8
BITMAP
031C
031C
031C
031C
031C
031C
031C
031C
031C
031C
031C
031C
031C
031C
031C
FF1C
FF1C
FF1C
031C
031C
031C
031C
031C
031C
031C
031C
031C
031C
031C
031C
031C
031C
031C
ENDCHAR
STARTCHAR 2563
ENCODING 9571
SWIDTH 720 0
DWIDTH 20 0
BBX 14 33 0 -8
BITMAP
031C
031C
031C
031C
031C
031C
031C
031C
031C
031C
031C
031C
031C
FF1C
FF1C
001C
001C
001C
FF1C
FF1C
031C
031C
031C
031C
031C
031C
031C
031C
031C
031C
031C
031C
031C
ENDCHAR
STARTCHAR 2564
ENCODING 9572
SWIDTH 720 0
DWIDTH 20 0
BBX 20 20 0 -8
BITMAP
FFFFF0
FFFFF0
000000
000000
000000
FFFFF0
FFFFF0
006000
006000
006000
006000
006000
006000
006000
006000
006000
006000
006000
006000
006000
ENDCHAR
STARTCHAR 2565
ENCODING 9573
SWIDTH 720 0
DWIDTH 20 0
BBX 20 18 0 -8
BITMAP
FFFFF0
FFFFF0
FFFFF0
031C00
031C00
031C00
031C00
031C00
031C00
031C00
031C00
031C00
031C00
031C00
031C00
031C00
031C00
031C00
ENDCHAR
STARTCHAR 2566
ENCODING 9574
SWIDTH 720 0
DWIDTH 20 0
BBX 20 20 0 -8
BITMAP
FFFFF0
FFFFF0
000000
000000
000000
FF1FF0
FF1FF0
031C00
031C00
031C00
031C00
031C00
031C00
031C00
031C00
031C00
031C00
031C00
031C00
031C00
ENDCHAR
STARTCHAR 2567
ENCODING 9575
SWIDTH 720 0
DWIDTH 20 0
BBX 20 20 0 5
BITMAP
006000
006000
006000
006000
006000
006000
006000
006000
006000
006000
006000
006000
006000
FFFFF0
FFFFF0
000000
000000
000000
FFFFF0
FFFFF0
ENDCHAR
STARTCHAR 2568
ENCODING 9576
SWIDTH 720 0
DWIDTH 20 0
BBX 20 18 0 7
BITMAP
031C00
031C00
031C00
031C00
031C00
031C00
031C00
031C00
031C00
031C00
031C00
031C00
031C00
031C00
031C00
FFFFF0
FFFFF0
FFFFF0
ENDCHAR
STARTCHAR 2569
ENCODING 9577
SWIDTH 720 0
DWIDTH 20 0
BBX 20 20 0 5
BITMAP
031C00
031C00
031C00
031C00
031C00
031C00
031C00
031C00
031C00
031C00
031C00
031C00
031C00
FF1FF0
FF1FF0
000000
000000
000000
FFFFF0
FFFFF0
ENDCHAR
STARTCHAR 256A
ENCODING 9578
SWIDTH 720 0
DWIDTH 20 0
BBX 20 33 0 -8
BITMAP
006000
006000
006000
006000
006000
006000
006000
006000
006000
006000
006000
006000
006000
FFFFF0
FFFFF0
006000
006000
006000
FFFFF0
FFFFF0
006000
006000
006000
006000
006000
006000
006000
006000
006000
006000
006000
006000
006000
ENDCHAR
STARTCHAR 256B
ENCODING 9579
SWIDTH 720 0
DWIDTH 20 0
BBX 20 33 0 -8
BITMAP
031C00
031C00
031C00
031C00
031C00
031C00
031C00
031C00
031C00
031C00
031C00
031C00
031C00
031C00
031C00
FFFFF0
FFFFF0
FFFFF0
031C00
031C00
031C00
031C00
031C00
031C00
031C00
031C00
031C00
031C00
031C00
031C00
031C00
031C00
031C00
ENDCHAR
STARTCHAR 256C
ENCODING 9580
SWIDTH 720 0
DWIDTH 20 0
BBX 20 33 0 -8
BITMAP
031C00
031C00
031C00
031C00
031C00
031C00
031C00
031C00
031C00
031C00
031C00
031C00
031C00
FF1FF0
FF1FF0
000000
000000
000000
FF1FF0
FF1FF0
031C00
031C00
031C00
031C00
031C00
031C00
031C00
031C00
031C00
031C00
031C00
031C00
031C00
ENDCHAR
STARTCHAR 2580
ENCODING 9600
SWIDTH 720 0
DWIDTH 20 0
BBX 20 17 0 8
BITMAP
FFFFF0
FFFFF0
FFFFF0
FFFFF0
FFFFF0
FFFFF0
FFFFF0
FFFFF0
FFFFF0
FFFFF0
FFFFF0
FFFFF0
FFFFF0
FFFFF0
FFFFF0
FFFFF0
FFFFF0
ENDCHAR
STARTCHAR 2584
ENCODING 9604
SWIDTH 720 0
DWIDTH 20 0
BBX 20 16 0 -8
BITMAP
FFFFF0
FFFFF0
FFFFF0
FFFFF0
FFFFF0
FFFFF0
FFFFF0
FFFFF0
FFFFF0
FFFFF0
FFFFF0
FFFFF0
FFFFF0
FFFFF0
FFFFF0
FFFFF0
ENDCHAR
STARTCHAR 2588
ENCODING 9608
SWIDTH 720 0
DWIDTH 20 0
BBX 20 33 0 -8
BITMAP
FFFFF0
FFFFF0
FFFFF0
FFFFF0
FFFFF0
FFFFF0
FFFFF0
FFFFF0
FFFFF0
FFFFF0
FFFFF0
FFFFF0
FFFFF0
FFFFF0
FFFFF0
FFFFF0
FFFFF0
FFFFF0
FFFFF0
FFFFF0
FFFFF0
FFFFF0
FFFFF0
FFFFF0
FFFFF0
FFFFF0
FFFFF0
FFFFF0
FFFFF0
FFFFF0
FFFFF0
FFFFF0
FFFFF0
ENDCHAR
STARTCHAR 258C
ENCODING 9612
SWIDTH 720 0
DWIDTH 20 0
BBX 10 33 0 -8
BITMAP
FFC0
FFC0
FFC0
FFC0
FFC0
FFC0
FFC0
FFC0
FFC0
FFC0
FFC0
FFC0
FFC0
FFC0
FFC0
FFC0
FFC0
FFC0
FFC0
FFC0
FFC0
FFC0
FFC0
FFC0
FFC0
FFC0
FFC0
FFC0
FFC0
FFC0
FFC0
FFC0
FFC0
ENDCHAR
STARTCHAR 2590
ENCODING 9616
SWIDTH 720 0
DWIDTH 20 0
BBX 10 33 10 -8
BITMAP
FFC0
FFC0
FFC0
FFC0
FFC0
FFC0
FFC0
FFC0
FFC0
FFC0
FFC0
FFC0
FFC0
FFC0
FFC0
FFC0
FFC0
FFC0
FFC0
FFC0
FFC0
FFC0
FFC0
FFC0
FFC0
FFC0
FFC0
FFC0
FFC0
FFC0
FFC0
FFC0
FFC0
ENDCHAR
STARTCHAR 2591
ENCODING 9617
SWIDTH 720 0
DWIDTH 20 0
BBX 19 32 1 -7
BITMAP
C18300
000000
000000
081060
081060
000000
C18300
C18300
000000
000000
081060
081060
000000
C18300
C18300
000000
000000
081060
000000
000000
C18300
C18300
000000
081060
081060
000000
000000
C18300
000000
000000
081060
081060
ENDCHAR
STARTCHAR 2592
ENCODING 9618
SWIDTH 720 0
DWIDTH 20 0
BBX 20 32 0 -7
BITMAP
64C9B0
000000
000000
9B3640
9B3640
000000
64C9B0
64C9B0
000000
000000
9B3640
9B3640
000000
64C9B0
64C9B0
000000
000000
9B3640
000000
000000
64C9B0
64C9B0
000000
9B3640
9B3640
000000
000000
64C9B0
000000
000000
9B3640
9B3640
ENDCHAR
STARTCHAR 2593
ENCODING 9619
SWIDTH 720 0
DWIDTH 20 0
BBX 20 34 0 -9
BITMAP
26CD90
FFFFF0
FFFFF0
D93660
D93660
FFFFF0
26CD90
26CD90
FFFFF0
FFFFF0
D93660
D93660
FFFFF0
26CD90
26CD90
FFFFF0
FFFFF0
D93660
FFFFF0
FFFFF0
26CD90
26CD90
FFFFF0
D93660
D93660
FFFFF0
FFFFF0
26CD90
FFFFF0
FFFFF0
D93660
D93660
FFFFF0
FFFFF0
ENDCHAR
STARTCHAR 25A0
ENCODING 9632
SWIDTH 612 0
DWIDTH 17 0
BBX 13 13 2 0
BITMAP
FFF8
FFF8
FFF8
FFF8
FFF8
FFF8
FFF8
FFF8
FFF8
FFF8
FFF8
FFF8
FFF8
ENDCHAR
STARTCHAR 25A1
ENCODING 9633
SWIDTH 612 0
DWIDTH 17 0
BBX 13 13 2 0
BITMAP
FFF8
8008
8008
8008
8008
8008
8008
8008
8008
8008
8008
8008
FFF8
ENDCHAR
STARTCHAR 25AA
ENCODING 9642
SWIDTH 360 0
DWIDTH 10 0
BBX 6 6 2 6
BITMAP
FC
FC
FC
FC
FC
FC
ENDCHAR
STARTCHAR 25AB
ENCODING 9643
SWIDTH 360 0
DWIDTH 10 0
BBX 6 6 2 6
BITMAP
FC
84
84
84
84
FC
ENDCHAR
STARTCHAR 25AC
ENCODING 9644
SWIDTH 1008 0
DWIDTH 28 0
BBX 28 6 0 4
BITMAP
FFFFFFF0
FFFFFFF0
FFFFFFF0
FFFFFFF0
FFFFFFF0
FFFFFFF0
ENDCHAR
STARTCHAR 25B2
ENCODING 9650
SWIDTH 1008 0
DWIDTH 28 0
BBX 19 19 4 0
BITMAP
004000
006000
00E000
00F000
01F000
01F800
03F800
03FC00
07FC00
07FE00
0FFE00
0FFF00
1FFF00
1FFF80
3FFF80
3FFFC0
7FFFC0
7FFFE0
FFFFE0
ENDCHAR
STARTCHAR 25BA
ENCODING 9658
SWIDTH 1008 0
DWIDTH 28 0
BBX 19 19 4 0
BITMAP
800000
E00000
F80000
FE0000
FF8000
FFE000
FFF800
FFFE00
FFFF80
FFFFE0
FFFFC0
FFFF00
FFFC00
FFF000
FFC000
FF0000
FC0000
F00000
C00000
ENDCHAR
STARTCHAR 25BC
ENCODING 9660
SWIDTH 1008 0
DWIDTH 28 0
BBX 19 19 4 0
BITMAP
FFFFE0
7FFFE0
7FFFC0
3FFFC0
3FFF80
1FFF80
1FFF00
0FFF00
0FFE00
07FE00
07FC00
03FC00
03F800
01F800
01F000
00F000
00E000
006000
004000
ENDCHAR
STARTCHAR 25C4
ENCODING 9668
SWIDTH 1008 0
DWIDTH 28 0
BBX 20 19 4 0
BITMAP
000030
0000F0
0003F0
000FF0
003FF0
00FFF0
03FFF0
0FFFF0
3FFFF0
FFFFF0
3FFFF0
0FFFF0
03FFF0
00FFF0
003FF0
000FF0
0003F0
0000F0
000030
ENDCHAR
STARTCHAR 25CA
ENCODING 9674
SWIDTH 504 0
DWIDTH 14 0
BBX 12 19 2 0
BITMAP
0E00
0A00
1900
1180
3080
20C0
6040
4060
C030
8030
C020
4060
6040
20C0
3080
1100
0B00
0E00
0600
ENDCHAR
STARTCHAR 25CB
ENCODING 9675
SWIDTH 612 0
DWIDTH 17 0
BBX 12 12 2 2
BITMAP
0700
18C0
2020
4010
4010
8010
8010
4010
4010
6020
3060
0F80
ENDCHAR
STARTCHAR 25CF
ENCODING 9679
SWIDTH 612 0
DWIDTH 17 0
BBX 12 12 2 2
BITMAP
0700
1FC0
3FE0
7FF0
7FF0
FFF0
FFF0
7FF0
7FF0
7FE0
3FE0
0F80
ENDCHAR
STARTCHAR 25D8
ENCODING 9688
SWIDTH 612 0
DWIDTH 17 0
BBX 13 13 2 0
BITMAP
FFF8
FFF8
FFF8
FFF8
F0F8
F078
F078
F078
F8F8
FFF8
FFF8
FFF8
FFF8
ENDCHAR
STARTCHAR 25D9
ENCODING 9689
SWIDTH 612 0
DWIDTH 17 0
BBX 15 16 1 0
BITMAP
FFFE
FFFE
FC7E
F39E
EFEE
DFF6
DFF6
9FF6
BFF6
DFF6
DFF6
CFEE
E7CE
F83E
FFFE
FFFE
ENDCHAR
STARTCHAR 25E6
ENCODING 9702
SWIDTH 360 0
DWIDTH 10 0
BBX 6 6 2 7
BITMAP
F8
84
84
84
84
78
ENDCHAR
STARTCHAR 263A
ENCODING 9786
SWIDTH 1008 0
DWIDTH 28 0
BBX 17 18 6 -2
BITMAP
03C000
0FF800
380C00
200600
400300
C00100
8C1180
8C3980
800080
800080
800180
801180
C43100
43E300
200600
380C00
0FF000
018000
ENDCHAR
STARTCHAR 263B
ENCODING 9787
SWIDTH 1044 0
DWIDTH 29 0
BBX 17 18 6 -2
BITMAP
01C000
0FF800
1FFC00
3FFE00
7FFF00
7FFF80
F3E780
F3E780
FFFF80
FFFF80
FFFF80
FBFF80
7BEF80
7C1F00
3FFE00
1FFC00
0FF800
01C000
ENDCHAR
STARTCHAR 263C
ENCODING 9788
SWIDTH 900 0
DWIDTH 25 0
BBX 25 25 0 -3
BITMAP
00080000
00080000
00080000
10080600
08080C00
047F9800
0380F000
01006000
02003000
04001000
04001800
04000800
FC000F80
04000800
04001000
04001000
02003000
01002000
0380F000
067F9000
0C080800
10080400
00080000
00080000
00080000
ENDCHAR
STARTCHAR 2640
ENCODING 9792
SWIDTH 756 0
DWIDTH 21 0
BBX 15 26 3 -6
BITMAP
0FE0
1010
2008
4004
8004
8004
8002
8004
8004
4004
4008
2008
1830
07C0
0100
0100
0100
0100
0100
7FFC
0100
0100
0100
0100
0100
0100
ENDCHAR
STARTCHAR 2642
ENCODING 9794
SWIDTH 756 0
DWIDTH 21 0
BBX 17 26 2 -4
BITMAP
000200
001E00
006500
018500
020900
000900
001080
001080
002080
002000
004000
074000
18E000
201000
400800
800800
800800
800400
000400
800400
800800
800800
401000
203000
18C000
070000
ENDCHAR
STARTCHAR 2660
ENCODING 9824
SWIDTH 540 0
DWIDTH 15 0
BBX 13 16 1 1
BITMAP
0200
0200
0700
0F80
1FC0
3FE0
7FF0
FFF8
FFF8
FFF8
FFF8
7AF0
0200
0600
0700
7FF0
ENDCHAR
STARTCHAR 2663
ENCODING 9827
SWIDTH 648 0
DWIDTH 18 0
BBX 16 17 1 0
BITMAP
0180
07E0
07F0
0FF0
0FF0
07E0
7FFE
FFFF
FFFF
FFFF
FFFF
FF7F
7CBE
0180
01C0
03E0
1FFC
ENDCHAR
STARTCHAR 2665
ENCODING 9829
SWIDTH 612 0
DWIDTH 17 0
BBX 15 17 1 0
BITMAP
3030
7CFC
FEFC
FFFE
FFFE
FFFC
7FFC
7FF8
3FF8
1FF0
1FE0
0FC0
07C0
0380
0300
0100
0100
ENDCHAR
STARTCHAR 2666
ENCODING 9830
SWIDTH 504 0
DWIDTH 14 0
BBX 12 16 1 1
BITMAP
0600
0700
0F00
1F80
1FC0
3FC0
7FE0
FFF0
FFF0
7FE0
3FC0
1F80
0F80
0F00
0600
0200
ENDCHAR
STARTCHAR 266A
ENCODING 9834
SWIDTH 504 0
DWIDTH 14 0
BBX 12 18 1 -1
BITMAP
03E0
03F0
03F0
0230
0210
0210
0200
0200
0200
0200
0200
0200
7A00
FE00
FE00
FE00
FE00
FC00
ENDCHAR
STARTCHAR 266B
ENCODING 9835
SWIDTH 756 0
DWIDTH 21 0
BBX 17 22 1 -1
BITMAP
000380
003F80
01FF80
03FE80
03F080
038080
030080
030080
030080
030080
030080
030080
030080
031F80
033F80
1B3F80
7F3F80
FF3F00
FF1E00
FE0000
7E0000
380000
ENDCHAR
STARTCHAR E801
ENCODING 59393
SWIDTH 252 0
DWIDTH 7 0
BBX 6 18 2 0
BITMAP
60
40
00
00
1C
18
18
38
38
38
30
70
70
70
60
60
E0
E0
ENDCHAR
STARTCHAR E802
ENCODING 59394
SWIDTH 504 0
DWIDTH 14 0
BBX 11 21 3 -6
BITMAP
0800
FFC0
FFE0
01E0
00E0
00E0
00E0
00E0
00E0
00C0
00C0
21C0
61C0
01C0
0180
E380
4380
0380
0300
0300
0700
ENDCHAR
STARTCHAR E803
ENCODING 59395
SWIDTH 504 0
DWIDTH 14 0
BBX 11 21 3 -6
BITMAP
0800
FFC0
FFE0
01E0
00E0
00E0
00E0
00E0
00E0
00C0
00C0
F9C0
61C0
61C0
6180
0380
0380
0380
0300
0300
0700
ENDCHAR
STARTCHAR E804
ENCODING 59396
SWIDTH 468 0
DWIDTH 13 0
BBX 13 20 1 0
BITMAP
0E00
0C00
EC00
DC00
1C00
1800
1FF8
3FF8
0038
0038
0030
0070
0060
00E0
01C0
0380
0300
0700
0700
0600
ENDCHAR
STARTCHAR E805
ENCODING 59397
SWIDTH 468 0
DWIDTH 13 0
BBX 13 20 1 0
BITMAP
0E00
0C00
EC00
DC00
1C00
1800
1FF8
3FF8
0038
0038
0430
0C70
0060
00E0
01C0
0380
0300
0700
0700
0600
ENDCHAR
STARTCHAR F001
ENCODING 61441
SWIDTH 504 0
DWIDTH 14 0
BBX 13 20 2 0
BITMAP
0F98
0FB8
1C38
1800
1800
1800
FF70
3E70
3060
3060
7060
70E0
70E0
60C0
60C0
E1C0
E1C0
C1C0
C180
C180
ENDCHAR
STARTCHAR F002
ENCODING 61442
SWIDTH 504 0
DWIDTH 14 0
BBX 13 20 2 0
BITMAP
0F98
0FB8
1C38
1830
1830
1830
FF70
3E70
3060
3060
7060
70E0
70E0
60C0
60C0
E1C0
E1C0
C1C0
C180
C180
ENDCHAR
STARTCHAR F004
ENCODING 61444
SWIDTH 324 0
DWIDTH 9 0
BBX 4 5 1 -7
BITMAP
70
60
20
40
80
ENDCHAR
STARTCHAR F005
ENCODING 61445
SWIDTH 324 0
DWIDTH 9 0
BBX 7 5 0 -6
BITMAP
3C
0C
0E
FC
F0
ENDCHAR
STARTCHAR F006
ENCODING 61446
SWIDTH 0 0
DWIDTH 0 0
BBX 4 2 -2 23
BITMAP
70
E0
ENDCHAR
STARTCHAR F007
ENCODING 61447
SWIDTH 0 0
DWIDTH 0 0
BBX 4 2 -7 23
BITMAP
70
E0
ENDCHAR
STARTCHAR F008
ENCODING 61448
SWIDTH 0 0
DWIDTH 0 0
BBX 5 4 -2 16
BITMAP
38
30
60
C0
ENDCHAR
STARTCHAR F009
ENCODING 61449
SWIDTH 0 0
DWIDTH 0 0
BBX 5 4 -6 21
BITMAP
38
30
60
C0
ENDCHAR
STARTCHAR F00A
ENCODING 61450
SWIDTH 0 0
DWIDTH 0 0
BBX 1 31 -1 -6
BITMAP
80
80
80
80
80
80
80
80
80
80
80
80
80
00
00
00
00
00
80
80
80
80
80
80
80
80
80
80
80
80
80
ENDCHAR
STARTCHAR F00B
ENCODING 61451
SWIDTH 0 0
DWIDTH 0 0
BBX 6 31 -3 -6
BITMAP
FC
20
20
20
20
20
20
20
20
20
20
20
20
20
20
20
20
20
20
20
20
20
20
20
20
20
20
20
20
20
FC
ENDCHAR
STARTCHAR F00C
ENCODING 61452
SWIDTH 0 0
DWIDTH 0 0
BBX 3 4 0 -5
BITMAP
80
E0
C0
80
ENDCHAR
STARTCHAR F00D
ENCODING 61453
SWIDTH 0 0
DWIDTH 0 0
BBX 3 30 -3 -5
BITMAP
20
E0
60
20
20
20
20
20
20
20
20
20
20
20
20
20
20
20
20
20
20
20
20
20
20
20
20
20
20
20
ENDCHAR
STARTCHAR F00E
ENCODING 61454
SWIDTH 0 0
DWIDTH 0 0
BBX 3 1 0 24
BITMAP
E0
ENDCHAR
STARTCHAR F00F
ENCODING 61455
SWIDTH 0 0
DWIDTH 0 0
BBX 4 4 -7 16
BITMAP
C0
E0
60
30
ENDCHAR
STARTCHAR F010
ENCODING 61456
SWIDTH 0 0
DWIDTH 0 0
BBX 5 2 -3 23
BITMAP
F8
38
ENDCHAR
STARTCHAR F011
ENCODING 61457
SWIDTH 0 0
DWIDTH 0 0
BBX 5 2 -9 23
BITMAP
F8
38
ENDCHAR
STARTCHAR F012
ENCODING 61458
SWIDTH 0 0
DWIDTH 0 0
BBX 6 5 -3 16
BITMAP
F8
BC
1C
78
60
ENDCHAR
STARTCHAR F013
ENCODING 61459
SWIDTH 0 0
DWIDTH 0 0
BBX 6 4 -7 21
BITMAP
F0
1C
18
70
ENDCHAR
STARTCHAR F014
ENCODING 61460
SWIDTH 0 0
DWIDTH 0 0
BBX 6 5 -8 16
BITMAP
F8
BC
1C
38
60
ENDCHAR
STARTCHAR F015
ENCODING 61461
SWIDTH 0 0
DWIDTH 0 0
BBX 8 2 -10 23
BITMAP
71
DF
ENDCHAR
STARTCHAR F016
ENCODING 61462
SWIDTH 0 0
DWIDTH 0 0
BBX 8 3 -10 22
BITMAP
71
FF
8E
ENDCHAR
STARTCHAR F017
ENCODING 61463
SWIDTH 0 0
DWIDTH 0 0
BBX 8 3 -13 22
BITMAP
71
FF
8E
ENDCHAR
STARTCHAR F018
ENCODING 61464
SWIDTH 0 0
DWIDTH 0 0
BBX 8 3 -13 22
BITMAP
71
FF
8E
ENDCHAR
STARTCHAR F019
ENCODING 61465
SWIDTH 0 0
DWIDTH 0 0
BBX 9 3 -10 17
BITMAP
2180
7D80
DF00
ENDCHAR
STARTCHAR F01A
ENCODING 61466
SWIDTH 0 0
DWIDTH 0 0
BBX 9 3 -12 17
BITMAP
3080
7F80
CF00
ENDCHAR
STARTCHAR F01B
ENCODING 61467
SWIDTH 0 0
DWIDTH 0 0
BBX 9 3 -12 17
BITMAP
2180
7F80
DF00
ENDCHAR
STARTCHAR F01C
ENCODING 61468
SWIDTH 0 0
DWIDTH 0 0
BBX 9 3 -4 22
BITMAP
7180
FF00
8F00
ENDCHAR
STARTCHAR F01D
ENCODING 61469
SWIDTH 0 0
DWIDTH 0 0
BBX 9 3 -5 17
BITMAP
2180
7F80
DF00
ENDCHAR
STARTCHAR F01E
ENCODING 61470
SWIDTH 0 0
DWIDTH 0 0
BBX 3 2 -12 -4
BITMAP
E0
E0
ENDCHAR
STARTCHAR F01F
ENCODING 61471
SWIDTH 0 0
DWIDTH 0 0
BBX 3 2 -13 -4
BITMAP
E0
E0
ENDCHAR
STARTCHAR F020
ENCODING 61472
SWIDTH 0 0
DWIDTH 0 0
BBX 3 2 -14 -4
BITMAP
60
E0
ENDCHAR
STARTCHAR F021
ENCODING 61473
SWIDTH 0 0
DWIDTH 0 0
BBX 3 2 -13 -4
BITMAP
E0
E0
ENDCHAR
STARTCHAR F022
ENCODING 61474
SWIDTH 0 0
DWIDTH 0 0
BBX 3 2 -14 -4
BITMAP
E0
E0
ENDCHAR
STARTCHAR F023
ENCODING 61475
SWIDTH 0 0
DWIDTH 0 0
BBX 3 2 -12 -4
BITMAP
60
E0
ENDCHAR
STARTCHAR F024
ENCODING 61476
SWIDTH 0 0
DWIDTH 0 0
BBX 3 2 -10 -4
BITMAP
E0
C0
ENDCHAR
STARTCHAR F025
ENCODING 61477
SWIDTH 0 0
DWIDTH 0 0
BBX 3 2 -10 -4
BITMAP
E0
C0
ENDCHAR
STARTCHAR F026
ENCODING 61478
SWIDTH 0 0
DWIDTH 0 0
BBX 3 2 -12 -4
BITMAP
60
E0
ENDCHAR
STARTCHAR F027
ENCODING 61479
SWIDTH 0 0
DWIDTH 0 0
BBX 3 2 -12 -4
BITMAP
E0
E0
ENDCHAR
STARTCHAR F028
ENCODING 61480
SWIDTH 0 0
DWIDTH 0 0
BBX 3 2 -14 -4
BITMAP
E0
E0
ENDCHAR
STARTCHAR F029
ENCODING 61481
SWIDTH 0 0
DWIDTH 0 0
BBX 3 2 -7 -4
BITMAP
E0
E0
ENDCHAR
STARTCHAR F02A
ENCODING 61482
SWIDTH 0 0
DWIDTH 0 0
BBX 3 2 -6 -4
BITMAP
E0
E0
ENDCHAR
STARTCHAR F02B
ENCODING 61483
SWIDTH 0 0
DWIDTH 0 0
BBX 3 2 -12 -4
BITMAP
60
E0
ENDCHAR
STARTCHAR F02C
ENCODING 61484
SWIDTH 0 0
DWIDTH 0 0
BBX 3 2 -6 -4
BITMAP
E0
E0
ENDCHAR
STARTCHAR F02D
ENCODING 61485
SWIDTH 0 0
DWIDTH 0 0
BBX 9 2 -10 23
BITMAP
3180
CF00
ENDCHAR
STARTCHAR F02E
ENCODING 61486
SWIDTH 0 0
DWIDTH 0 0
BBX 9 3 -9 22
BITMAP
7180
FF00
CF00
ENDCHAR
STARTCHAR F02F
ENCODING 61487
SWIDTH 0 0
DWIDTH 0 0
BBX 8 2 -12 23
BITMAP
71
9F
ENDCHAR
STARTCHAR F030
ENCODING 61488
SWIDTH 0 0
DWIDTH 0 0
BBX 9 3 -12 22
BITMAP
7180
FF00
8F00
ENDCHAR
STARTCHAR F031
ENCODING 61489
SWIDTH 216 0
DWIDTH 6 0
BBX 5 14 1 0
BITMAP
18
38
38
30
30
30
70
70
60
60
60
E0
E0
C0
ENDCHAR
STARTCHAR FB01
ENCODING 64257
SWIDTH 504 0
DWIDTH 14 0
BBX 13 20 2 0
BITMAP
0F98
0FB8
1C38
1800
1800
1800
FF70
3E70
3060
3060
7060
70E0
70E0
60C0
60C0
E1C0
E1C0
C1C0
C180
C180
ENDCHAR
STARTCHAR FB02
ENCODING 64258
SWIDTH 504 0
DWIDTH 14 0
BBX 13 20 2 0
BITMAP
0F98
0FB8
1C38
1830
1830
1830
FF70
3E70
3060
3060
7060
70E0
70E0
60C0
60C0
E1C0
E1C0
C1C0
C180
C180
ENDCHAR
STARTCHAR FB1D
ENCODING 64285
SWIDTH 252 0
DWIDTH 7 0
BBX 5 11 3 3
BITMAP
38
30
30
70
70
70
60
00
00
E0
C0
ENDCHAR
STARTCHAR FB1E
ENCODING 64286
SWIDTH 0 0
DWIDTH 0 0
BBX 8 4 0 17
BITMAP
C3
C3
7E
3C
ENDCHAR
STARTCHAR FB1F
ENCODING 64287
SWIDTH 504 0
DWIDTH 14 0
BBX 11 10 3 4
BITMAP
3860
3060
30E0
70E0
70E0
70C0
60C0
0000
0000
FFC0
ENDCHAR
STARTCHAR FB20
ENCODING 64288
SWIDTH 540 0
DWIDTH 15 0
BBX 15 14 1 0
BITMAP
0E0E
0E0E
0E0C
0E0C
0E1C
0E1C
0E18
0C38
0C30
0C70
0C60
0DE0
FFC0
FF00
ENDCHAR
STARTCHAR FB2A
ENCODING 64298
SWIDTH 684 0
DWIDTH 19 0
BBX 19 18 3 0
BITMAP
0000E0
0000C0
000000
000000
70E1C0
70E180
70C380
61C380
61C380
E38300
E78700
FF0600
F80E00
E00E00
601C00
703800
7FF000
3FC000
ENDCHAR
STARTCHAR FB2B
ENCODING 64299
SWIDTH 684 0
DWIDTH 19 0
BBX 18 18 3 0
BITMAP
300000
300000
000000
000000
70E1C0
70E180
70C380
61C380
61C380
E38300
E78700
FF0600
F80E00
E00E00
601C00
703800
7FF000
3FC000
ENDCHAR
STARTCHAR FB2C
ENCODING 64300
SWIDTH 684 0
DWIDTH 19 0
BBX 19 18 3 0
BITMAP
0000E0
0000C0
000000
000000
70E1C0
70E180
70C380
61C380
61C380
E38300
E78700
FF6600
F86E00
E00E00
601C00
703800
7FF000
3FC000
ENDCHAR
STARTCHAR FB2D
ENCODING 64301
SWIDTH 684 0
DWIDTH 19 0
BBX 18 18 3 0
BITMAP
300000
300000
000000
000000
70E1C0
70E180
70C380
61C380
61C380
E38300
E78700
FF6600
F86E00
E00E00
601C00
703800
7FF000
3FC000
ENDCHAR
STARTCHAR FB2E
ENCODING 64302
SWIDTH 576 0
DWIDTH 16 0
BBX 15 18 2 -4
BITMAP
1C0E
1E0C
0E1C
0F1C
0718
1FB8
3BF0
33E0
71C0
71E0
60E0
E0F0
E070
C078
0000
0000
0000
3F00
ENDCHAR
STARTCHAR FB2F
ENCODING 64303
SWIDTH 576 0
DWIDTH 16 0
BBX 15 21 2 -7
BITMAP
1C0E
1E0C
0E1C
0F1C
0718
1FB8
3BF0
33E0
71C0
71E0
60E0
E0F0
E070
C078
0000
0000
0000
3F00
0C00
0800
0800
ENDCHAR
STARTCHAR FB30
ENCODING 64304
SWIDTH 576 0
DWIDTH 16 0
BBX 15 14 2 0
BITMAP
1C0E
1E0C
0E1C
0F1C
0718
1FB8
3BF0
33E0
71C0
71E0
60E0
E6F0
E470
C078
ENDCHAR
STARTCHAR FB31
ENCODING 64305
SWIDTH 540 0
DWIDTH 15 0
BBX 14 15 1 0
BITMAP
0200
1FE0
1FF0
0078
0038
0038
0438
0C38
0038
0030
0030
0070
0070
FFFC
FFFC
ENDCHAR
STARTCHAR FB32
ENCODING 64306
SWIDTH 396 0
DWIDTH 11 0
BBX 10 15 1 0
BITMAP
0200
0F80
0FC0
01C0
01C0
0DC0
0DC0
0180
0180
0380
1F80
3F80
7380
E380
C380
ENDCHAR
STARTCHAR FB33
ENCODING 64307
SWIDTH 504 0
DWIDTH 14 0
BBX 13 14 3 0
BITMAP
FFF8
FFF8
00E0
00C0
01C0
09C0
19C0
0180
0180
0380
0380
0380
0300
0300
ENDCHAR
STARTCHAR FB34
ENCODING 64308
SWIDTH 612 0
DWIDTH 17 0
BBX 15 15 2 0
BITMAP
0100
1FF8
1FFC
001E
000E
000E
000E
318C
318C
701C
701C
701C
6018
6038
E038
ENDCHAR
STARTCHAR FB35
ENCODING 64309
SWIDTH 288 0
DWIDTH 8 0
BBX 7 14 2 0
BITMAP
0E
0E
0C
1C
1C
DC
D8
18
38
38
38
30
30
70
ENDCHAR
STARTCHAR FB36
ENCODING 64310
SWIDTH 396 0
DWIDTH 11 0
BBX 12 14 2 0
BITMAP
1FF0
1FF0
0380
0700
4E00
CE00
0C00
0C00
0C00
0C00
1C00
1C00
1C00
1800
ENDCHAR
STARTCHAR FB38
ENCODING 64312
SWIDTH 576 0
DWIDTH 16 0
BBX 14 15 3 0
BITMAP
0030
30F8
31FC
711C
701C
701C
631C
E318
E018
E038
E030
E070
F0E0
7FC0
3F80
ENDCHAR
STARTCHAR FB39
ENCODING 64313
SWIDTH 288 0
DWIDTH 8 0
BBX 7 7 2 7
BITMAP
0E
0E
0C
DC
DC
1C
18
ENDCHAR
STARTCHAR FB3A
ENCODING 64314
SWIDTH 504 0
DWIDTH 14 0
BBX 11 21 3 -6
BITMAP
0800
FFC0
FFE0
01E0
00E0
00E0
00E0
10E0
30E0
00C0
00C0
01C0
01C0
01C0
0180
0380
0380
0380
0300
0300
0700
ENDCHAR
STARTCHAR FB3B
ENCODING 64315
SWIDTH 468 0
DWIDTH 13 0
BBX 12 15 1 0
BITMAP
0700
1FC0
1FE0
00F0
0070
0070
0070
0C70
0C70
0070
00E0
01E0
03C0
7F00
FE00
ENDCHAR
STARTCHAR FB3C
ENCODING 64316
SWIDTH 468 0
DWIDTH 13 0
BBX 11 20 3 0
BITMAP
3800
3000
3000
7000
7000
6000
7FE0
FFE0
00E0
00E0
18C0
19C0
0180
0380
0700
0E00
0C00
1C00
1C00
1800
ENDCHAR
STARTCHAR FB3E
ENCODING 64318
SWIDTH 612 0
DWIDTH 17 0
BBX 15 15 2 0
BITMAP
0020
39FC
3BFC
1F0E
1E0E
1C0E
1C0C
18CC
398C
301C
701C
7018
6018
E3F8
C7F8
ENDCHAR
STARTCHAR FB40
ENCODING 64320
SWIDTH 360 0
DWIDTH 10 0
BBX 9 15 1 0
BITMAP
0400
1F00
1F80
0380
0380
0380
0380
3300
3300
0700
0700
0600
0600
FE00
FE00
ENDCHAR
STARTCHAR FB41
ENCODING 64321
SWIDTH 576 0
DWIDTH 16 0
BBX 14 15 3 0
BITMAP
03C0
0FF0
1E78
3838
7018
601C
E018
E318
C638
C038
C030
E070
E0E0
FFC0
3F80
ENDCHAR
STARTCHAR FB43
ENCODING 64323
SWIDTH 576 0
DWIDTH 16 0
BBX 13 21 3 -6
BITMAP
0200
7FE0
7FF0
6078
6038
6038
E038
E130
FB30
7A70
0070
0070
0060
0060
00E0
00E0
00C0
00C0
01C0
01C0
01C0
ENDCHAR
STARTCHAR FB44
ENCODING 64324
SWIDTH 540 0
DWIDTH 15 0
BBX 14 15 2 0
BITMAP
0300
1FF0
3FF8
3838
301C
301C
301C
3D9C
3D98
0038
0030
00F0
41E0
FFC0
FF00
ENDCHAR
STARTCHAR FB46
ENCODING 64326
SWIDTH 468 0
DWIDTH 13 0
BBX 14 14 1 0
BITMAP
1C1C
1C18
1C38
0E38
0E30
0770
07C0
3380
3380
0380
01C0
01C0
FFE0
FFC0
ENDCHAR
STARTCHAR FB47
ENCODING 64327
SWIDTH 540 0
DWIDTH 15 0
BBX 16 20 1 -6
BITMAP
0FFF
0FFE
0006
000E
000E
018C
199C
1838
3870
38E0
30E0
30C0
31C0
71C0
7000
6000
6000
6000
E000
E000
ENDCHAR
STARTCHAR FB48
ENCODING 64328
SWIDTH 504 0
DWIDTH 14 0
BBX 11 15 3 0
BITMAP
0800
FFC0
FFE0
01E0
00E0
00E0
00E0
10E0
30E0
00C0
00C0
01C0
01C0
01C0
0180
ENDCHAR
STARTCHAR FB49
ENCODING 64329
SWIDTH 684 0
DWIDTH 19 0
BBX 18 14 3 0
BITMAP
70E1C0
70E180
70C380
61C380
61C380
E38300
E78700
FF6600
F86E00
E00E00
601C00
703800
7FF000
3FC000
ENDCHAR
STARTCHAR FB4A
ENCODING 64330
SWIDTH 648 0
DWIDTH 18 0
BBX 17 15 1 0
BITMAP
00E000
1FFE00
1FFF00
030780
070380
070380
070380
062300
066300
0E0700
0E0700
0C0700
1C0600
FC0600
F80E00
ENDCHAR
STARTCHAR FB4B
ENCODING 64331
SWIDTH 252 0
DWIDTH 7 0
BBX 6 18 2 0
BITMAP
0C
0C
00
00
1C
18
18
38
38
38
30
70
70
70
60
60
E0
E0
ENDCHAR
STARTCHAR FB4C
ENCODING 64332
SWIDTH 540 0
DWIDTH 15 0
BBX 14 18 1 0
BITMAP
03F0
0000
0000
0200
1FE0
1FF0
0078
0038
0038
0038
0038
0038
0030
0030
0070
0070
FFFC
FFFC
ENDCHAR
STARTCHAR FB4D
ENCODING 64333
SWIDTH 468 0
DWIDTH 13 0
BBX 12 18 1 0
BITMAP
03E0
0000
0000
0700
1FC0
1FE0
00F0
0070
0070
0070
0070
0070
0070
00E0
01E0
03C0
7F00
FE00
ENDCHAR
STARTCHAR FB4E
ENCODING 64334
SWIDTH 540 0
DWIDTH 15 0
BBX 14 18 2 0
BITMAP
03F0
0000
0000
0380
1FF0
3FF8
3838
301C
301C
301C
3E1C
3E18
0038
0030
00F0
41E0
FFC0
FF00
ENDCHAR
STARTCHAR FB4F
ENCODING 64335
SWIDTH 576 0
DWIDTH 16 0
BBX 15 20 2 0
BITMAP
1C00
1800
1800
3800
3800
3000
3E0E
7E0E
0F0C
071C
079C
0FB8
1FF0
39E0
31E0
70E0
70F0
6070
E078
E038
ENDCHAR
STARTCHAR FFFC
ENCODING 65532
SWIDTH 1008 0
DWIDTH 28 0
BBX 28 20 0 0
BITMAP
F0F0F1F0
80000030
80000030
80000030
00000000
078F8100
0EEFE100
186C6100
982C6130
983FC130
983FE130
982C2130
182C2100
0EECEB00
078FCE00
00000000
80000030
80000030
80000030
F0F0F1F0
ENDCHAR
ENDFONT
